<?xml version="1.0" encoding="utf-8"?>
<!-- Generator: Adobe Illustrator 18.1.1, SVG Export Plug-In . SVG Version: 6.00 Build 0)  -->
<svg version="1.1" id="Livello_1" xmlns="http://www.w3.org/2000/svg" xmlns:xlink="http://www.w3.org/1999/xlink" x="0px" y="0px"
	 viewBox="0 0 930.093 1080" enable-background="new 0 0 930.093 1080" xml:space="preserve">
<path fill="#41444A" d="M674.87,635.584c-67.099,0-121.494,54.395-121.494,121.494S607.77,878.572,674.87,878.572
	c67.099,0,121.494-54.395,121.494-121.494S741.969,635.584,674.87,635.584z M674.87,862.364
	c-58.148,0-105.286-47.138-105.286-105.286c0-58.148,47.138-105.286,105.286-105.286s105.286,47.138,105.286,105.286
	C780.156,815.226,733.018,862.364,674.87,862.364z"/>
<path fill="#A6A89C" stroke="#FFFFFF" stroke-width="3" stroke-miterlimit="10" d="M607.196,627.142
	c0,0,50.264,137.475,63.237,138.6c12.973,1.125,24.305,8.123,13.921-18.964c-10.383-27.087-55.688-127.902-55.688-127.902
	L607.196,627.142z"/>
<g>
	<path fill="#F8D2C1" d="M562.484,293.468c-2.108,12.971-0.568,18.701-3.47,23.348c-2.902,4.647-3.823-0.973-13.637,7.961
		c-10.749,9.786-24,18.319-31-5.089C504.376,285.086,561.484,254.795,562.484,293.468z"/>
</g>
<g>
	<path fill="#41444A" d="M507.288,270.861c-7.009-5.71-19.526,1.269-15.02,12.688c-7.009-4.441-15.02,6.979-9.012,14.592
		c-11.015,10.151,10.014,21.57,18.024,12.688c-2.003,17.129,15.521,1.903,19.026-4.441c10.514,10.785,8.511-12.688,9.513-18.398
		c1.001-5.71,7.51-6.979,3.505-15.861c-2.503-5.71-9.012-5.71-14.019-5.71c1.502-17.129-22.53,0.634-10.514,6.979L507.288,270.861z"
		/>
</g>
<g>
	<path fill="#41444A" d="M479.219,816.629c-12,30,38,56,60,40C571.219,832.629,497.219,812.629,479.219,816.629z"/>
</g>
<g>
	<path fill="#F8D2C1" d="M628.887,486.566c8.519,7.888,32.573,25.29,21.981,39.096c-11.242,16.612-38.203-7.378-47.048-13.863
		C610.305,502.954,618.518,493.032,628.887,486.566z"/>
</g>
<path fill="#2575AE" stroke="#FFFFFF" stroke-miterlimit="10" d="M506.343,338.497c0,0,37.365,2,47.365,29s59,109,86,122
	c0,0-11,32-36,14c-25-18-61.817-114-87.409-116c-25.591-2-45.203,100.664-74.521,115.664c0,0-72.07,7.336-87.07-22.664
	S471.978,346.497,506.343,338.497z"/>
<path fill="#419AD5" stroke="#FFFFFF" stroke-miterlimit="10" d="M414.471,492.914c0,0,78.42,25.583,101.829,56.583
	s63.745,51,45.077,79s-63.668,103-83.668,120s-35.639-53.173-35.639-53.173s57.458-73.827,54.549-84.827
	c-2.91-11-97.91-34-120.91-59s-9-86-9-86L414.471,492.914z"/>
<path fill="#A6A89C" stroke="#FFFFFF" stroke-width="3" stroke-miterlimit="10" d="M631.666,616.406l-11.803-28.68l0.278-40.398
	l20.999,0.144l0.174-25.331c0,0-28.497-0.363-41.997-0.289c-13.5,0.074-7.715,31.279-7.715,31.279s-131.99-0.907-164.988-1.134
	c-32.998-0.227-54.3,9.964-79.721,32.451c-17.354,15.351-34.611,16.262-34.611,16.262s-10.499-0.072-76.494-0.526
	c-65.995-0.453-85.842,50.117-85.842,50.117c40.829-48.01,93.146-21.568,93.146-21.568l2.268,106.513
	c-0.361,52.496,29.678,46.703,29.678,46.703l121.491,0.835l13.344,22.591c-0.093,13.499,7.387,19.768,25.918,17.982
	c16.143-1.556,17.434-19.184,17.434-19.184l6.597-43.732c17.563-5.942,40.621-38.441,40.621-38.441l95.322-120.045l8.819,26.263
	c-39.203,29.73-40.958,53.717-40.958,53.717c69.492-85.02,165.419-48.362,165.419-48.362
	C703.568,596.777,631.666,616.406,631.666,616.406z M474.457,714.374c-35.499,5.705-75.27,47.137-75.27,47.137l-87.178-0.647
	c-44.362,0.926-42.674-22.135-42.674-22.135l0.767-111.64l58.119,0.399c26.024-3.256,36.848-20.358,36.848-20.358
	c25.381-31.208,87.217-27.956,87.217-27.956l128.631,0.884L474.457,714.374z"/>
<g>
	<path fill="#F8D2C1" d="M615.511,493.52c7.435,8.917,29.053,29.266,16.775,41.596c-13.284,15.029-36.938-12.226-44.876-19.794
		C594.978,507.385,604.398,498.6,615.511,493.52z"/>
	<g>
		<path fill="#FFFFFF" d="M614.627,494.404c5.462,6.468,11.509,12.483,15.901,19.782c4.659,7.743,6.894,19.752-4.096,23.536
			c-8.02,2.761-16.921-3.959-22.738-8.719c-5.487-4.489-10.305-9.658-15.4-14.565c0,0.589,0,1.179,0,1.768
			c8.207-8.552,17.057-16.478,27.849-21.607c1.452-0.69,0.185-2.846-1.262-2.159c-10.977,5.217-20.007,13.3-28.355,21.998
			c-0.461,0.48-0.495,1.291,0,1.768c6.551,6.311,12.723,13.004,20.22,18.243c6.458,4.513,15.544,9.064,23.118,4.378
			c19.751-12.217-4.637-35.733-13.469-46.192C615.356,491.406,613.595,493.182,614.627,494.404z"/>
	</g>
</g>
<path fill="#2575AE" stroke="#FFFFFF" stroke-miterlimit="10" d="M313.698,498.497c0,0,36,78,56,94s16,102,53,151s54,89,54,89
	s36,1,30-18s-66-210-76-269c0,0-4-26.014-28-36.507c-24-10.493-47-46.493-73-34.493S313.698,498.497,313.698,498.497z"/>
<path fill="#419AD5" stroke="#FFFFFF" stroke-miterlimit="10" d="M534.708,358.497c5,32,47,116,87,139c0,0-13,39-38,16
	c-25-23-63.731-103-77.365-119c-13.635-16-24.635,12-39.635,22s-69,82-139,78c0,0-89-4-23-45s99.305-97.799,136-119
	C485.708,304.497,529.708,326.497,534.708,358.497z"/>
<g>
	<path fill="#419AD5" d="M585.095,295.278c-1.604,0-3.104-0.591-3.118-0.597l-74.571-28.713c-0.333-0.099-1.149-0.45-1.412-1.043
		c-0.275-0.619-0.161-0.986,0.234-1.877c6.161-13.879,14.517-28.067,29.776-28.067c4.056,0,8.466,1.038,13.109,3.084
		c25.785,11.365,17.111,40.461,17.021,40.753l-0.139,0.446l19.082,7.348c1.564,0.603,5.03,2.453,3.429,6.61
		C587.981,294.586,586.833,295.278,585.095,295.278L585.095,295.278z"/>
	<g>
		<path fill="#FFFFFF" d="M536.005,235.481c3.985,0,8.328,1.023,12.906,3.041c10.624,4.682,16.677,12.822,17.992,24.194
			c0.992,8.578-1.224,15.881-1.246,15.954l-0.276,0.893l0.872,0.336l18.645,7.179c1.424,0.548,4.582,2.227,3.143,5.964
			c-0.45,1.168-1.413,1.736-2.946,1.736c-1.495,0-2.92-0.556-2.944-0.566l-74.565-28.711l-0.042-0.016l-0.043-0.012
			c-0.219-0.062-0.875-0.357-1.05-0.751c-0.182-0.409-0.151-0.602,0.235-1.471C512.781,249.519,521.031,235.481,536.005,235.481
			 M536.005,234.481c-16.137,0-24.651,15.788-30.233,28.365c-0.392,0.882-0.608,1.442-0.235,2.283c0.42,0.945,1.69,1.307,1.69,1.307
			l74.565,28.711c0,0,1.585,0.632,3.303,0.632c1.525,0,3.156-0.498,3.879-2.377c1.327-3.446-0.502-6.019-3.717-7.257l-18.645-7.179
			c0,0,9.211-29.675-17.297-41.359C544.375,235.43,539.959,234.481,536.005,234.481L536.005,234.481z"/>
	</g>
</g>
<path fill="#41444A" stroke="#FFFFFF" stroke-width="3" stroke-miterlimit="10" d="M260.788,635.584
	c-67.099,0-121.494,54.395-121.494,121.494s54.395,121.494,121.494,121.494c67.099,0,121.494-54.395,121.494-121.494
	S327.887,635.584,260.788,635.584z M260.788,862.364c-58.148,0-105.286-47.138-105.286-105.286
	c0-58.148,47.138-105.286,105.286-105.286s105.286,47.138,105.286,105.286C366.074,815.226,318.936,862.364,260.788,862.364z"/>
<path fill="#41444A" stroke="#FFFFFF" stroke-width="3" stroke-miterlimit="10" d="M650.842,532.942
	c0,8.421-3.287,15.247-7.342,15.247s-7.342-6.826-7.342-15.247s3.287-12.185,7.342-12.185S650.842,524.522,650.842,532.942z"/>
<path fill="#419AD5" stroke="#FFFFFF" stroke-miterlimit="10" d="M339.759,618.343c0,0,6.387,69.37,0,88.076
	c-6.387,18.705-4.258,28.993-38.322,30.864c-34.064,1.871-81.966,0-81.966,0s-15.967-2.806-13.838-25.252
	c2.129-22.446,6.387-93.687,6.387-93.687s4.258-13.868,32.999-14.803c28.741-0.935,65.998,0,65.998,0
	S333.372,606.024,339.759,618.343z"/>
<path fill="#2575AE" stroke="#FFFFFF" stroke-miterlimit="10" d="M331.395,607.125c0,0,6.511,60.826,0,77.227
	c-6.511,16.401-4.34,25.422-39.064,27.062c-34.724,1.64-83.554,0-83.554,0s-16.277-2.46-14.107-22.142
	c2.17-19.682,6.511-82.148,6.511-82.148s4.34-12.16,33.639-12.98s67.277,0,67.277,0S324.884,596.323,331.395,607.125z"/>
<circle fill="#A6A89C" cx="674.87" cy="757.078" r="19.938"/>
<path fill="#419AD5" stroke="#FFFFFF" stroke-miterlimit="10" d="M315.089,604.323c0,0,4.927,48.056,0,61.014
	c-4.927,12.958-3.284,20.085-29.559,21.381c-26.275,1.296-63.224,0-63.224,0s-12.316-1.944-10.674-17.493
	c1.642-15.549,4.927-64.901,4.927-64.901s3.284-9.607,25.454-10.255s50.908,0,50.908,0S310.162,595.789,315.089,604.323z"/>
</svg>
