<?xml version="1.0" encoding="utf-8"?>
<!-- Generator: Adobe Illustrator 18.1.1, SVG Export Plug-In . SVG Version: 6.00 Build 0)  -->
<svg version="1.1" id="Livello_1" xmlns="http://www.w3.org/2000/svg" xmlns:xlink="http://www.w3.org/1999/xlink" x="0px" y="0px"
	 viewBox="0 0 841.9 595.3" enable-background="new 0 0 841.9 595.3" xml:space="preserve">
<rect x="306.7" y="214.2" fill="#FBFBFB" width="262.8" height="193.7"/>
<polygon fill="#89CCCA" points="306.7,371.4 306.7,407.9 569.5,407.9 569.5,322.3 441.6,306.8 "/>
<g>
	<defs>
		<rect id="SVGID_1_" x="306.7" y="214.2" width="262.8" height="193.7"/>
	</defs>
	<clipPath id="SVGID_2_">
		<use xlink:href="#SVGID_1_"  overflow="visible"/>
	</clipPath>
	<path clip-path="url(#SVGID_2_)" fill="#89CCCA" d="M582.7,225.6c0-7.2-4.6-13.5-11.4-15.7l-64.8-21.2l-53,28.7
		c-4.3,2.4-7.2,7.6-7.2,13.3v0l60.2-31.5L582.7,225.6z M568.7,228.4c0.4,0,0.7-0.3,0.7-0.7c0-0.3-0.1-0.6-0.5-0.8l-62.4-22.2
		l-50.8,26.1c-0.2,0.1-0.3,0.4-0.3,0.6c0,0.3,0.2,0.5,0.5,0.5L568.7,228.4z M453.4,243.4l119.2-1v-9.7l-119.2,2.9V243.4z
		 M564.6,305.5l-105.9-10.1c-5.5-0.5-9.9,6-9.9,12.9l131.1,15.9C579.8,315.4,572.9,306.3,564.6,305.5 M545.4,299.5l13.5,1.2v-53.1
		l-13.5,0V299.5z M522.4,297.4l12.4,1.1v-51l-12.4,0V297.4z M501.2,295.5l11.5,1v-49l-11.5,0V295.5z M481.5,293.8l10.7,0.9v-47.2
		l-10.7,0V293.8z M463.2,292.2l9.9,0.9v-45.5l-9.9,0V292.2z"/>
	<g clip-path="url(#SVGID_2_)">
		<text transform="matrix(1 0 0 1 504.3755 198.4011)"><tspan x="0" y="0" font-family="'MinionPro-Regular'" font-size="12" letter-spacing="-2"> </tspan><tspan x="0.7" y="0" font-family="'MinionPro-Regular'" font-size="12" letter-spacing="-1"> </tspan><tspan x="1.5" y="0" font-family="'MinionPro-Regular'" font-size="12" letter-spacing="-2">  </tspan><tspan x="2.9" y="0" font-family="'MinionPro-Regular'" font-size="12" letter-spacing="-1"> </tspan><tspan x="3.6" y="0" font-family="'MinionPro-Regular'" font-size="12"> </tspan></text>
	</g>
	<path clip-path="url(#SVGID_2_)" fill="#A2A4A4" d="M367.8,317.8c5.1,0.8,8.6,11.2,13.2,14.3c4.6,3.1,10.2,4.4,15,1.9
		c6.5-3.4,10.7-13.2,17.7-14c2.8-0.3,5.5,0.9,8.1,2.2c3.4,1.7,6.7,3.7,9.8,5.9c1.6,1.1,3.3,2.4,4.4,4.4c1,1.9,1.4,4.3,1.7,6.5
		c1.7,11.5,3.4,49.1,5.1,60.6c0.3,1.8,0.5,3.7-0.2,5.2c-0.7,1.5-2,2.2-3.2,2.8c-16.1,7.7-33.3,11.7-50.5,11.7
		c-22.4,1.5-43-0.6-65.3-3.1c-0.4-10.4-0.7-42.8,0-52.8c0.3-4.7-3.2-27.4,11.9-33.3C356.1,322.3,363.7,317.2,367.8,317.8"/>
	<path clip-path="url(#SVGID_2_)" fill="#FFFFFF" d="M367.1,320.3c4.9,1.3,7.2,9,10.5,12.4c3.9,3.9,10.5,6.1,15.9,4.9
		c6-1.4,9.6-6.5,13.6-10.7c2.8-2.8,5.5-5,9.8-3.9c3.9,1,7.8,3.8,11.1,6c4.9,3.2,6.3,6.2,7.2,11.8c0.7,4.5,1.3,8.9,2,13.4
		c0.7,4.5,1.3,8.9,2,13.4c0.3,2,0.6,30.2,0.9,32.2c0.5,3.7-1.5,5.6-4.7,7c-16.6,7.4-33.6,9.7-51.6,10.5c-20.2,0.9-40.4-1.1-60.4-3.4
		c0.8,0.8,1.7,1.7,2.5,2.5c-0.4-9.7,0.2-45.6,0-55.3c-0.1-6.6-0.5-13.4,2-19.6c3.7-9.5,15-11.4,23.5-15.1c4.4-1.9,11.1-6.6,16.3-6
		c3.2,0.4,3.2-4.6,0-5c-5.5-0.7-12.2,3.7-16.9,5.8c-9,4-21,6.2-26.1,15.5c-3.7,6.7-4,14.8-3.8,22.3c0.3,10.4-0.4,47,0.1,57.4
		c0.1,1.5,1.1,2.4,2.5,2.5c38.2,4.4,80.5,8.7,116.2-8.6c7.8-3.8,5.5-36.9,4.4-44.2c-1.5-10-2.5-20.4-4.6-30.3
		c-1.7-8-9.2-11.9-15.9-15.4c-6.3-3.3-11.9-4.1-17.6,0.7c-3.1,2.6-4.3,4.8-7.3,7.4c-4.7,4.1-11.2,4.1-16-0.1
		c-4.9-4.2-7.5-11.2-14.4-13C365.3,314.6,364,319.4,367.1,320.3"/>
	<path clip-path="url(#SVGID_2_)" fill="#646470" d="M353,324.7c-7.9,3.5-19.4,7.1-23.3,13.6c-3.9,6.5-2.7,12.5-3.7,20
		c-0.5,3.8-1,7.6-1.5,11.5c-0.4,2.7-0.7,36.8-0.1,39.5c0.5,2.7,0.2,4.3,2.4,5c5.5,1.8,17.3,1.6,23.1,2.3c28.5,3.3,56.7-1.2,57.3-2.1
		c3.4-4.7-37-44.5-36.9-49.3c0.1-6-6.3-10.7-6.2-16.7c0.1-4.5,2.9-8.6,1.9-13c-1-4.4-6-9.1-9.6-11.7"/>
	<path clip-path="url(#SVGID_2_)" fill="#47474C" d="M368.2,317.6c-5.8,3.4-12.7,4.3-19.9,7.7c5.3,2.6,12.2,8.8,17,11.9
		c0.4,0.3,0.8,0.6,0.9,1c0.1,0.4-0.3,0.9-0.6,1.2c-2.3,2.5-4.6,4.9-6.9,7.4c-1,1-2,2.2-2,3.5c0,0.8,0.4,1.6,0.8,2.4
		c7.1,12.9,17.3,24.5,29.9,34c-0.4-24.2-16.4-44.7-18.1-68.8"/>
	<path clip-path="url(#SVGID_2_)" fill="#FFFFFF" d="M367.9,317.1c-6.3,3.4-13.4,4.8-19.9,7.7c-0.4,0.2-0.4,0.9,0,1.1
		c3.6,1.9,6.8,4.3,9.9,6.7c1.6,1.2,7.3,4.3,7.1,6.5c-0.1,1.1-3.8,4.1-4.6,4.9c-1.1,1.2-2.5,2.3-3.4,3.7c-1,1.5-1.3,2.5-0.8,4.3
		c0.8,3.3,3.8,6.8,5.8,9.6c2.2,3.3,4.7,6.4,7.3,9.4c5.3,6.1,11.3,11.5,17.7,16.5c0.4,0.3,1-0.1,0.9-0.5
		c-0.8-24.2-16.1-44.8-18.1-68.8c-0.1-0.8-1.3-0.8-1.3,0c1.2,14.9,7.5,28.3,12.4,42.2c1.3,3.6,2.5,7.1,3.4,10.8
		c0.4,1.6,0.8,3.1,1.1,4.7c0.4,2,1.8,6,1.1,7.9c0,0.5,0.1,1.1,0.1,1.6c-1.1-0.5-2.1-1.2-3-2c-1.6-1.2-3.1-2.6-4.6-4
		c-2.9-2.7-5.7-5.5-8.3-8.5c-2.7-3.1-5.3-6.4-7.6-9.8c-2.7-4-7.1-8.5-4.1-13.5c1.4-2.4,9.1-6.6,7.4-9.9c-0.8-1.5-4-2.9-5.3-4
		c-2.9-2.2-5.8-4.5-8.8-6.5c-2.1-1.3-3.6-1.1-0.1-2.4c2.3-0.9,4.6-1.6,6.9-2.3c3.3-1.1,6.5-2.2,9.6-3.9
		C369.3,317.8,368.6,316.7,367.9,317.1"/>
	<path clip-path="url(#SVGID_2_)" fill="#FADACB" d="M417.1,293.9c0,17-11.4,30.8-25.6,30.8c-14.1,0-25.6-13.8-25.6-30.8
		c0-17,11.4-30.8,25.6-30.8C405.6,263.1,417.1,276.9,417.1,293.9"/>
	<path clip-path="url(#SVGID_2_)" fill="#A16B4D" d="M369.3,289.8c-1.1,2.4-2.9,9.1-5.5,8.7c-3.1-0.4-2.9-9.1-2.8-12.2
		c0.3-5.4,2.4-12.3,5-17.1c4.3-7.9,7.7-13.4,15.1-18.5c1.5-1,3.4-2,5.1-1.3c0.5,0.2,1,0.6,1.6,0.7c0.8,0.1,1.6-0.4,2.3-0.8
		c4-2.6,8.6-4.3,13.3-4.8c0.9-0.1,2-0.1,2.8,0.3c1.2,0.7,1.6,2.1,1.9,3.4c0.5,1.8,1,3.7,1.4,5.5c0.2,0.7,0.4,1.5,0.9,2
		c0.9,0.8,2.2,0.7,3.4,1.1c2.9,1,3.6,4.6,4,7.6c1,9.2,1.9,18.4,2.9,27.6c0.1,1.1,0.2,2.4-0.3,3.4c-0.5,1-2,1.6-2.9,0.8
		c-0.6-0.5-0.7-1.4-0.7-2.2c-0.2-7.3-2-15.3-7.8-19.8c-1.5,2.5-3,5-5.2,7c-2.2,1.9-5.2,3.1-8,2.4c2.2-4.2,3-10-0.4-13.2
		c-2.7-2.6-7-2.5-10.6-1.4c-4,1.3-7.5,3.8-10.1,7.1c-2.4,3-2.4,3.1-3.9,6.6C369.6,285.2,370.3,287.3,369.3,289.8"/>
	<path clip-path="url(#SVGID_2_)" fill="#FFFFFF" d="M384.9,250.2c-0.9,0-2,0.5-3.3,1.3c-7.4,5.2-10.7,10.5-14.8,18.1
		c-2.7,5-4.6,11.7-4.9,16.7c-0.4,7,0.7,11,1.9,11.2l0.1,0c1.3,0,2.8-4.1,3.6-6c0.3-0.8,0.6-1.6,0.9-2.1c0.5-1.1,0.5-2.1,0.6-3.3
		c0.1-1.2,0.2-2.5,0.8-3.9c1.5-3.6,1.6-3.8,4-6.9c2.7-3.4,6.4-6.1,10.6-7.4c1.6-0.5,3.3-0.8,4.9-0.8c2.7,0,5.1,0.8,6.7,2.4
		c3.4,3.3,3.1,8.7,1.2,13.2c2,0.1,4.1-0.8,5.9-2.3c2.1-1.8,3.6-4.3,5-6.7l0.6-1l0.9,0.7c5.1,3.9,7.9,10.8,8.2,20.6
		c0,0.6,0.1,1.3,0.3,1.5c0,0,0.1,0.1,0.3,0.1c0.4,0,0.9-0.3,1.1-0.7c0.4-0.7,0.3-1.7,0.2-2.8l-2.9-27.6c-0.4-4-1.5-6.1-3.3-6.8
		c-0.3-0.1-0.7-0.2-1.1-0.2c-0.9-0.2-1.9-0.3-2.7-1.1c-0.8-0.7-1-1.7-1.2-2.5l-1.4-5.5c-0.3-1.1-0.6-2.3-1.4-2.7
		c-0.3-0.2-0.7-0.3-1.3-0.3c-0.3,0-0.6,0-0.9,0.1c-4.6,0.5-9,2.1-12.9,4.6c-0.8,0.5-1.8,1.2-3,1c-0.6-0.1-1-0.3-1.4-0.5
		c-0.2-0.1-0.3-0.2-0.5-0.2C385.5,250.2,385.2,250.2,384.9,250.2 M363.9,299.5c-0.1,0-0.2,0-0.3,0c-3.5-0.5-3.9-7.5-3.6-13.3
		c0.3-5.3,2.3-12.4,5.1-17.5c4.1-7.6,7.6-13.5,15.4-18.9c2.4-1.7,4.4-2.1,6.1-1.4c0.2,0.1,0.4,0.2,0.6,0.3c0.3,0.1,0.5,0.3,0.7,0.3
		c0.4,0.1,1-0.3,1.6-0.7c4.1-2.7,8.9-4.4,13.8-4.9c0.4,0,0.8-0.1,1.1-0.1c0.9,0,1.6,0.2,2.2,0.5c1.6,0.9,2.1,2.8,2.4,4l1.4,5.5
		c0.1,0.6,0.3,1.2,0.7,1.5c0.4,0.3,0.9,0.4,1.6,0.6c0.4,0.1,0.9,0.2,1.3,0.3c3.5,1.2,4.3,5.4,4.6,8.5l2.9,27.6
		c0.1,1.1,0.3,2.6-0.4,4c-0.5,1-1.7,1.7-2.8,1.7c-0.6,0-1.2-0.2-1.6-0.6c-1-0.8-1-2.2-1-3c-0.3-8.5-2.5-14.7-6.6-18.3
		c-1.3,2.1-2.8,4.4-4.8,6.2c-2.7,2.3-6.1,3.3-8.9,2.6l-1.2-0.3l0.6-1.1c2.1-3.9,2.8-9.2-0.2-12c-1.6-1.5-3.8-1.9-5.3-1.9
		c-1.4,0-2.8,0.2-4.2,0.7c-3.8,1.2-7.2,3.6-9.6,6.7c-2.3,2.9-2.3,2.9-3.7,6.4c-0.5,1.1-0.5,2.2-0.6,3.3c-0.1,1.2-0.2,2.5-0.8,3.9
		c-0.2,0.5-0.5,1.2-0.8,2C368.1,295.5,366.6,299.5,363.9,299.5"/>
	<path clip-path="url(#SVGID_2_)" fill="#646470" d="M426.3,329.3c4.5,0.5,8.1,4.3,9.8,8.5c1.6,4.2,1.7,8.9,1.9,13.4
		c0.2,6.3,1.4,11.8,2.1,18.1c0.3,2.4,4.6,33.7,3.6,35.9c-1,2-29.8,8.6-36.4,9.2c-5.4,0.5-4.7-21.8-3.6-27.1
		c5.2-12.4,9.1-25.1,8.9-38.5c-0.1-5.2-0.6-10.8,2.3-15.1c2.3-3.4,6.6-5.4,10.7-4.8"/>
	<path clip-path="url(#SVGID_2_)" fill="#47474C" d="M411.1,316.7c5.4,4.5,11.6,8.1,18.3,10.6c-4.4,3.2-8.5,6.7-12.4,10.4
		c-0.3,0.3-0.7,0.7-0.7,1.1c0,0.5,0.4,0.8,0.7,1.2c2.3,2.2,0.6,1.7,2.9,3.9c1,0.9,2,2,2.1,3.3c0.1,0.9,1.4,3.9,1.1,4.7
		c-4.9,13.8-12.9,22-19.3,35.2c-2.1-24.5,7.4-45.5,6.5-70"/>
	<path clip-path="url(#SVGID_2_)" fill="#FFFFFF" d="M410.7,317.2c5.7,4.6,11.8,8.1,18.6,10.8c0-0.4-0.1-0.8-0.1-1.1
		c-2.7,2-5.4,4.1-7.9,6.3c-1.4,1.2-4.8,3.2-5.3,5c-0.2,0.9-0.2,1,0.2,1.9c0.5,1.2,2.3,2.3,3.2,3.2c2.3,2.2,1.3,3.4,2.2,6.5
		c1.9,6.5-3.8,12.3-8,18.7c-8.1,12.1-6.8,10.3-10.3,18.4c0.4,0.1,0.7,0.3,1.1,0.4c-1.7-25.1,7.4-45.2,6.7-70.1c0-0.8-1.3-0.8-1.3,0
		c0.6,25-8.5,45.1-6.7,70.1c0,0.5,0.8,1,1.1,0.4c5.3-10.1,11.4-18.5,16.9-31.7c2.2-5.3,5.9-7,1.9-11c-1.3-1.3-2.9-2.5-4.1-4
		c-1.8-2.2-1.9-1.8-0.1-4c2.9-3.5,7.4-6.5,11-9.1c0.5-0.3,0.4-0.9-0.2-1.1c-6.6-2.6-12.6-6-18.1-10.4
		C410.9,315.8,410.1,316.7,410.7,317.2"/>
	<path clip-path="url(#SVGID_2_)" fill="#47474C" d="M363.8,264.5c-1.3,1.9-1.2,9,0.8,10.1c2,1.1,4.3,0.8,6.5,0.5
		c15.3-1.8,30.8-1.7,46.1,0.2c0.8,0.1,1.8,0.1,2.4-0.6c0.3-0.4,0.4-0.9,0.4-1.4c0.2-2.2,0-4.4-0.6-6.5L363.8,264.5z"/>
	<path clip-path="url(#SVGID_2_)" fill="#47474C" d="M360.2,268.5c-9.2-0.7-18.4-2.6-27.1-5.7c20.9-7.2,37.9-12.7,59-19.3
		c1.4-0.4,2.7-0.8,4.1-0.9c2,0,3.8,0.8,5.6,1.6c16,7,36.2,13,52.2,20c-8.8,3.3-18.1,5.2-27.4,5.7c0,0-25.4-3.5-33.9-3.6
		C384.6,266.1,360.2,268.5,360.2,268.5"/>
	<path clip-path="url(#SVGID_2_)" fill="#FFFFFF" d="M360.2,267.6c-9.2-0.8-18.1-2.7-26.8-5.7v1.7c10.2-3.5,20.4-6.9,30.6-10.3
		c5.1-1.7,10.2-3.3,15.4-4.9c4.9-1.6,10-3.7,15-4.7c4.8-1,10.5,2.8,15,4.5c4.7,1.8,9.4,3.6,14.1,5.3c10.1,3.6,20.3,7.2,30.1,11.4
		c0.1-0.5,0.1-1.1,0.2-1.6c-9.5,3.5-20.3,6.5-30.5,5.2c-7.9-1-15.8-2-23.7-2.7C386.6,264.7,373.2,266.3,360.2,267.6
		c-1.1,0.1-1.2,1.9,0,1.8c13.3-1.3,26.9-2.9,40.3-1.7c8,0.7,15.9,1.7,23.9,2.8c9.8,1.3,20.9-2,30-5.4c0.6-0.2,1-1.3,0.2-1.6
		c-9.6-4.2-19.5-7.6-29.3-11.2c-5.1-1.9-10.3-3.7-15.3-5.7c-4.2-1.7-9-4.8-13.6-4.8c-4.8,0-10.3,2.7-14.9,4.2
		c-5.4,1.7-10.7,3.4-16.1,5.2c-10.8,3.5-21.7,7.2-32.5,10.9c-0.9,0.3-0.9,1.4,0,1.7c8.9,3,18,4.9,27.3,5.7
		C361.3,269.5,361.3,267.7,360.2,267.6"/>
	<path clip-path="url(#SVGID_2_)" fill="#47474C" d="M346.9,263.8c0.3,6,0.1,12.1-0.8,18.1c-0.7,4.7-2.1,9.8-6.1,12.8
		c-0.7,0.5,0,1.8,0.7,1.2c4.1-3,5.8-8,6.6-12.8c1.1-6.4,1.3-12.9,1-19.3C348.3,262.9,346.8,262.9,346.9,263.8"/>
	<path clip-path="url(#SVGID_2_)" fill="#47474C" d="M347.6,264c1.4,7.1-1.5,13.9-1.5,21c0,2.7,0.6,5.6,2.4,7.7
		c1.7,1.9,4.2,2.9,6.7,2.4c0.9-0.2,0.5-1.6-0.4-1.4c-2.9,0.7-5.5-1.5-6.5-4.1c-1.1-2.7-0.8-5.8-0.5-8.6c0.7-5.8,2.3-11.5,1.1-17.3
		C348.8,262.7,347.4,263.1,347.6,264"/>
	<path clip-path="url(#SVGID_2_)" fill="#89CCCA" d="M352.6,277.8c0-2.6-2.1-4.7-4.7-4.7s-4.7,2.1-4.7,4.7s2.1,4.7,4.7,4.7
		S352.6,280.4,352.6,277.8"/>
	
		<circle clip-path="url(#SVGID_2_)" fill="none" stroke="#FFFFFF" stroke-width="1.939" stroke-miterlimit="10" cx="347.9" cy="277.8" r="4.7"/>
	<path clip-path="url(#SVGID_2_)" fill="#919185" d="M529.3,309c2.7,0.7,4,1,4.9,1.7c2.5,2.2,2.2,8.8,0.2,11.5
		c-1.4,1.8-2,3.5-7.1,4.1c-1.5,0.2-6-0.3-7.5-0.6c-4.8-0.9-6.3-2.7-11.2-3.6c-0.9-0.2-1.9-0.4-2.7-1c-1.5-1.3-1-3.8-0.4-5.7
		c0.7-2.1,1.4-4.2,2.8-5.9c2.4-3,6.4-4.3,10.2-4.1C522.3,305.6,525.9,307.1,529.3,309"/>
	<path clip-path="url(#SVGID_2_)" fill="#B0AEA2" d="M499.1,401c5.5-8.6,6.5-17.2,9.5-33.5c1.9-10.5,3.6-15.7,5.4-26.3
		c0.9-5.3,1.9-10.7,3-16c1-4.8,2.2-9.7,5.6-13.3c3.4-3.5,6.8-3.3,11.8-1.1c-9.5-7.6-57.9-14-88.6-16c-7.2,1.8-12.6,7.9-15.6,14.6
		c-3,6.8-3.9,14.2-5,21.5c-2.8,18.4-6.8,36.7-12,54.6c-0.9,3-1.8,6.1-3.8,8.6c-5.2,6.7-9.7,5.8-17.9,3.4c6.5,4.6,8.3,8.2,15.8,10.8
		c13.3,4.7,26.7,9.3,40.4,12.5c10.6,2.5,13.4,3.2,24.3,3.8C472,424.7,487.6,418.8,499.1,401"/>
	<path clip-path="url(#SVGID_2_)" fill="none" stroke="#FFFFFF" stroke-width="1.293" stroke-miterlimit="10" d="M499.1,401
		c5.5-8.6,6.5-17.2,9.5-33.5c1.9-10.5,3.6-15.7,5.4-26.3c0.9-5.3,1.9-10.7,3-16c1-4.8,2.2-9.7,5.6-13.3c3.4-3.5,6.8-3.3,11.8-1.1
		c-9.5-7.6-57.9-14-88.6-16c-7.2,1.8-12.6,7.9-15.6,14.6c-3,6.8-3.9,14.2-5,21.5c-2.8,18.4-6.8,36.7-12,54.6c-0.9,3-1.8,6.1-3.8,8.6
		c-5.2,6.7-9.7,5.8-17.9,3.4c6.5,4.6,8.3,8.2,15.8,10.8c13.3,4.7,26.7,9.3,40.4,12.5c10.6,2.5,13.4,3.2,24.3,3.8
		C472,424.7,487.6,418.8,499.1,401z"/>
	<path clip-path="url(#SVGID_2_)" fill="#919185" d="M385.9,398.4c-2.2-1.4-2-5-1.1-7.5c0.9-2.5,3.1-4.4,5.7-5c4.2-1,8.2,1.4,12,3.4
		c13.7,7.2,29.4,9.7,44.7,12.1c5.9,0.9,11.7,1.8,17.6,2.8c2.8,0.4,5.7,0.9,8.3,2.2c-3.3,0.4-6.8,6.1-6.2,9.4c0.9,5.5,2.4,7.1,5.2,9
		c0,0-26.9,1.6-73.8-19.7C393.9,403,390.5,401.4,385.9,398.4"/>
	<path clip-path="url(#SVGID_2_)" fill="none" stroke="#FFFFFF" stroke-width="1.293" stroke-miterlimit="10" d="M385.9,398.4
		c-2.2-1.4-2-5-1.1-7.5c0.9-2.5,3.1-4.4,5.7-5c4.2-1,8.2,1.4,12,3.4c13.7,7.2,29.4,9.7,44.7,12.1c5.9,0.9,11.7,1.8,17.6,2.8
		c2.8,0.4,5.7,0.9,8.3,2.2c-3.3,0.4-6.8,6.1-6.2,9.4c0.9,5.5,2.4,7.1,5.2,9c0,0-26.9,1.6-73.8-19.7
		C393.9,403,390.5,401.4,385.9,398.4z"/>
	<path clip-path="url(#SVGID_2_)" fill="#AFA363" d="M494.6,383.9C494.6,383.9,494.6,383.9,494.6,383.9l-9.2-7.9l10.8,0.2
		c0.1,0,0.1,0.1,0.1,0.1c0,0.1,0,0.1-0.1,0.1l-10.1-0.2l8.6,7.4c0.1,0,0.1,0.1,0,0.2C494.7,383.9,494.6,383.9,494.6,383.9"/>
	<path clip-path="url(#SVGID_2_)" fill="#AFA363" d="M480.8,386.7C480.8,386.7,480.8,386.7,480.8,386.7c-0.1-0.1-0.1-0.1-0.1-0.2
		l5-10.7l3.6,11.8c0,0.1,0,0.2-0.1,0.2c-0.1,0-0.1,0-0.2-0.1l-3.4-11.2l-4.7,10.2C480.9,386.7,480.9,386.7,480.8,386.7"/>
	<path clip-path="url(#SVGID_2_)" fill="#AFA363" d="M475.6,380.7C475.6,380.7,475.5,380.7,475.6,380.7c-0.1-0.2-0.1-0.2,0-0.3
		l9.8-4.4l-11-3c-0.1,0-0.1-0.1-0.1-0.2c0-0.1,0.1-0.1,0.1-0.1l11.7,3.2L475.6,380.7C475.6,380.7,475.6,380.8,475.6,380.7"/>
	<path clip-path="url(#SVGID_2_)" fill="#AFA363" d="M485.7,376.3l-7-10.1c0-0.1,0-0.1,0-0.2c0.1,0,0.1,0,0.2,0l6.8,9.8l3.8-9.5
		c0-0.1,0.1-0.1,0.2-0.1s0.1,0.1,0.1,0.2L485.7,376.3z"/>
</g>
<polygon fill="#AFA363" points="426,370.2 426,369.9 437.2,367 430.4,363.4 430.5,363.1 437.9,367.1 "/>
<polygon fill="#AFA363" points="437.5,367.4 435.8,360.5 436,360.4 437.6,366.7 440.9,359.4 441.1,359.5 "/>
<polygon fill="#AFA363" points="437,367.2 447.5,360.9 447.6,361.1 438.1,366.8 448.8,365.4 448.8,365.6 "/>
<polygon fill="#AFA363" points="438.3,375.9 437.4,366.8 445.9,370.6 445.8,370.9 437.7,367.3 438.5,375.8 "/>
<polygon fill="#AFA363" points="432.2,376.9 432,376.8 437.3,367.3 425.8,371.5 425.8,371.3 437.9,366.8 "/>
<polygon fill="#AFA363" points="437.5,367.2 429.6,364 429.7,363.8 437.6,366.9 "/>
<g>
	<defs>
		<rect id="SVGID_3_" x="306.7" y="214.2" width="262.8" height="193.7"/>
	</defs>
	<clipPath id="SVGID_4_">
		<use xlink:href="#SVGID_3_"  overflow="visible"/>
	</clipPath>
	<path clip-path="url(#SVGID_4_)" fill="#F8EF88" d="M437.3,365.9c-0.3,0.3-0.3,0.7-0.1,1c0.2,0.3,0.7,0.2,1,0l8.7-8.4
		c-0.5-0.2-0.9-0.3-1.4-0.4L437.3,365.9z"/>
	<path clip-path="url(#SVGID_4_)" fill="#CCC171" d="M439,366.2c-0.1-0.5-0.8-0.6-1.5-0.4c-0.7,0.3-1.2,0.9-1,1.3l1.2,3.1l2.4-1.3
		L439,366.2z"/>
	<path clip-path="url(#SVGID_4_)" fill="#AFA363" d="M439.8,375.3c-3.2,1.7-16.2,4.2-13.8-5.5c2-7.9,11.2-10.3,15.8-10.4
		c2.6-0.1,6.6,1,7,3.7C449.6,368.6,443.9,373.2,439.8,375.3 M450.7,362.4c-0.4-3.2-5.1-4.7-7.4-4.7c-5.3,0.2-16.8,3.3-19.1,12.4
		c-3,11.4,12.3,8.4,16,6.5C447.3,372.9,451.5,368.7,450.7,362.4"/>
	<path clip-path="url(#SVGID_4_)" fill="#CCC171" d="M449.5,368.2c-3.2,6.8-11.2,8.9-13.6,9.6c-2.3,0.6-7.7,0.6-9.6-1.8
		c-1.5-2-1.9-4.4-0.3-7.7c3.6-7.5,12.7-9.2,16.6-9.1C445.6,359.3,452.8,361.1,449.5,368.2 M451.5,364.1c-0.5-6.3-7.4-7.6-10.8-7.3
		c-5.2,0.5-15.8,4.1-17.8,13.2c-2.7,11.9,11.3,9.9,15.5,8.5C443.4,376.7,452,370.9,451.5,364.1"/>
	<path clip-path="url(#SVGID_4_)" fill="#CCC171" d="M466,370.8c-1.7,0.7-2.6,1.6-2.7,2.6c-0.2,1.5,1.4,2.9,1.7,3.1
		c1.3,0.1,17.7,0.8,20,0.3c0.6-0.1,0.9-0.3,0.9-0.5c0.1-0.4-0.5-0.9-0.8-1.2L466,370.8z M464.9,377.1L464.9,377.1
		c-0.2-0.1-2.3-1.7-2.1-3.7c0.1-1.2,1.2-2.3,3-3.1l0.1,0l0.1,0l19.4,4.4l0,0c0.1,0.1,1.2,0.9,1,1.7c-0.1,0.5-0.5,0.8-1.3,0.9
		C482.8,377.9,465.7,377.1,464.9,377.1L464.9,377.1z"/>
	<path clip-path="url(#SVGID_4_)" fill="#CCC171" d="M482.7,368.4c-0.1,0-0.2-0.1-0.2-0.2c0-0.1,0.1-0.3,0.2-0.3
		c0.3,0,1.2-0.1,1.5-0.2c1.9-0.9,3.4-2.3,4.8-3.5c0.2-0.2,0.3-0.3,0.5-0.5c1.4-1.3,2.3-1.2,7.7,0c1.3,0.3,2,0.7,1.9,1.2
		c-0.1,0.7-1.4,0.6-2.5,0.3c-0.1,0-0.2-0.2-0.2-0.3c0-0.1,0.1-0.2,0.3-0.2c1.2,0.3,1.8,0.2,2,0.1c-0.1-0.1-0.5-0.4-1.5-0.6
		c-5.5-1.2-6.1-1.2-7.3-0.1c-0.2,0.1-0.3,0.3-0.5,0.5c-1.3,1.2-2.9,2.6-4.9,3.6C484,368.3,482.9,368.4,482.7,368.4
		C482.7,368.4,482.7,368.4,482.7,368.4"/>
	<path clip-path="url(#SVGID_4_)" fill="#AFA363" d="M484.3,387.7c-6.5-1.1-11-7.3-10.2-13.6c0.8-6,6.2-9.8,12.1-8.8
		c5.9,1,10.5,6.6,10.3,12.6C496.2,384.3,490.7,388.8,484.3,387.7 M486.2,363.8c-6.8-1.2-13.1,3.2-14,10c-1,7.3,4.3,14.5,11.8,15.8
		c7.5,1.3,13.8-3.9,14-11.3C498.4,371.3,493,364.9,486.2,363.8"/>
	<path clip-path="url(#SVGID_4_)" fill="#CCC171" d="M484.2,388.2c-6.7-1.2-11.5-7.6-10.7-14.2c0.8-6.2,6.4-10.2,12.6-9.1
		c6.2,1.1,11,6.8,10.7,13.1C496.6,384.7,491,389.4,484.2,388.2 M486.3,363.3c-7.1-1.2-13.6,3.3-14.6,10.4c-1,7.6,4.5,15.1,12.3,16.5
		c7.8,1.4,14.4-4.1,14.6-11.8C498.9,371.1,493.3,364.5,486.3,363.3"/>
	<path clip-path="url(#SVGID_4_)" fill="#F8EF88" d="M459.2,338.7c-1.6,0.8-3.5,1.9-3.7,3.8c-0.1,1.7,1.5,3.1,2.8,4.2
		c0.7,0.6,1.6,1.1,2.5,1.4c1.1,0.3,2.3,0.3,3.4,0.5c2.2,0.5,4.1,1.8,5.9,3c0.6,0.4,1.4-0.4,0.8-0.9c-1.5-1.1-3.1-2.1-4.8-2.8
		c-0.9-0.3-1.8-0.5-2.7-0.6c-1-0.1-2-0.2-3-0.7c-0.8-0.4-1.5-1-2.1-1.6c-0.6-0.5-1.2-1.1-1.4-1.8c-0.6-1.8,1.7-2.9,3-3.6
		C460.5,339.3,459.9,338.4,459.2,338.7"/>
	<path clip-path="url(#SVGID_4_)" fill="#F8EF88" d="M462,373.1c0.3-2,2.1-3.3,4-3c1.9,0.3,3.2,2.2,2.9,4.2c-0.3,2-2.1,3.4-4,3.1
		C463,377,461.7,375.1,462,373.1"/>
	<path clip-path="url(#SVGID_4_)" fill="#CCC171" d="M463.2,373.3c0.2-1.3,1.4-2.2,2.6-2c1.2,0.2,2.1,1.4,1.9,2.8
		c-0.2,1.3-1.4,2.2-2.7,2S463,374.6,463.2,373.3"/>
	<path clip-path="url(#SVGID_4_)" fill="#CCC171" d="M483.8,375.8c0.1-0.9,0.8-1.4,1.6-1.3c0.8,0.1,1.4,0.9,1.3,1.8
		c-0.1,0.9-0.8,1.4-1.6,1.3C484.3,377.5,483.7,376.6,483.8,375.8"/>
	<path clip-path="url(#SVGID_4_)" fill="#F8EF88" d="M467.7,375.1c-1.2,1.6-2.3,3.5-3.1,5.5c-0.8,2-1.1,4.3-2.4,6
		c-0.3,0.4,0.2,0.9,0.5,0.5c1.3-1.6,1.6-3.8,2.3-5.7c0.8-2.1,1.8-4.1,3.2-5.8C468.5,375.2,468,374.7,467.7,375.1"/>
	<path clip-path="url(#SVGID_4_)" fill="#B0AEA2" d="M493.4,364.8c-0.5,0.1-0.9,0.3-1,0.3l0,0c0,0,0,0-0.1,0.1
		c0.2,0.1,0.3,0.2,0.5,0.3c0.2-0.1,0.6-0.2,1.1-0.3C493.7,365,493.6,364.9,493.4,364.8"/>
	<path clip-path="url(#SVGID_4_)" fill="#F8EF88" d="M494,365.2c-0.5,0.1-0.9,0.2-1.1,0.3c5.7,4,6.1,10.8,6.1,10.8
		C499,371.7,497,367.9,494,365.2"/>
	<path clip-path="url(#SVGID_4_)" fill="#F8EF88" d="M479.9,361.9c-0.3,0.1-0.7,0.2-1,0.3c-0.4,0.1-0.7,0.3-1.1,0.5
		c-6.7,3.3-6.7,13.1-6.7,13.1c0.2-4,2.4-10.2,7.9-12.4c0.2-0.1,0.3-0.1,0.5-0.2c2-0.7,4.4-0.9,7.4-0.3c2.2,0.5,3.9,1.2,5.4,2.1
		c0.1,0,0.1-0.1,0.1-0.1l0,0c0,0,0.4-0.2,1-0.3C489.6,361.7,484.5,360.5,479.9,361.9"/>
	<path clip-path="url(#SVGID_4_)" fill="#CCC171" d="M497.1,364.5c-0.2,0.2-0.6,0.2-1.2,0.2l-1.1-2.1c1.3,0.4,2.4,0.8,2.4,1.5
		C497.3,364.3,497.2,364.4,497.1,364.5 M489.9,362.9C489.9,362.8,489.9,362.8,489.9,362.9c-0.1-0.2-0.4-0.9-0.6-1.6
		c0.5,0.1,1,0.2,1.4,0.3c0.8,0.2,1.6,0.4,2.2,0.5c0.4,0.1,0.9,0.2,1.3,0.3l1,2C494.3,364.1,492.1,363.5,489.9,362.9 M493.4,364.8
		c-0.5,0.1-0.9,0.3-1,0.3l0,0c0,0,0,0-0.1,0.1c-0.5,0.3-3.1,2-5.7,4.1c-0.7,0.5-1.3,0.8-1.8,0.7c-0.8-0.1-1.2-0.9-1.2-0.9l0,0
		l-3.7-5.1c0.6-0.4,2.4-1.7,5-1.5c2.3,0.2,6.8,1.5,9.2,2.2C493.9,364.6,493.6,364.7,493.4,364.8 M484.4,360.4c0.6,0,1.3,0.1,2.1,0.3
		c0.7,0.1,1.5,0.3,2.2,0.5c0.3,0.8,0.5,1.3,0.6,1.6c-1.6-0.4-3.1-0.7-4.2-0.8L484.4,360.4z M497.8,364.1c-0.1-1.2-2-1.9-4.8-2.5
		c-0.6-0.1-1.4-0.3-2.2-0.5c-1.3-0.3-2.8-0.7-4.2-0.9c-1.4-0.2-2.5-0.3-3.3-0.2c-0.8,0.1-2.8,1.1-3,1.2c-0.1,0.1-1.1,0.4-1.4,1.1
		c0.3-0.1,0.7-0.2,1-0.3c0.3-0.2,0.6-0.3,0.6-0.3l0,0c0.6-0.3,2.2-1.1,2.8-1.2c0.1,0,0.3,0,0.5,0l0.7,1.5c-2.6-0.1-4.3,1.1-4.9,1.6
		l-0.1-0.2c-0.2,0.1-0.3,0.1-0.5,0.2l4.2,5.8c0.1,0.2,0.6,1,1.6,1.2c0.7,0.1,1.4-0.1,2.2-0.8c2.8-2.2,5.5-4,5.7-4.1c0,0,0.1,0,0.1,0
		c0.2-0.1,0.6-0.2,1.1-0.3c0.5-0.1,1-0.2,1.4-0.1c0.1,0,0.2,0,0.3,0.1c0.2,0,0.4,0.1,0.6,0.1l0,0l0,0c0.6,0,1-0.1,1.3-0.3
		C497.7,364.7,497.8,364.5,497.8,364.1"/>
	<path clip-path="url(#SVGID_4_)" fill="#CCC171" d="M470.6,351.9c-0.1,0-0.2-0.1-0.4-0.1c0,0-3-2.1-4.8-2.7
		c-0.4-0.2-0.7-0.6-0.5-1.1c0.2-0.4,0.7-0.6,1.1-0.4c1.9,0.8,5,2.8,5.1,2.9c0.4,0.3,0.5,0.8,0.2,1.1
		C471.3,351.9,470.9,352,470.6,351.9"/>
	<path clip-path="url(#SVGID_4_)" fill="#CCC171" d="M458.2,340.5c-0.2,0-0.4-0.1-0.5-0.3c-0.3-0.3-0.2-0.8,0.2-1
		c0.2-0.1,1.8-1.1,3.4-1c0.5,0,0.8,0.4,0.8,0.8c0,0.4-0.4,0.7-0.8,0.7c-0.9,0-2,0.6-2.4,0.8C458.7,340.5,458.4,340.5,458.2,340.5"/>
	<path clip-path="url(#SVGID_4_)" fill="#F8EF88" d="M455,358.2L455,358.2c-0.5-0.6-1.6-2.2-1.5-3.5c0.1-0.4,0.3-0.8,0.7-1.1
		c0.6-0.4,1.1-0.6,1.7-0.5c1.4,0.2,2.4,1.7,2.4,1.8l10,13.8c-0.9,1.3-1.8,2.6-2.8,3.9c0,0,0,0,0-0.1L455,358.2z M476.4,356.9
		c-2.2,3.2-4.4,6.4-6.7,9.8c-0.1,0.2-0.3,0.4-0.4,0.6l-9.6-13.2c-0.1-0.2-1.5-2.1-3.4-2.4c-1-0.1-2,0.1-2.9,0.8
		c-0.7,0.5-1.1,1.3-1.2,2.1c-0.1,0.9,0.1,2,0.8,3.2c0.4,0.8,0.9,1.3,0.9,1.4l10.5,14.3c0,0.1,0.1,0.1,0.1,0.1
		c-0.1,0.6,0.3,1.2,0.9,1.3c0.6,0.1,1.1-0.3,1.3-0.9c1.6-2.1,3-4.2,4.4-6.3c2.3-3.4,4.5-6.6,6.7-9.8
		C478.2,357.1,477,356.1,476.4,356.9"/>
	<path clip-path="url(#SVGID_4_)" fill="#AFA363" d="M462.4,387.6c-0.2,0-0.4-0.1-0.5-0.3c-0.3-0.4-0.3-1.1,0.1-1.4
		c0.2-0.2,0.5-0.8,0.6-1.1c0.2-0.5,0.7-0.8,1.2-0.6c0.5,0.2,0.7,0.8,0.5,1.3c-0.1,0.2-0.5,1.2-1.1,1.9
		C463,387.6,462.7,387.7,462.4,387.6"/>
	<path clip-path="url(#SVGID_4_)" fill="#B0AEA2" d="M449.9,359.2c-0.1-0.1-0.2-0.2-0.3-0.2c-0.1,0.2-0.2,0.4-0.4,0.7
		c1.8,1.4,2.9,3.8,1.8,7.9C451,367.5,453.7,362.3,449.9,359.2"/>
	<path clip-path="url(#SVGID_4_)" fill="#F8EF88" d="M450.2,369.6l0.6-2.2c0.9-3.6,0.3-6.1-1.8-7.6l-0.2-0.1l0.1-0.2
		c0.1-0.2,0.3-0.4,0.4-0.6l0.1-0.3l0.2,0.2c0.1,0.1,0.2,0.2,0.3,0.2c3.9,3.2,1.3,8.6,1.2,8.6L450.2,369.6z"/>
	<path clip-path="url(#SVGID_4_)" fill="#F8EF88" d="M446.3,357.3c-4.3-1.4-8.9-0.5-8.9-0.5c1.1-0.2,1.6,1.2,1.6,1.2
		s3.3-0.5,6.5,0.1c0.5,0.1,1,0.2,1.4,0.4c0.4,0.1,0.8,0.3,1.2,0.5c0.2-0.2,0.3-0.5,0.4-0.7c-0.3-0.2-0.6-0.3-0.9-0.4
		C447.2,357.6,446.8,357.4,446.3,357.3"/>
	<path clip-path="url(#SVGID_4_)" fill="#EFE283" d="M437.6,370.3c0.1,0.5,0.8,0.6,1.6,0.4c0.7-0.3,1.2-0.9,1-1.4
		c-0.1-0.5-0.8-0.6-1.5-0.4C437.9,369.2,437.4,369.8,437.6,370.3"/>
</g>
<polygon fill="#AFA363" points="425.6,372.4 425.6,372.1 438.3,369.8 428.6,365 428.8,364.8 439.2,369.9 "/>
<polygon fill="#AFA363" points="429.5,377 429.3,376.8 439.1,369.4 434.7,377.2 434.4,377.1 438.3,370.3 "/>
<polygon fill="#AFA363" points="440.1,375.6 438.6,369.6 445.3,371.7 445.2,372 438.9,370 440.4,375.5 "/>
<polygon fill="#AFA363" points="438.3,370 448.7,361.9 448.9,362.1 439.2,369.7 447.7,368.7 447.7,368.9 "/>
<polygon fill="#AFA363" points="438.7,370.2 436.5,360.3 436.7,360.2 438.8,369.5 444,359.5 444.2,359.6 "/>
<g>
	<defs>
		<rect id="SVGID_5_" x="306.7" y="214.2" width="262.8" height="193.7"/>
	</defs>
	<clipPath id="SVGID_6_">
		<use xlink:href="#SVGID_5_"  overflow="visible"/>
	</clipPath>
	<path clip-path="url(#SVGID_6_)" fill="#F8EF88" d="M457.5,345.4c-2.8,3.5-5.7,7.2-8.8,10.7c-0.1,0-0.1,0-0.2,0c-0.9,0-1.8,0.8-2,1
		l-0.2,0.2c0.4,0.1,0.9,0.3,1.3,0.5c0.3-0.3,0.7-0.4,0.8-0.4l0,0c0,0,0,0,0,0c0.2,0.2,0.2,0.5,0.1,0.9c-0.1,0.2-0.2,0.5-0.4,0.7
		c-0.1,0.2-0.2,0.3-0.4,0.5c-0.9,1-8.9,9.8-9,9.9c-0.3,0.3-0.3,0.7,0,1c0.1,0.1,0.2,0.1,0.3,0.1c0.2,0,0.5,0,0.7-0.2
		c0.3-0.4,8.1-8.9,9-10c0.2-0.2,0.3-0.4,0.5-0.6c0.2-0.2,0.3-0.5,0.4-0.7c0.3-0.6,0.4-1.2,0.2-1.8c3.2-3.6,6-7.4,8.9-10.9
		C459.3,345.6,458.1,344.6,457.5,345.4"/>
	<path clip-path="url(#SVGID_6_)" fill="#AFA363" d="M496.4,378.7C496.4,378.7,496.4,378.7,496.4,378.7l-11-2.6l9.1-5.2
		c0.1,0,0.1,0,0.2,0.1c0,0.1,0,0.1,0,0.2L486,376l10.3,2.4c0.1,0,0.1,0.1,0.1,0.2C496.5,378.6,496.4,378.7,496.4,378.7"/>
	<path clip-path="url(#SVGID_6_)" fill="#AFA363" d="M486,388c-0.1,0-0.1-0.1-0.1-0.1l-0.4-12.2l8.2,8.9c0.1,0.1,0.1,0.1,0,0.2
		c0,0.1-0.1,0-0.2,0l-7.7-8.5l0.4,11.5C486.2,387.9,486.1,388,486,388C486.1,388,486.1,388,486,388"/>
	<path clip-path="url(#SVGID_6_)" fill="#AFA363" d="M479,385.6C479,385.6,479,385.5,479,385.6c-0.1-0.1-0.1-0.2-0.1-0.2l6.5-9.1
		l-10.9,2.9c-0.1,0-0.1,0-0.2-0.1c0-0.1,0-0.1,0.1-0.2l11.6-3.1l-6.9,9.7C479.1,385.6,479.1,385.6,479,385.6"/>
	<path clip-path="url(#SVGID_6_)" fill="#AFA363" d="M485.8,376.2l-10.6-5.9c-0.1,0-0.1-0.1-0.1-0.2c0-0.1,0.1-0.1,0.2-0.1l10.2,5.7
		l-1-10.6c0-0.1,0-0.1,0.1-0.1c0.1,0,0.1,0.1,0.1,0.1L485.8,376.2z"/>
	<path clip-path="url(#SVGID_6_)" fill="#F8EF88" d="M485.8,375.6l-10.2-14.7c-0.2-0.4-0.7-0.5-1.1-0.2c-0.3,0.2-0.4,0.7-0.2,1.1
		l9.7,14.1c-1,0-3.5-0.1-9.4-1.1c-4.6-0.7-9.1-1.6-9.1-1.6c-0.3-0.1-0.6,0.1-0.6,0.4c-0.1,0.3,0.1,0.6,0.4,0.7c0,0,2.9,0.6,6.4,1.2
		c1,0.2,2,0.3,3.1,0.5c7.2,1.2,9.4,1.1,10.2,0.9c0,0,0,0,0.1,0c0.2,0,0.4,0,0.6-0.1C486.1,376.5,486.1,376,485.8,375.6"/>
	<path clip-path="url(#SVGID_6_)" fill="#CCC171" d="M456.6,345.2c0.2-0.8,1-1.3,1.8-1.2c0.8,0.1,1.4,0.9,1.2,1.7
		c-0.2,0.8-1,1.3-1.8,1.2C457,346.7,456.5,346,456.6,345.2"/>
	<path clip-path="url(#SVGID_6_)" fill="#CCC171" d="M473.2,354.7c2,2.2,4.4,3.3,7.1,3.7c0.6,0.1,2.1,0.1,2.7,0
		c3.8-1,1.4-3.2,0.4-3.6c-1.7-0.7-4.3-0.1-5.1-0.3c-1.2-0.2-1.7-0.5-2.9-0.8C474.7,353.4,472.3,353.7,473.2,354.7"/>
</g>
<g>
	<defs>
		
			<rect id="SVGID_7_" x="459.9" y="301.9" transform="matrix(-0.9841 -0.1775 0.1775 -0.9841 881.4343 711.6133)" width="25.3" height="28.9"/>
	</defs>
	<clipPath id="SVGID_8_">
		<use xlink:href="#SVGID_7_"  overflow="visible"/>
	</clipPath>
	<path clip-path="url(#SVGID_8_)" fill="#B2DBDB" d="M474.6,303.9c0-0.1,0.1-0.2,0.2-0.2c0.1,0,0.2,0.1,0.2,0.2
		c0,0.1-0.1,0.2-0.2,0.2C474.7,304.1,474.6,304,474.6,303.9"/>
	<path clip-path="url(#SVGID_8_)" fill="#B2DBDB" d="M479.4,307.8C479.4,307.8,479.4,307.8,479.4,307.8
		C479.4,307.8,479.4,307.8,479.4,307.8c0-0.1,0-0.1,0-0.1l0.1-0.4c0,0-0.1,0-0.1,0l0.1,0l0-0.2l0,0l0,0.2l0.1,0l0,0.1l-0.1,0
		c0,0,0,0,0,0l-0.1,0.4C479.5,307.7,479.5,307.8,479.4,307.8C479.5,307.8,479.4,307.8,479.4,307.8"/>
	<path clip-path="url(#SVGID_8_)" fill="#B2DBDB" d="M465.5,306l0,0.1l0,0.2l-0.1,0L465.5,306L465.5,306c-0.1,0-0.2-0.1-0.2-0.2
		c0-0.1,0.1-0.1,0.2-0.1l0-0.1c-0.1,0-0.1-0.1-0.1-0.1c0-0.1,0.1-0.1,0.1-0.1l0.1-0.4l-0.1,0.4c0.1,0,0.1,0.1,0.1,0.1
		c0,0.1-0.1,0.1-0.1,0.1l0,0.1c0.1,0,0.1,0.1,0.1,0.2C465.7,306,465.6,306,465.5,306"/>
	<path clip-path="url(#SVGID_8_)" fill="#B2DBDB" d="M469.6,304.3L469.6,304.3L469.6,304.3c-0.1,0.1,0,0.1,0,0.2c0,0,0,0.1-0.1,0.1
		l0,0.1l0,0l0,0l0,0c0,0,0-0.1,0-0.1c0,0-0.1,0-0.1-0.1c0,0,0-0.1,0.1-0.1c0,0,0,0,0-0.1l-0.1,0l0-0.1l0.1,0l0.1,0c0,0,0-0.1,0-0.1
		c0,0-0.1,0-0.1-0.1c0,0,0-0.1,0-0.1l0,0l0,0l0,0l0,0c0-0.1,0-0.2,0-0.2l0,0.2l0,0l0.1,0c0,0,0,0,0,0c0,0-0.1,0-0.1,0l0,0.1l0,0
		L469.6,304.3L469.6,304.3z"/>
</g>
<polygon fill="#B2DBDB" points="473.7,314.7 473.3,314.6 473.3,314.7 473.6,314.8 473.6,314.8 474.7,314.3 "/>
<rect x="474.7" y="313.4" transform="matrix(-0.9839 -0.1789 0.1789 -0.9839 885.8536 706.7283)" fill="#B2DBDB" width="0.2" height="0.1"/>
<rect x="474.9" y="313.5" fill="#B2DBDB" width="0" height="0.2"/>
<rect x="475" y="311.9" transform="matrix(-0.9842 -0.1773 0.1773 -0.9842 887.3901 703.1393)" fill="#B2DBDB" width="0.2" height="0.1"/>
<rect x="475.3" y="310.4" transform="matrix(-0.9842 -0.1769 0.1769 -0.9842 888.6145 700.1676)" fill="#B2DBDB" width="0.4" height="0.1"/>
<rect x="476.4" y="313.8" fill="#B2DBDB" width="0" height="0.2"/>
<rect x="476.7" y="310.7" transform="matrix(-0.9839 -0.1786 0.1786 -0.9839 890.6053 701.6141)" fill="#B2DBDB" width="0.3" height="0.1"/>
<rect x="476.7" y="312.2" transform="matrix(-0.9844 -0.1758 0.1758 -0.9844 891.1927 703.412)" fill="#B2DBDB" width="0.1" height="0.1"/>
<rect x="476.5" y="313.7" transform="matrix(-0.9846 -0.1747 0.1747 -0.9846 890.9158 705.8981)" fill="#B2DBDB" width="0.1" height="0.1"/>
<polygon fill="#B2DBDB" points="476.2,315.2 477,315.4 477.5,315.5 477.5,315.3 477.1,315.3 476.3,314.6 "/>
<polygon fill="#595858" points="469,316.4 470.5,319.2 470.6,319.1 469,316.1 468.9,316.3 "/>
<polygon fill="#595858" points="469.3,315.8 473.7,317.3 473.6,317.4 469.2,315.9 469.3,315.8 "/>
<polygon fill="#595858" points="472.4,319.3 474.3,316.4 474.5,316.6 472.6,319.4 "/>
<g>
	<defs>
		<rect id="SVGID_9_" x="306.7" y="214.2" width="262.8" height="193.7"/>
	</defs>
	<clipPath id="SVGID_10_">
		<use xlink:href="#SVGID_9_"  overflow="visible"/>
	</clipPath>
	<path clip-path="url(#SVGID_10_)" fill="#595858" d="M475.1,317.6c0,0,1.1,2.6,1.1,2.6l0.2,0.1l-1.2-2.9L475.1,317.6z"/>
</g>
<polygon fill="#595858" points="475.1,319.9 476.5,317.7 476.7,317.8 475.2,320 "/>
<g>
	<defs>
		<rect id="SVGID_11_" x="306.7" y="214.2" width="262.8" height="193.7"/>
	</defs>
	<clipPath id="SVGID_12_">
		<use xlink:href="#SVGID_11_"  overflow="visible"/>
	</clipPath>
	<path clip-path="url(#SVGID_12_)" fill="#595858" d="M467.5,319.3c0,0,1.2,0,2.1-1.6c0.9-1.6,1.1-2,1.1-2s0.3-0.5,0.8-0.5l0-0.2
		l-0.1,0c-0.5-0.1-0.8,0.4-0.8,0.4l-1.3,2.3c-0.7,1.2-1.9,1.4-1.9,1.4L467.5,319.3z"/>
	<path clip-path="url(#SVGID_12_)" fill="#595858" d="M470.1,319.3c0-0.1,0-0.2,0-0.3c0-0.1,0-0.1,0-0.2c0-0.1,0-0.1,0-0.2
		c-0.1-0.4-0.2-0.7-0.5-1c0,0,0,0,0,0c0,0-0.1-0.1-0.1-0.1c0,0,0,0,0,0c-0.1-0.1-0.1-0.1-0.2-0.2c-0.3-0.3-0.7-0.4-1.1-0.5
		c0,0,0,0-0.1,0c-0.2,0-0.3,0-0.4,0c-1.1,0-2.2,0.9-2.4,2c0,0,0,0,0,0c0,0.2-0.1,0.5,0,0.7c0.1,1.1,0.9,2,2,2.2c0.3,0,0.5,0,0.8,0
		c1-0.2,1.9-1,2.1-2.1C470.1,319.5,470.1,319.4,470.1,319.3 M468,321.5c-0.3,0-0.5,0-0.8,0c-1-0.2-1.7-1-1.8-2c0-0.2,0-0.5,0-0.7
		c0,0,0,0,0-0.1c0.3-1.2,1.4-2.1,2.6-1.8c0,0,0,0,0.1,0c0.4,0.1,0.8,0.3,1.1,0.6c0.1,0.1,0.1,0.1,0.2,0.2c0,0.1,0.1,0.1,0.1,0.2
		c0,0,0,0,0,0c0.2,0.2,0.3,0.5,0.3,0.7c0,0.1,0,0.1,0,0.2c0,0.1,0,0.1,0,0.2c0,0.1,0,0.2,0,0.3c0,0.1,0,0.2,0,0.4
		C469.7,320.6,469,321.4,468,321.5"/>
	<path clip-path="url(#SVGID_12_)" fill="#595858" d="M470,319.3c0-0.1,0-0.2,0-0.3c0-0.1,0-0.1,0-0.2c0-0.1,0-0.1,0-0.2
		c-0.1-0.3-0.2-0.5-0.3-0.7c0,0,0,0,0,0c0-0.1-0.1-0.1-0.1-0.2c0-0.1-0.1-0.1-0.2-0.2c-0.3-0.3-0.7-0.5-1.1-0.6c0,0,0,0-0.1,0
		c-1.2-0.2-2.4,0.6-2.6,1.8c0,0,0,0,0,0.1c0,0.2,0,0.5,0,0.7c0.1,1,0.8,1.8,1.8,2c0.3,0,0.5,0,0.8,0c0.9-0.2,1.7-0.9,1.9-1.9
		C469.9,319.5,470,319.4,470,319.3 M469.8,319.7C469.8,319.7,469.8,319.8,469.8,319.7c0,0.1,0,0.1,0,0.1c0,0,0,0,0,0c0,0,0,0,0,0.1
		c0,0,0,0,0,0.1c0,0,0,0,0,0l0,0c0,0,0,0.1,0,0.1c0,0,0,0,0,0c0,0,0,0.1,0,0.1c0,0,0,0,0,0c0,0,0,0,0,0c0,0,0,0,0,0
		c0,0,0,0.1-0.1,0.1c0,0,0,0.1-0.1,0.1c0,0,0,0,0,0c0,0.1-0.1,0.1-0.1,0.2c0,0,0,0-0.1,0.1c0,0,0,0-0.1,0.1c0,0-0.1,0.1-0.1,0.1
		c0,0-0.1,0.1-0.1,0.1c0,0,0,0-0.1,0l0,0c0,0,0,0-0.1,0c0,0,0,0,0,0l0,0c0,0,0,0,0,0v0c0,0,0,0,0,0c0,0,0,0,0,0c0,0,0,0,0,0
		c0,0,0,0,0,0c0,0,0,0,0,0c0,0,0,0,0,0c0,0,0,0,0,0c0,0,0,0,0,0c0,0,0,0-0.1,0c0,0,0,0-0.1,0c0,0,0,0-0.1,0c0,0,0,0,0,0
		c0,0,0,0-0.1,0c0,0,0,0,0,0l0,0c0,0,0,0,0,0c0,0,0,0,0,0c0,0,0,0,0,0c0,0,0,0,0,0c0,0,0,0,0,0c0,0,0,0,0,0c0,0,0,0,0,0c0,0,0,0,0,0
		c0,0-0.1,0-0.1,0c0,0,0,0,0,0c0,0-0.1,0-0.1,0c0,0,0,0,0,0c0,0,0,0,0,0c0,0,0,0,0,0c-0.1,0-0.1,0-0.2,0c-0.1,0-0.1,0-0.2,0
		c-0.1,0-0.3,0-0.4,0c0,0-0.1,0-0.1,0c-0.1,0-0.2-0.1-0.3-0.1c0,0-0.1,0-0.1,0c0,0,0,0,0,0c-0.1,0-0.2-0.1-0.2-0.1c0,0,0,0-0.1-0.1
		c0,0-0.1,0-0.1-0.1c-0.1-0.1-0.3-0.2-0.4-0.4c0-0.1-0.1-0.1-0.1-0.2v0c-0.1-0.2-0.2-0.5-0.3-0.7c0,0,0-0.1,0-0.1c0-0.2,0-0.5,0-0.7
		c0,0,0,0,0,0c0,0,0-0.1,0-0.1c0-0.2,0.1-0.4,0.2-0.6l0,0c0.1-0.3,0.3-0.5,0.5-0.6c0,0,0.1,0,0.1-0.1c0,0,0.1,0,0.1-0.1h0
		c0.1-0.1,0.3-0.2,0.4-0.2c0,0,0.1,0,0.1,0c0,0,0,0,0,0c0,0,0.1,0,0.1,0c0.1,0,0.1,0,0.2,0c0,0,0.1,0,0.1,0c0,0,0,0,0.1,0
		c0,0,0.1,0,0.1,0c0.1,0,0.2,0,0.3,0c0,0,0,0,0,0c0,0,0.1,0,0.1,0c0,0,0,0,0.1,0c0.1,0,0.2,0.1,0.3,0.1c0,0,0,0,0.1,0
		c0.1,0,0.2,0.1,0.2,0.1c0,0,0.1,0,0.1,0.1c0.1,0,0.1,0.1,0.2,0.1c0,0,0.1,0.1,0.1,0.1c0,0,0.1,0,0.1,0.1c0,0,0,0,0.1,0.1
		c0,0,0,0,0.1,0.1c0,0,0,0,0,0.1c0,0,0,0,0,0.1c0,0,0,0,0,0h0v0c0,0,0,0.1,0.1,0.1c0.1,0.1,0.1,0.2,0.1,0.3c0,0.1,0.1,0.2,0.1,0.3
		c0,0,0,0,0,0.1c0,0,0,0,0,0.1v0c0,0,0,0.1,0,0.1c0,0.1,0,0.1,0,0.2c0,0,0,0,0,0.1c0,0,0,0.1,0,0.1c0,0,0,0,0,0c0,0,0,0,0,0.1
		c0,0.1,0,0.2,0,0.4C469.8,319.6,469.8,319.7,469.8,319.7"/>
	<path clip-path="url(#SVGID_12_)" fill="#595858" d="M470.3,319.7c0,0.2-0.1,0.4-0.2,0.6c-0.1,0.2-0.2,0.4-0.3,0.6l-0.1-0.1
		c0.2-0.3,0.4-0.7,0.5-1.1c0-0.1,0-0.2,0-0.3c0-0.1,0-0.2,0-0.3c0-0.1,0-0.1,0-0.2c0-0.1,0-0.1,0-0.2c-0.1-0.4-0.3-0.8-0.5-1.1l0,0
		c0,0,0,0-0.1-0.1c0,0-0.1-0.1-0.1-0.1c-0.1-0.1-0.2-0.2-0.2-0.2c-0.2-0.1-0.3-0.2-0.5-0.3c0,0,0,0,0,0c-0.2-0.1-0.4-0.1-0.5-0.2
		c0,0,0,0-0.1,0c-0.2,0-0.3,0-0.5,0l0-0.1c0.2,0,0.3,0,0.5,0c0,0,0,0,0.1,0c0.3,0.1,0.6,0.2,0.9,0.4c0.1,0,0.1,0.1,0.2,0.1
		c0.1,0.1,0.2,0.2,0.3,0.3c0,0,0,0,0,0c0,0,0.1,0.1,0.1,0.1l0,0c0.3,0.4,0.5,0.8,0.6,1.2c0,0.1,0,0.1,0,0.2c0,0.1,0,0.1,0,0.2
		c0,0,0,0,0,0c0,0.1,0,0.2,0,0.3C470.3,319.4,470.3,319.5,470.3,319.7"/>
	<path clip-path="url(#SVGID_12_)" fill="#595858" d="M469.8,319.2C469.8,319.2,469.8,319.2,469.8,319.2
		C469.8,319.2,469.8,319.2,469.8,319.2c0-0.1,0-0.2,0-0.2c0,0,0,0,0-0.1c0-0.1,0-0.1,0-0.2c0,0,0-0.1,0-0.1v0c0,0,0,0,0-0.1
		c0,0,0,0,0-0.1c0-0.1-0.1-0.2-0.1-0.3c0-0.1-0.1-0.2-0.1-0.3c0,0,0-0.1-0.1-0.1v0h0c0,0,0,0,0,0c0,0,0,0,0-0.1c0,0,0,0,0-0.1
		c0,0,0,0-0.1-0.1c0,0,0,0-0.1-0.1c0,0-0.1,0-0.1-0.1c0,0-0.1-0.1-0.1-0.1c-0.1-0.1-0.1-0.1-0.2-0.1c0,0-0.1,0-0.1-0.1
		c-0.1,0-0.2-0.1-0.2-0.1c0,0,0,0,0,0c-0.1,0-0.2-0.1-0.3-0.1c0,0,0,0-0.1,0c0,0-0.1,0-0.1,0c0,0,0,0,0,0c-0.1,0-0.2,0-0.3,0
		c0,0-0.1,0-0.1,0c0,0,0,0-0.1,0c0,0-0.1,0-0.1,0c-0.1,0-0.1,0-0.2,0h0c0,0-0.1,0-0.1,0c0,0,0,0,0,0c0,0-0.1,0-0.1,0
		c-0.1,0.1-0.3,0.1-0.4,0.2h0c0,0-0.1,0-0.1,0.1c0,0-0.1,0-0.1,0.1c-0.2,0.2-0.4,0.4-0.5,0.6v0c-0.1,0.2-0.2,0.4-0.2,0.6
		c0,0,0,0.1,0,0.1c0,0,0,0,0,0c0,0.2,0,0.5,0,0.7c0,0,0,0.1,0,0.1c0.1,0.3,0.2,0.5,0.3,0.7v0c0,0.1,0.1,0.1,0.1,0.2
		c0.1,0.1,0.2,0.3,0.4,0.4c0,0,0.1,0,0.1,0.1c0,0,0,0,0.1,0.1c0.1,0,0.1,0.1,0.2,0.1c0,0,0,0,0,0c0,0,0.1,0,0.1,0
		c0.1,0,0.2,0.1,0.3,0.1c0,0,0.1,0,0.1,0c0.1,0,0.3,0,0.4,0c0.1,0,0.1,0,0.2,0c0.1,0,0.1,0,0.2,0c0,0,0,0,0,0c0,0,0,0,0,0
		c0,0,0,0,0,0l0,0c0,0,0,0,0,0c0,0,0,0,0.1,0c0,0,0,0,0.1,0c0,0,0,0,0,0c0,0,0,0,0,0c0,0,0,0,0,0c0,0,0,0,0,0c0,0,0,0,0.1,0
		c0,0,0,0,0,0c0,0,0,0,0,0c0,0,0,0,0,0c0,0,0,0,0,0c0,0,0,0,0,0h0c0,0,0,0,0,0c0,0,0,0,0.1,0c0,0,0,0,0,0c0,0,0,0,0.1,0
		c0,0,0,0,0.1,0c0,0,0,0,0,0c0,0,0,0,0,0c0,0,0,0,0,0c0,0,0,0,0,0c0,0,0,0,0,0c0,0,0,0,0,0c0,0,0,0,0,0c0,0,0,0,0,0c0,0,0,0,0,0
		c0,0,0,0,0,0c0,0,0,0,0,0c0,0,0,0,0,0l0,0c0,0,0,0,0,0c0,0,0,0,0.1,0l0,0c0,0,0,0,0.1,0c0,0,0,0,0,0c0,0,0.1,0,0.1-0.1
		c0,0,0.1-0.1,0.1-0.1c0,0,0,0,0.1-0.1c0,0,0,0,0.1-0.1c0,0,0,0,0-0.1c0,0,0-0.1,0.1-0.1c0,0,0,0,0,0c0,0,0,0,0,0c0,0,0-0.1,0.1-0.1
		c0,0,0-0.1,0.1-0.1c0,0,0,0,0,0c0,0,0,0,0,0c0,0,0,0,0,0c0,0,0,0,0-0.1c0,0,0,0,0,0c0,0,0,0,0,0c0,0,0,0,0,0c0,0,0-0.1,0-0.1l0,0
		c0,0,0,0,0,0c0,0,0,0,0-0.1c0,0,0,0,0-0.1c0,0,0,0,0,0c0,0,0,0,0-0.1c0,0,0-0.1,0-0.1c0,0,0-0.1,0-0.1
		C469.8,319.5,469.8,319.4,469.8,319.2 M469.4,320.5L469.4,320.5c-0.2,0.3-0.4,0.5-0.7,0.6c-0.1,0.1-0.2,0.1-0.3,0.1h0
		c-0.1,0.1-0.3,0.1-0.4,0.1c0,0,0,0,0,0c0,0-0.1,0-0.1,0v0c-0.1,0-0.2,0-0.3,0c-0.1,0-0.3,0-0.4,0c0,0-0.1,0-0.1,0
		c-0.1,0-0.2-0.1-0.3-0.1c0,0-0.1,0-0.1-0.1c-0.1,0-0.1-0.1-0.2-0.1c-0.1,0-0.1-0.1-0.2-0.1c-0.2-0.2-0.4-0.4-0.6-0.6l0,0
		c-0.1-0.2-0.2-0.5-0.3-0.7h0c0,0,0-0.1,0-0.1c0-0.2,0-0.5,0-0.7l0,0c0,0,0-0.1,0-0.1c0-0.2,0.1-0.4,0.2-0.6v0
		c0.1-0.2,0.3-0.5,0.5-0.6c0.1-0.1,0.2-0.2,0.3-0.2c0,0,0.1,0,0.1,0c0.1,0,0.2-0.1,0.3-0.1h0c0.1,0,0.1,0,0.2-0.1c0.1,0,0.1,0,0.2,0
		c0,0,0.1,0,0.1,0c0.1,0,0.2,0,0.3,0c0,0,0.1,0,0.1,0c0,0,0,0,0.1,0c0.1,0,0.2,0.1,0.3,0.1c0,0,0.1,0,0.1,0.1c0,0,0.1,0,0.1,0.1
		c0.2,0.1,0.3,0.2,0.5,0.4c0,0,0.1,0.1,0.1,0.1c0,0,0.1,0.1,0.1,0.1h0c0,0,0,0,0,0.1c0,0,0.1,0.1,0.1,0.1c0.1,0.2,0.2,0.3,0.2,0.5
		c0,0,0,0.1,0,0.1c0,0,0,0.1,0,0.1c0,0.1,0,0.1,0,0.2c0,0.1,0,0.2,0,0.3c0,0.1,0,0.2,0,0.4l0,0C469.7,319.9,469.6,320.2,469.4,320.5
		"/>
	<path clip-path="url(#SVGID_12_)" fill="#595858" d="M478.6,319.4c-0.1-0.1-0.1-0.2-0.2-0.3c-0.2-0.2-0.5-0.5-0.8-0.6l0,0
		c-0.1,0-0.1-0.1-0.2-0.1c-0.1-0.1-0.3-0.1-0.5-0.1c-0.4-0.1-0.9,0-1.3,0.1c-0.1,0-0.1,0-0.2,0.1c-0.5,0.2-0.9,0.6-1.2,1.1v0
		c0,0,0,0.1-0.1,0.1c-0.1,0.1-0.1,0.2-0.1,0.4c0,0.1,0,0.2-0.1,0.2c0,0.3-0.1,0.5,0,0.8c0,0,0,0,0,0c0,0.2,0.1,0.4,0.2,0.7
		c0.3,0.7,1,1.3,1.8,1.5l0,0c1.3,0.2,2.6-0.7,2.9-2.1l0,0C479,320.6,478.9,320,478.6,319.4 M478.7,321.2c-0.2,1.3-1.4,2.1-2.7,1.9
		c0,0,0,0,0,0c-0.7-0.1-1.3-0.7-1.6-1.3c-0.1-0.2-0.1-0.4-0.2-0.6c0,0,0,0,0-0.1c0-0.2,0-0.5,0-0.8c0-0.1,0-0.2,0.1-0.2
		c0,0,0,0,0-0.1v0c0-0.1,0.1-0.3,0.2-0.4v0c0.2-0.4,0.6-0.8,1.1-1c0.1,0,0.1-0.1,0.2-0.1c0.4-0.1,0.8-0.2,1.2-0.1
		c0.1,0,0.3,0.1,0.4,0.1c0.1,0,0.1,0.1,0.2,0.1h0c0.3,0.2,0.6,0.4,0.8,0.7c0,0,0,0,0,0C478.7,319.9,478.9,320.5,478.7,321.2
		L478.7,321.2z"/>
	<path clip-path="url(#SVGID_12_)" fill="#595858" d="M478.3,319.4C478.3,319.4,478.3,319.4,478.3,319.4c-0.2-0.3-0.5-0.5-0.8-0.7h0
		c-0.1,0-0.1-0.1-0.2-0.1c-0.1,0-0.3-0.1-0.4-0.1c-0.4-0.1-0.8,0-1.2,0.1c-0.1,0-0.1,0-0.2,0.1c-0.4,0.2-0.8,0.6-1.1,1l0,0
		c-0.1,0.1-0.1,0.3-0.2,0.4v0c0,0,0,0,0,0.1c0,0.1,0,0.2-0.1,0.2c0,0.3,0,0.5,0,0.8c0,0,0,0,0,0.1c0,0.2,0.1,0.4,0.2,0.6
		c0.3,0.7,0.9,1.2,1.6,1.3c0,0,0,0,0,0c1.2,0.2,2.4-0.6,2.7-1.9l0,0C478.9,320.5,478.7,319.9,478.3,319.4 M478.6,321.2
		c-0.1,0.3-0.2,0.6-0.3,0.8c-0.2,0.3-0.4,0.5-0.7,0.6c-0.2,0.2-0.5,0.3-0.8,0.3c-0.2,0-0.5,0-0.7,0c0,0,0,0,0,0c0,0-0.1,0-0.1,0
		c-0.3-0.1-0.5-0.2-0.7-0.3c-0.2-0.2-0.4-0.4-0.6-0.6c-0.1-0.1-0.1-0.2-0.1-0.3c-0.1-0.1-0.1-0.3-0.2-0.5c0,0,0,0,0-0.1
		c0,0,0,0,0-0.1v0c0-0.2,0-0.5,0-0.7c0,0,0,0,0,0c0,0,0-0.1,0-0.1v0c0,0,0-0.1,0-0.1c0-0.2,0.1-0.3,0.2-0.5c0,0,0,0,0,0v0
		c0.1-0.2,0.3-0.5,0.5-0.6c0.1-0.1,0.3-0.2,0.5-0.3c0.1,0,0.1-0.1,0.2-0.1c0,0,0.1,0,0.1,0c0.3-0.1,0.6-0.1,0.9-0.1c0,0,0.1,0,0.1,0
		c0.1,0,0.2,0.1,0.3,0.1h0c0.1,0,0.1,0.1,0.2,0.1c0,0,0.1,0,0.1,0.1c0.3,0.2,0.5,0.4,0.7,0.6c0.2,0.2,0.3,0.5,0.4,0.8
		C478.7,320.6,478.7,320.9,478.6,321.2L478.6,321.2z"/>
	<path clip-path="url(#SVGID_12_)" fill="#595858" d="M479.1,321.3L479.1,321.3l-0.1,0l0,0c0.1-0.6,0-1.3-0.3-1.8
		c-0.1-0.2-0.2-0.3-0.3-0.5c-0.1-0.1-0.3-0.3-0.4-0.4c-0.1-0.1-0.2-0.1-0.3-0.2c-0.1,0-0.1-0.1-0.2-0.1c0,0,0,0,0,0
		c-0.3-0.1-0.6-0.2-0.9-0.2c-0.3,0-0.6,0.1-0.9,0.2c-0.1,0-0.1,0-0.2,0.1c-0.4,0.2-0.7,0.5-1,0.9c-0.1,0.1-0.1,0.2-0.2,0.3
		c0,0,0,0,0,0c-0.1,0.2-0.1,0.3-0.2,0.5c0,0.1,0,0.2-0.1,0.3l-0.1,0c0-0.1,0-0.2,0.1-0.3c0-0.2,0.1-0.3,0.2-0.5
		c0-0.1,0.1-0.1,0.1-0.2c0-0.1,0.1-0.1,0.1-0.2c0.3-0.4,0.6-0.7,1.1-0.9c0.1,0,0.1-0.1,0.2-0.1c0.2-0.1,0.3-0.1,0.5-0.1
		c0.1,0,0.2,0,0.3,0l0,0c0.4,0,0.8,0,1.2,0.2c0,0,0.1,0,0.1,0c0,0,0.1,0,0.1,0.1c0.1,0,0.1,0.1,0.2,0.1c0.1,0,0.1,0.1,0.2,0.1
		c0.1,0.1,0.3,0.2,0.4,0.3c0.2,0.2,0.3,0.4,0.5,0.7C479.2,320,479.2,320.7,479.1,321.3"/>
	<path clip-path="url(#SVGID_12_)" fill="#595858" d="M478.6,320.3c-0.1-0.3-0.2-0.6-0.4-0.8c-0.2-0.2-0.4-0.5-0.7-0.6
		c0,0-0.1,0-0.1-0.1c-0.1,0-0.1-0.1-0.2-0.1h0c-0.1,0-0.2-0.1-0.3-0.1c0,0-0.1,0-0.1,0c-0.3,0-0.6,0-0.9,0.1c0,0-0.1,0-0.1,0
		c-0.1,0-0.1,0-0.2,0.1c-0.2,0.1-0.3,0.2-0.5,0.3c-0.2,0.2-0.4,0.4-0.5,0.6v0c0,0,0,0,0,0c-0.1,0.2-0.2,0.3-0.2,0.5c0,0,0,0.1,0,0.1
		v0c0,0,0,0.1,0,0.1c0,0,0,0,0,0c0,0.2,0,0.5,0,0.7v0c0,0,0,0,0,0.1c0,0,0,0,0,0.1c0,0.2,0.1,0.3,0.2,0.5c0,0.1,0.1,0.2,0.1,0.3
		c0.1,0.2,0.3,0.4,0.6,0.6c0.2,0.2,0.5,0.3,0.7,0.3c0,0,0.1,0,0.1,0c0,0,0,0,0,0c0.2,0,0.5,0,0.7,0c0.3,0,0.6-0.2,0.8-0.3
		c0.3-0.2,0.5-0.4,0.7-0.6c0.2-0.2,0.3-0.5,0.3-0.8l0,0C478.7,320.9,478.7,320.6,478.6,320.3 M478.2,322.1L478.2,322.1L478.2,322.1
		c-0.2,0.3-0.4,0.5-0.7,0.6c-0.2,0.1-0.5,0.3-0.8,0.3h0c-0.2,0-0.5,0-0.7,0l0,0c0,0-0.1,0-0.1,0c-0.3-0.1-0.5-0.2-0.7-0.3
		c-0.2-0.2-0.4-0.4-0.6-0.6c-0.1-0.1-0.1-0.2-0.1-0.3c-0.1-0.1-0.1-0.3-0.2-0.5c0,0,0,0,0,0c0,0,0,0,0-0.1v0c0-0.2,0-0.5,0-0.7
		l0-0.1c0-0.1,0-0.1,0.1-0.2c0-0.2,0.1-0.3,0.2-0.5c0,0,0,0,0,0v0c0.1-0.2,0.3-0.4,0.5-0.6c0.1-0.1,0.3-0.2,0.4-0.3
		c0.1,0,0.1-0.1,0.2-0.1c0,0,0.1,0,0.1,0c0.3-0.1,0.6-0.1,0.9-0.1c0,0,0.1,0,0.1,0c0.1,0,0.2,0.1,0.3,0.1c0.1,0,0.1,0,0.2,0.1
		c0,0,0.1,0,0.1,0.1c0.3,0.2,0.5,0.4,0.7,0.6c0.2,0.2,0.3,0.5,0.4,0.8c0.1,0.3,0.1,0.6,0,0.9l0,0
		C478.5,321.5,478.4,321.8,478.2,322.1"/>
	<path clip-path="url(#SVGID_12_)" fill="#595858" d="M471,315l-0.1,0.4l1,0.2c0,0,0.5-0.1,0.1-0.4L471,315z"/>
</g>
<path fill="#595858" d="M474.7,322.7L474.7,322.7l0.3-1.6L474.7,322.7z M475,321.1l0.1-0.5v0L475,321.1z M475.1,320.6L475.1,320.6
	L475.1,320.6z M475.1,320.6L475.1,320.6l0.4-2.2l0,0L475.1,320.6z"/>
<path fill="#595858" d="M477.3,321L477.3,321l-0.1,0L477.3,321z M477.2,321l-2.1-0.4h0h0l-2-0.4l0,0L477.2,321z"/>
<polygon fill="#595858" points="476.4,322.5 476.3,322.5 475.1,320.6 475.1,320.6 475.1,320.6 473.9,318.9 473.9,318.8 "/>
<polygon fill="#595858" points="477,319.2 477,319.3 475.1,320.6 475.1,320.6 475.1,320.6 473.4,321.8 473.4,321.8 "/>
<polygon fill="#595858" points="477.4,320.1 477.3,320.1 475.1,320.6 475.1,320.6 475.1,320.6 475.1,320.6 473.2,321.1 473.1,321.1 
	"/>
<polygon fill="#595858" points="476.3,318.6 476.3,318.7 475.1,320.6 475.1,320.6 475.1,320.6 474,322.4 474,322.4 "/>
<path fill="#595858" d="M466.3,319L466.3,319L466.3,319l-0.4,2.1l0,0l0.7-3.6L466.3,319z M466.5,317.5l0.1-0.7l0,0L466.5,317.5z"/>
<path fill="#595858" d="M466.3,319L466.3,319L466.3,319l2.2,0.4l0,0L466.3,319L466.3,319z M466.3,319L466.3,319l-2-0.4l0,0
	L466.3,319z"/>
<polygon fill="#595858" points="467.5,320.9 467.5,320.9 466.3,319 466.3,319 466.3,319 465.1,317.3 465.1,317.2 "/>
<polygon fill="#595858" points="468.2,317.6 468.1,317.7 466.3,319 466.3,319 466.3,319 466.3,319 464.6,320.2 464.6,320.2 "/>
<path fill="#595858" d="M466.3,319L466.3,319L466.3,319l0.5,2.2l0,0L466.3,319L466.3,319z M466.3,319L466.3,319l0-0.2L466.3,319z
	 M465.8,316.9l0.4,1.9L465.8,316.9L465.8,316.9z"/>
<polygon fill="#595858" points="468.5,318.5 468.5,318.5 466.3,319 466.3,319 466.3,319 466.3,319 464.3,319.5 464.3,319.5 "/>
<polygon fill="#595858" points="468.2,320.2 468.2,320.2 468.2,320.2 466.3,319 466.3,319 466.3,319 464.6,317.9 464.5,317.9 "/>
<polygon fill="#595858" points="467.5,317 467.5,317.1 466.3,319 466.3,319 466.3,319 466.3,319 465.2,320.8 465.2,320.8 "/>
<g>
	<defs>
		<rect id="SVGID_13_" x="306.7" y="214.2" width="262.8" height="193.7"/>
	</defs>
	<clipPath id="SVGID_14_">
		<use xlink:href="#SVGID_13_"  overflow="visible"/>
	</clipPath>
	<path clip-path="url(#SVGID_14_)" fill="#47474C" d="M460.9,398.8c3.3-2.3,6.6-5.1,7.7-9.1c0-0.1-0.1-0.2-0.2-0.1
		c-1.1,2.1-2.2,4.1-3.2,6.2c-0.6,1.1-1.1,2.2-1.7,3.3c-0.4,0.8-0.9,2.2-1.7,2.7c-0.6,0.3-0.3-0.4-0.2-0.8c0.2-0.5,0.4-1,0.6-1.5
		c0.4-0.9,1-1.7,1.7-2.4c1-0.9,0.6,1.4,0.5,1.9c-0.1,0.6-0.1,1.1,0.2,1.6c0,0,0.1,0.1,0.1,0c1-0.2,1.8-0.6,2.6-1.2
		c0.3-0.2,0.4-0.4,0.5,0.2c0,0.2-0.1,0.4,0,0.7c0,0.2,0.1,0.4,0.2,0.5c0.4,0.4,1,0.2,1.4-0.2c0.1-0.1,0.4-0.7,0.5-0.7
		c0,0,0.4,0.3,0.5,0.3c0.4,0.1,0.8-0.2,0.9-0.6c0-0.2-0.1-0.4-0.2-0.6c0,0-0.6-0.4-0.6-0.3c0-0.1,0.7-1.1,0.8-1.3
		c0.3-0.5,0.6-1,0.8-1.5c0.5-1.1,0.8-2.2,1.1-3.3c0-0.1-0.2-0.2-0.2-0.1c-0.8,2-1.6,4-2.4,6c-0.2,0.5-0.4,1.1-0.7,1.6
		c-0.1,0.2-0.3,0.9-0.6,0.9c-0.3,0,0.2-1.2,0.3-1.3c0.3-0.5,0.7-0.8,1.2-1c0.1-0.1,0-0.2-0.1-0.2c-1.2,0.5-1.9,1.7-1.6,3
		c0,0.1,0.1,0.1,0.2,0c0.9-1.1,1.4-2.6,1.9-3.9c0.7-1.7,1.4-3.4,2.1-5.1c-0.1,0-0.1,0-0.2-0.1c-0.5,2.3-1.5,4.4-2.8,6.2
		c0,0.1,0,0.2,0.1,0.2c0.7,1.1,0.6,1.3-0.3,0.7c0-0.1-0.1-0.1-0.2,0c-0.1,0.3-0.3,0.6-0.5,0.9c-0.7,0.6-1.3,0.1-1.3-0.7
		c0-0.4,0.1-0.6-0.2-1c0-0.1-0.1-0.1-0.2,0c-0.6,0.6-1.4,1.1-2.2,1.4c-0.5,0.2-0.8,0.2-0.9-0.4c0-0.3,0-0.7,0.1-1
		c0.1-0.8,0.3-1.6-0.3-2.3c0,0-0.1,0-0.1,0c-1.7,1.5-2.8,3.4-3.1,5.6c0,0.1,0,0.2,0.1,0.1c0.7-0.2,1.1-0.8,1.5-1.4
		c0.7-1.2,1.3-2.4,1.9-3.6c1.3-2.5,2.6-4.9,3.9-7.4c-0.1,0-0.1-0.1-0.2-0.1c-1.1,4-4.3,6.7-7.6,9
		C460.7,398.7,460.8,398.9,460.9,398.8"/>
	<path clip-path="url(#SVGID_14_)" fill="#47474C" d="M475.4,397c1.1-0.5,2.2-1.2,2.7-2.3c0.4-1,0.2-2.1-0.6-2.8c0,0-0.1,0-0.1,0
		c-1.8,0.7-2.4,2.8-2.6,4.5c-0.2,1.4-0.5,4.6,1.2,5.4c1.7,0.7,1.8-1.5,1.2-2.5c-1.1-1.9-3.6-1.9-5.5-1.4c-0.1,0-0.1,0.2,0,0.2
		c2.9,0.5,5.9,1.1,8.3,2.9c0.1,0.1,0.3-0.1,0.1-0.1c-2.4-1.9-5.5-2.5-8.4-3v0.2c2-0.5,4.9-0.5,5.5,2c0.2,0.7-0.2,1.7-1.1,1.5
		c-0.7-0.2-1-0.9-1.2-1.5c-0.3-1.2-0.3-2.4-0.1-3.6c0.1-0.8,0.3-1.7,0.6-2.4c0.2-0.5,1.1-2.2,1.9-1.8c0.4,0.2,0.5,1.1,0.5,1.5
		c0,0.5-0.2,1-0.5,1.4c-0.5,0.8-1.5,1.3-2.3,1.7C475.2,396.9,475.3,397.1,475.4,397"/>
	<path clip-path="url(#SVGID_14_)" fill="#47474C" d="M480.9,399.9c1.1-0.7,1.8-1.9,1.7-3.2c0-0.1-0.1-0.1-0.2-0.1
		c-0.4,0.5-0.8,1.1-1.2,1.6c-0.2,0.3-0.4,0.6-0.6,1c-0.1,0.1-0.5,1-0.5,1c-0.5,0-0.7-2-0.8-2.4c-0.2-0.8-0.4-1.7-0.6-2.5
		c-0.1,0-0.1,0-0.2,0.1c0.5,2.1,1.4,4.2,3.5,5.1c0.3,0.1,0.7,0.3,1.1,0.3c0.7,0.1,1.4-0.2,1.9,0.5c0.6,0.8,1,1.4,1.9,1.9
		c0.1,0.1,0.2-0.1,0.1-0.2c-0.5-0.2-0.9-0.5-1.2-0.9c-0.3-0.4-0.5-0.9-0.8-1.3c-0.1-0.1-0.2-0.2-0.4-0.2c-0.5-0.1-1.1,0.1-1.7,0
		c-2.5-0.5-3.6-3-4.1-5.2c0-0.1-0.2-0.1-0.2,0.1c0.3,1.1,0.5,2.2,0.8,3.3c0.1,0.6,0.1,1.6,0.7,2c0,0,0.1,0,0.1,0
		c0.7-1.4,1.5-2.7,2.4-3.9c-0.1,0-0.1,0-0.2-0.1c0.1,1.3-0.5,2.4-1.6,3C480.7,399.8,480.8,400,480.9,399.9"/>
	<path clip-path="url(#SVGID_14_)" fill="#47474C" d="M446.9,388.7c-10.3-1.6-25.7-6.8-25.9-6.8l0.1-0.2c0.2,0.1,15.5,5.2,25.8,6.8
		L446.9,388.7z"/>
	<path clip-path="url(#SVGID_14_)" fill="#47474C" d="M446.5,390.7c-10.3-1.6-25.7-6.8-25.9-6.8l0.1-0.2c0.2,0.1,15.5,5.2,25.8,6.8
		L446.5,390.7z"/>
	<path clip-path="url(#SVGID_14_)" fill="#47474C" d="M445.3,393.1c-10.3-1.6-25.7-6.8-25.9-6.8l0.1-0.2c0.2,0.1,15.5,5.2,25.8,6.8
		L445.3,393.1z"/>
	<path clip-path="url(#SVGID_14_)" fill="#47474C" d="M444.7,395.4c-10.3-1.6-25.7-6.8-25.9-6.8l0.1-0.2c0.2,0.1,15.5,5.2,25.8,6.8
		L444.7,395.4z"/>
	<path clip-path="url(#SVGID_14_)" fill="#47474C" d="M443.6,397.5c-10.3-1.6-25.7-6.8-25.9-6.8l0.1-0.2c0.2,0.1,15.5,5.2,25.8,6.8
		L443.6,397.5z"/>
</g>
<polygon fill="#B0AEA2" points="459.6,298.3 493.6,304.3 482.6,333.3 452.6,324.3 "/>
<g>
	<defs>
		<polygon id="SVGID_15_" points="458.6,326.1 478.3,329.6 480.1,329.6 484.3,306 484.3,305.4 463,301.6 		"/>
	</defs>
	<clipPath id="SVGID_16_">
		<use xlink:href="#SVGID_15_"  overflow="visible"/>
	</clipPath>
	<path clip-path="url(#SVGID_16_)" fill="#B2DBDB" d="M482.4,316.5c-0.1,0.6-0.3,1.2-0.5,1.8l-0.2,0l0-0.1l0.2-0.1l-0.1-0.1l0-0.3
		l0.1,0l-0.1,0c0,0,0-0.1,0-0.1c0,0,0-0.2,0-0.2c0,0,0.1,0,0,0s0-0.4,0.1-0.6c0.1-0.2,0.1-0.2,0.1-0.2c0,0,0-0.1,0-0.1l-0.2,0v0.1
		c0,0-0.1,0.1,0,0.2c0,0.1,0,0.1,0,0.1l0,0.1l-0.1,0.5c0,0,0,0.1,0,0.1c0,0-0.1,0.1-0.1,0.1c0.1-0.6,0-1.1-0.2-1.6l-3.5-0.6
		c-0.3,0.4-0.6,0.9-0.7,1.5c0,0,0,0,0,0c0,0-0.1-0.1,0-0.1c0,0,0-0.1,0-0.1l0.1-0.5l0-0.1c0,0,0-0.1,0-0.1c0-0.1,0-0.2,0-0.2l0-0.1
		l-0.2,0c0,0,0,0.1-0.1,0.1c-0.1,0,0,0,0,0.3c0,0.2-0.1,0.5-0.1,0.5c0,0,0,0,0,0.1c0,0,0,0.2,0,0.2c0,0-0.1,0.1-0.1,0.1l-0.1,0
		l0.1,0.1l-0.1,0.3l-0.1,0l0.1,0.2l0,0.1l-0.4-0.1l0.4-2.1l0.3,0l0-0.1l-0.4-0.1l-0.4-0.3l-2.1-0.4l-0.5,0.2l-0.4-0.1l0,0.1l0.3,0
		l-0.2,1l-0.4-0.1l-0.1,0.3l-1.5-0.3l0.3-1.7l-2.1-0.4l-0.5,2.8l-0.5-0.1l-0.3-0.1c0,0,0,0,0,0l-0.5-0.1l0.2-1.1l0.2-0.1l0-0.2
		l-0.2,0l0.2-1.3l-1.5-0.3l-0.2,1.3l-0.3,0l0,0.2l0.2,0.2l-0.2,1.1l-0.6-0.1l0.2-1l-0.2,0l0.1-0.8l-0.9-0.2l0.2-1l-2.8-0.5L462,314
		l-0.6-0.1l-0.2,1.2l-0.3-0.1c0-0.8,0-1.6,0.2-2.4c0-0.2,0.1-0.4,0.1-0.6c1.4-5.7,6.9-9.5,12.6-8.5c5.7,1,9.5,6.5,8.8,12.3
		C482.5,316.1,482.5,316.3,482.4,316.5"/>
	<path clip-path="url(#SVGID_16_)" fill="#929185" d="M482.5,315.9c0.7-5.9-3.1-11.3-8.8-12.3c-5.7-1-11.2,2.7-12.6,8.5
		c-0.1,0.2-0.1,0.4-0.1,0.6c-0.1,0.8-0.2,1.6-0.2,2.4l0.3,0.1l0.2-1.2l0.6,0.1l0.3-1.8l2.8,0.5l-0.2,1l0.9,0.2l-0.1,0.8l0.2,0
		l-0.2,1l0.6,0.1l0.2-1.1l-0.2-0.2l0-0.2l0.3,0l0.2-1.3l1.5,0.3l-0.2,1.3l0.2,0l0,0.2l-0.2,0.1l-0.2,1.1l0.5,0.1c0,0,0,0,0,0
		l0.3,0.1l0.5,0.1l0.5-2.8l2.1,0.4l-0.3,1.7l1.5,0.3l0.1-0.3l0.4,0.1l0.2-1l-0.3,0l0-0.1l0.4,0.1l0.5-0.2l2.1,0.4l0.4,0.3l0.4,0.1
		l0,0.1l-0.3,0l-0.4,2.1l0.4,0.1l0-0.1l-0.1-0.2l0.1,0l0.1-0.3l-0.1-0.1l0.1,0c0,0,0.1-0.1,0.1-0.1c0,0,0-0.2,0-0.2c0,0-0.1,0,0,0
		c0,0,0.1-0.3,0.1-0.6c0-0.2,0-0.2,0-0.3c0.1,0,0.1-0.1,0.1-0.1l0.2,0l0,0.1c0,0,0,0.1,0,0.2c0,0.1,0,0.1,0,0.1l0,0.1l-0.1,0.5
		c0,0,0,0.1,0,0.1c0,0,0,0.1,0,0.1c0,0,0,0,0,0c0.1-0.6,0.4-1.1,0.7-1.5l3.5,0.6c0.2,0.5,0.3,1,0.2,1.6c0,0,0.1-0.1,0.1-0.1
		c0,0,0-0.1,0-0.1l0.1-0.5l0-0.1c0,0,0.1,0,0-0.1c0-0.1,0-0.2,0-0.2v-0.1l0.2,0c0,0,0,0.1,0,0.1c0,0,0,0-0.1,0.2
		c-0.1,0.2-0.1,0.5-0.1,0.6s-0.1,0,0,0c0,0-0.1,0.2,0,0.2c0,0,0,0.1,0,0.1l0.1,0l-0.1,0l0,0.3l0.1,0.1l-0.2,0.1l0,0.1l0.2,0
		c0.2-0.6,0.4-1.2,0.5-1.8C482.5,316.3,482.5,316.1,482.5,315.9"/>
	<path clip-path="url(#SVGID_16_)" fill="#B2DBDB" d="M476.3,307.1c0-0.1,0.1-0.2,0.2-0.1c0.1,0,0.2,0.1,0.1,0.2
		c0,0.1-0.1,0.2-0.2,0.1C476.3,307.3,476.3,307.2,476.3,307.1"/>
	<path clip-path="url(#SVGID_16_)" fill="#B2DBDB" d="M480.5,310.5C480.5,310.5,480.5,310.5,480.5,310.5
		C480.5,310.5,480.5,310.5,480.5,310.5c0-0.1,0-0.1,0-0.1l0.1-0.3c0,0,0,0-0.1,0l0.1,0l0-0.2l0,0l0,0.2l0.1,0l0,0.1l-0.1,0
		c0,0,0,0,0,0l-0.1,0.3C480.6,310.4,480.6,310.5,480.5,310.5C480.6,310.5,480.5,310.5,480.5,310.5"/>
	<path clip-path="url(#SVGID_16_)" fill="#B2DBDB" d="M468.3,308.9L468.3,308.9l0,0.3l-0.1,0L468.3,308.9L468.3,308.9
		c-0.1,0-0.2-0.1-0.2-0.2c0-0.1,0.1-0.1,0.1-0.1l0-0.1c-0.1,0-0.1-0.1-0.1-0.1c0,0,0.1-0.1,0.1-0.1l0.1-0.3l0,0.3
		c0.1,0,0.1,0.1,0.1,0.1c0,0-0.1,0.1-0.1,0.1l0,0.1c0.1,0,0.1,0.1,0.1,0.2C468.4,308.9,468.4,308.9,468.3,308.9"/>
	<path clip-path="url(#SVGID_16_)" fill="#B2DBDB" d="M471.9,307.4L471.9,307.4L471.9,307.4c-0.1,0.1,0,0.1,0,0.1c0,0,0,0.1-0.1,0.1
		l0,0.1l0,0l0,0l0,0c0,0,0-0.1,0-0.1c0,0-0.1,0,0-0.1c0,0,0-0.1,0.1-0.1C471.8,307.5,471.8,307.4,471.9,307.4l-0.2,0l0-0.1l0.1,0
		l0.1,0c0,0,0-0.1,0-0.1c0,0-0.1,0-0.1-0.1c0,0,0-0.1,0-0.1l0,0l0,0l0,0l0,0c0-0.1,0-0.2,0-0.2l0,0.2l0,0l0.1,0c0,0,0,0,0,0
		c0,0-0.1,0-0.1,0l0,0.1l0,0L471.9,307.4L471.9,307.4z"/>
</g>
<polygon fill="#B2DBDB" points="472.5,314.3 472.2,314.2 472.2,314.3 472.4,314.4 472.4,314.4 473.3,314.5 473.4,314 "/>
<rect x="473.4" y="313.2" transform="matrix(-0.9834 -0.1812 0.1812 -0.9834 882.3035 707.0512)" fill="#B2DBDB" width="0.2" height="0.1"/>
<rect x="473.5" y="313.3" fill="#B2DBDB" width="0" height="0.2"/>
<rect x="473.6" y="311.9" transform="matrix(-0.985 -0.1723 0.1723 -0.985 886.6053 700.8307)" fill="#B2DBDB" width="0.2" height="0.1"/>
<rect x="473.9" y="310.7" transform="matrix(-0.9843 -0.1763 0.1763 -0.9843 885.961 700.0704)" fill="#B2DBDB" width="0.3" height="0.1"/>
<g>
	<defs>
		<polygon id="SVGID_17_" points="458.6,326.1 478.3,329.6 480.1,329.6 484.3,306 484.3,305.4 463,301.6 		"/>
	</defs>
	<clipPath id="SVGID_18_">
		<use xlink:href="#SVGID_17_"  overflow="visible"/>
	</clipPath>
	<path clip-path="url(#SVGID_18_)" fill="#B2DBDB" d="M476.5,307.6L476.5,307.6l-0.2,0l-0.1,0l0-0.1c0,0,0.1,0,0.1-0.1l0-0.2l0,0
		l0,0.1l0,0C476.4,307.5,476.5,307.6,476.5,307.6"/>
</g>
<rect x="474.9" y="313.5" fill="#B2DBDB" width="0" height="0.2"/>
<rect x="475.1" y="310.9" transform="matrix(-0.9843 -0.1765 0.1765 -0.9843 888.1627 700.797)" fill="#B2DBDB" width="0.3" height="0.1"/>
<rect x="475.1" y="312.2" transform="matrix(-0.9839 -0.1789 0.1789 -0.9839 886.7432 704.375)" fill="#B2DBDB" width="0.1" height="0.1"/>
<rect x="474.9" y="313.5" transform="matrix(-0.983 -0.1838 0.1838 -0.983 884.1875 708.9247)" fill="#B2DBDB" width="0.1" height="0.1"/>
<polygon fill="#B2DBDB" points="474.6,314.8 475.4,314.9 475.8,315 475.8,314.9 475.4,314.8 474.7,314.3 "/>
<g>
	<defs>
		<polygon id="SVGID_19_" points="458.6,326.1 478.3,329.6 480.1,329.6 484.3,306 484.3,305.4 463,301.6 		"/>
	</defs>
	<clipPath id="SVGID_20_">
		<use xlink:href="#SVGID_19_"  overflow="visible"/>
	</clipPath>
	<path clip-path="url(#SVGID_20_)" fill="#FFFDF0" d="M480.6,310.5C480.6,310.5,480.6,310.4,480.6,310.5l0-0.4c0,0,0,0,0,0l0.1,0
		l0-0.1l-0.1,0l0-0.2l0,0l0,0.2l-0.1,0c0,0,0.1,0,0.1,0L480.6,310.5C480.5,310.4,480.5,310.4,480.6,310.5
		C480.5,310.5,480.5,310.5,480.6,310.5C480.5,310.5,480.5,310.5,480.6,310.5C480.5,310.5,480.6,310.5,480.6,310.5"/>
	<path clip-path="url(#SVGID_20_)" fill="#B0AEA2" d="M481.7,318.2L481.7,318.2l0.2-0.2l-0.1-0.1l0-0.3l0.1,0l-0.1,0
		c0,0,0-0.1,0-0.1c0,0,0.1-0.2,0-0.2c0,0,0.1,0,0,0c0,0,0-0.4,0.1-0.6c0.1-0.2,0.1-0.2,0.1-0.2c0,0,0-0.1,0-0.1l-0.2,0v0.1
		c0,0-0.1,0.1,0,0.2c0,0.1,0,0.1,0,0.1l0,0.1l-0.1,0.5c0,0,0,0.1,0,0.1c0,0-0.1,0.1-0.1,0.1c0.1-1-0.2-1.9-0.8-2.5
		c0.1-0.1,0.1-0.3,0.1-0.3l-0.1-0.1l0-0.3l-0.3-0.1l0,0c0-0.1,0-0.2,0-0.2l-0.1-0.1l0.1-0.6l0.2-0.3c0,0-0.1-0.1-0.1-0.1
		c0,0,0.1-0.2,0.1-0.2l0,0l0-0.1c0,0-0.1-0.1-0.2-0.1l0.1-0.5h0c0.1-0.1,0-0.2,0-0.2c0-0.3,0-1,0-1c0,0-0.3,0.9-0.4,1
		c-0.1,0.1,0,0.1,0,0.2l0,0l-0.1,0.5c-0.1,0-0.2,0.1-0.2,0.1l-0.1,0.1l0,0c0,0,0,0.2,0,0.2s-0.2,0-0.2,0l0.1,0.3l-0.1,0.6
		c-0.1,0.1-0.2,0.2-0.2,0.2c0,0,0,0.1,0,0.1l-0.3-0.1L479,314l-0.2,0l0.1,0.3c-0.8,0.3-1.4,1.1-1.7,2.1c0,0,0,0,0,0
		c0,0-0.1-0.1-0.1-0.1c0,0,0-0.1,0-0.1l0.1-0.5l0-0.1c0,0,0-0.1,0-0.1c0-0.1,0-0.2,0-0.2l0-0.1l-0.2,0c0,0,0,0.1-0.1,0.1
		c-0.1,0,0,0,0,0.3c0,0.2-0.1,0.5-0.1,0.6c0,0,0,0,0,0c0,0,0,0.2,0,0.2c0,0-0.1,0.1-0.1,0.1l-0.1,0l0.1,0.1l-0.1,0.3l-0.1,0l0.1,0.2
		l0,0.1l-0.4-0.1l0.4-2.1l0.2,0l0-0.1l-0.4-0.1l-0.7-0.6l0.1-0.6l0,0l0-0.2l0.1,0l0-0.1l-0.1,0l0.2-1.2l0.1,0l0-0.1l-0.1,0l0.1-0.4
		l-0.1,0l0.2-0.9l0.1,0l0-0.1l-0.3,0l0.2-1.1c0,0,0,0.1-0.2,0.1l0.2-1c0,0,0,0-0.1,0.1l0.2-0.9c0,0,0,0-0.1,0.1l0.1-0.5
		c0,0,0,0-0.1,0l0-0.2l-0.1,0l0.1,0l0,0c0,0-0.1-0.1-0.1-0.1l0,0c0,0,0.1,0,0.1-0.1c0-0.1,0-0.1-0.1-0.1c-0.1,0-0.1,0-0.1,0.1
		c0,0.1,0,0.1,0.1,0.1l0,0c0,0-0.1,0.1-0.1,0.1l0,0.1l0.1,0l0,0.2c0,0-0.1,0-0.1,0l-0.1,0.4c-0.1,0-0.1,0.1-0.1,0.1l-0.1,0.8
		c-0.1,0-0.1,0.1-0.1,0.1l-0.1,0.9c-0.2,0.1-0.2,0.2-0.2,0.2l-0.1,0.5l-0.3-0.1l0,0.1l0.2,0l-0.2,0.9l-0.1,0l-0.1,0.4l-0.2,0l0,0.1
		l0.1,0l-0.2,1.2l-0.2,0l0,0.1l0.2,0l0,0.2l0,0l-0.1,0.6l-0.9,0.3l-0.4-0.1l0,0.1l0.3,0l-0.2,1l-0.4-0.1l-0.1,0.3l-1.5-0.3l0.5-3
		l0.1,0l-0.3-1.3l0.1-0.3l0.1,0l0-0.2l-0.1,0l0.1-0.3l0,0l0-0.1l0,0l0.1-0.4l0.1,0l0,0l-0.2-2.3l0,0l0-0.1c0,0,0.1,0,0.1-0.1
		c0,0,0-0.1,0-0.1l0-0.1l0.1,0l0-0.1l-0.1,0l0,0l0-0.1c0,0,0.1,0,0.1,0c0,0,0,0,0,0l-0.1,0l0,0l0-0.2c0,0,0,0.1,0,0.2l0,0l0,0l0,0
		l0,0c0,0,0,0.1,0,0.1c0,0,0,0.1,0.1,0.1c0,0,0,0.1,0,0.1l-0.1,0l-0.1,0l0,0.1l0.1,0c0,0,0,0,0,0.1c0,0-0.1,0-0.1,0.1
		c0,0,0,0.1,0,0.1c0,0.1,0,0.1,0,0.1l0,0l-1,2l-0.1,0l0,0.1l-0.1,0.4l0,0l0,0.1l0,0l-0.1,0.3l-0.1,0l0,0.2l0.1,0l-0.1,0.3l-0.7,1.1
		l0.1,0l-0.8,4.2l-0.5-0.1l-0.3-0.1c0,0,0,0,0,0l-0.5-0.1l0.2-1.1l0.2-0.1l0-0.2l-0.2,0l0.2-1.3l0,0l0-0.1l0,0l0-0.1l-0.1,0l0-0.1
		l0.1,0l0-0.1l-0.1,0l0.2-0.8l0.1,0c0.4-2.5-0.1-2.9-0.2-3l0-0.1c0.1,0,0.1-0.1,0.1-0.1c0-0.1,0-0.1-0.1-0.2l0-0.1
		c0.1,0,0.1,0,0.1-0.1c0,0,0-0.1-0.1-0.1l0-0.3l-0.1,0.3c-0.1,0-0.1,0-0.1,0.1c0,0,0,0.1,0.1,0.1l0,0.1c-0.1,0-0.1,0-0.1,0.1
		c0,0.1,0,0.1,0.1,0.2l0,0.1l0,0c-0.5,0-1.2,2.8-1.2,2.8l0.1,0l-0.1,0.8l-0.1,0l0,0.1l0.1,0l0,0.2l-0.1,0l0,0.1l-0.1,0l0,0.1l0.1,0
		l-0.2,1.3l-0.3,0l0,0.2l0.2,0.2l-0.2,1.1l-0.6-0.1l0.2-1l-0.2,0l0.1-0.8l-0.9-0.2l0.5-2.9l0.1,0l0-0.2l-0.2,0l0.1-0.3l-0.5-0.1l0,0
		l-0.2,0c0-0.2-0.2-0.4-0.3-0.5c0-0.1-0.1-0.2-0.2-0.2c-0.1,0-0.2,0-0.3,0.1c-0.2,0-0.4,0.2-0.5,0.3l-0.2,0l0,0l-0.5-0.1l-0.1,0.3
		l-0.2,0l0,0.2l0.1,0L462,314l-0.6-0.1l-0.2,1.2l-0.3-0.1c0,1,0.2,2,0.5,3c0.1,0,0.2,0,0.3,0c0,0,0.1,0,0.1,0
		c0.5-0.1,0.9-0.1,1.4-0.1c0.1,0,0.1,0,0.2,0c0.2,0,0.4,0,0.6,0c0.1,0,0.2,0,0.3,0c0.4,0,0.7,0,1.1,0c0.1,0,0.1,0,0.2,0
		c0,0,0.1,0,0.1,0h0c0,0,0,0,0,0l0,0c0.3,0,0.5,0,0.8,0.1c0.1,0,0.2,0,0.3,0c0.1,0,0.2,0,0.3,0c0,0,0.1,0,0.1,0c0,0,0,0,0,0
		c0,0,0.1,0,0.1,0c0,0,0.1,0,0.1,0h0c0.1,0,0.1,0,0.2,0h0c0,0,0,0,0.1,0c0.1,0,0.2,0,0.3,0h0c0,0,0,0,0,0l0,0c0,0,0,0,0.1,0
		c0.1,0,0.3,0,0.4,0.1c0.2,0,0.5,0.1,0.7,0.1h0c0,0,0,0,0,0l0,0c0,0,0.1,0,0.1,0c0.1,0,0.1,0,0.2,0l0.1,0c0,0,0,0,0,0
		c0.1,0,0.2,0,0.2,0c0.3,0.1,0.6,0.1,0.8,0.2c0.2,0,0.3,0.1,0.5,0.1l0,0c0,0,0.1,0,0.1,0c0.1,0,0.2,0,0.3,0.1h0
		c0.4,0.1,0.8,0.2,1.1,0.3c0,0,0.1,0,0.1,0c0,0,0,0,0.1,0c0.1,0,0.1,0,0.2,0c0,0,0,0,0,0c0,0,0,0,0.1,0c0,0,0,0,0,0
		c0.4,0.1,0.8,0.2,1.3,0.3h0c0.1,0,0.2,0,0.2,0.1c0,0,0.1,0,0.1,0l0,0c0,0,0,0,0.1,0c0,0,0,0,0.1,0c0,0,0,0,0.1,0h0
		c0.1,0,0.1,0,0.2,0h0c0.2,0,0.4,0.1,0.6,0.1c0.4,0.1,0.7,0.2,1.1,0.2c0,0,0,0,0,0c0,0,0.1,0,0.1,0c0,0,0.1,0,0.2,0c0,0,0,0,0.1,0
		c0,0,0.1,0,0.1,0c0.4,0.1,0.8,0.2,1.2,0.3c0.8,0.2,1.6,0.3,2.4,0.4c0.5-0.7,0.9-1.5,1.2-2.4L481.7,318.2z M463,310.2l-0.1,0l0-0.2
		l0.1,0L463,310.2z M463.2,310.2l-0.1,0l0-0.2l0.1,0L463.2,310.2z M463.4,310.3l-0.1,0l0-0.2l0.1,0L463.4,310.3z M465,310.6l-0.1,0
		l0-0.2l0.1,0L465,310.6z M465.1,310.6l-0.1,0l0-0.2l0.1,0L465.1,310.6z M465.3,310.6l-0.1,0l0-0.2l0.1,0L465.3,310.6z"/>
	<path clip-path="url(#SVGID_20_)" fill="#595858" d="M462.3,319.9c0-0.1-0.1-0.1-0.1-0.2c0-0.1-0.1-0.1-0.1-0.2s0-0.1,0-0.2
		c0-0.1,0.1-0.2,0.2-0.2c0,0,0.1,0,0.2,0c0.1,0,0.1,0,0.2,0c0.1,0,0.1,0,0.2,0c0.1,0.1,0.2,0.2,0.3,0.3c0,0,0.1,0,0.1-0.1
		c0,0,0,0,0-0.1c0,0,0,0,0-0.1c0,0,0-0.1,0-0.1c0,0-0.1-0.1-0.1-0.1c-0.1,0-0.2-0.1-0.3-0.1c-0.1,0-0.3,0-0.4,0
		c-0.1,0-0.1,0-0.2,0.1c-0.1,0-0.1,0.1-0.2,0.1c0,0-0.1,0.1-0.1,0.1c0,0.1-0.1,0.1-0.1,0.2c0,0.1,0,0.2,0.1,0.3c0,0.1,0,0.1,0.1,0.2
		c0,0.1,0.1,0.1,0.1,0.2c0.1,0.1,0.1,0.2,0.1,0.3c0,0.1-0.1,0.2-0.2,0.3c0,0-0.1,0-0.2,0c-0.1,0-0.1,0-0.2,0c-0.1,0-0.1,0-0.2-0.1
		c-0.2-0.1-0.3-0.3-0.4-0.5c0,0-0.1,0-0.1,0c0,0,0,0,0,0c0,0,0,0.1,0,0.1c0,0.1,0,0.2,0,0.3c0,0.1,0.1,0.2,0.1,0.3
		c0.1,0.2,0.3,0.3,0.5,0.4c0.3,0.1,0.5,0,0.8-0.1c0.1-0.1,0.2-0.1,0.3-0.2c0.1-0.1,0.1-0.2,0.2-0.4c0-0.2,0-0.3-0.1-0.5
		C462.4,320,462.4,320,462.3,319.9"/>
	<path clip-path="url(#SVGID_20_)" fill="#595858" d="M470.6,321.3c0.1-0.2,0.3-0.3,0.4-0.5c0,0-0.1-0.1-0.1-0.1c0,0-0.1,0-0.1,0.1
		c0,0-0.1,0.1-0.2,0.3c-0.1,0.1-0.1,0.1-0.2,0.2c-0.1,0.1-0.1,0.1-0.2,0.2c-0.1,0.1-0.1,0.1-0.2,0.2c-0.1,0.1-0.2,0.2-0.2,0.2
		c-0.2,0.2-0.3,0.2-0.5,0.2c-0.1,0-0.1-0.1-0.1-0.2c0-0.1,0-0.1,0.1-0.2c0.1-0.1,0.1-0.1,0.2-0.2c0.2-0.1,0.4-0.1,0.6-0.1
		c0-0.1,0-0.1-0.1-0.1c-0.2,0-0.4,0-0.6,0c-0.2,0.1-0.4,0.2-0.5,0.3c-0.1,0.1-0.1,0.1-0.2,0.2c-0.1,0.1-0.2,0.1-0.3,0.1
		c-0.1,0-0.1-0.1-0.1-0.2c0-0.1,0.1-0.1,0.1-0.3c0-0.1,0.1-0.1,0.1-0.2c0-0.1,0.1-0.1,0.1-0.1c0,0,0-0.1,0-0.1c0,0,0,0,0-0.1
		c0,0,0,0-0.1-0.1c-0.1,0-0.1,0-0.2,0c-0.2,0-0.5,0.1-0.7,0.3c0.1-0.1,0.1-0.2,0.2-0.3c0,0,0,0-0.1-0.1c0,0,0,0,0,0c0,0,0,0-0.1,0
		c-0.1,0-0.2,0.1-0.3,0.2c-0.1,0-0.1,0.1-0.2,0.1c-0.1,0.1-0.1,0.1-0.1,0.2c0,0-0.1,0.1-0.1,0.1c-0.1,0.1-0.2,0.1-0.3,0.1
		c0.1-0.1,0.2-0.3,0.2-0.4c0-0.1,0-0.3-0.1-0.4c-0.1-0.1-0.1-0.1-0.2-0.1c-0.1,0-0.1,0-0.2-0.1c-0.1,0-0.1,0-0.1,0
		c0,0-0.1,0.1-0.1,0.1c-0.2,0-0.4,0.1-0.5,0.2c-0.1,0.1-0.2,0.2-0.2,0.3c0,0-0.1,0-0.1,0c-0.1,0-0.2,0.1-0.3,0
		c-0.1,0-0.2-0.1-0.2-0.1c0-0.1-0.1-0.1-0.1-0.2c0-0.1,0.1-0.2,0.2-0.3c0,0,0.1-0.1,0.1-0.1c0.1,0,0.1,0,0.2,0c0.1,0,0.1,0,0.2,0.1
		c0,0,0.1,0,0.1-0.1c0,0,0-0.1-0.1-0.1c0,0-0.1-0.1-0.2-0.1c-0.1,0-0.3,0-0.4,0c-0.2,0.1-0.3,0.1-0.4,0.2c-0.1,0.1-0.2,0.2-0.2,0.3
		c0,0-0.1,0-0.1,0.1c-0.1,0-0.2,0.1-0.4,0c-0.2,0-0.3-0.1-0.4-0.2c0.1,0,0.3,0,0.4,0c0.1,0,0.1,0,0.2,0c0.1,0,0.1,0,0.2-0.1
		c0,0,0.1-0.1,0.1-0.1c0,0,0.1-0.1,0.1-0.1c0,0,0-0.1,0-0.1c0-0.1-0.1-0.1-0.2-0.2c-0.2,0-0.4,0-0.5,0c-0.1,0-0.2,0.1-0.2,0.1
		c-0.1,0-0.1,0.1-0.2,0.1c-0.1,0.1-0.1,0.1-0.2,0.2s-0.1,0.1-0.1,0.2c0,0.1,0,0.2,0,0.2c0.1,0.2,0.2,0.3,0.6,0.4c0.2,0,0.3,0,0.5,0
		c0.1,0,0.1,0,0.2-0.1c0.1,0,0.1-0.1,0.2-0.1c0,0.1,0,0.2,0.1,0.2c0.1,0.1,0.2,0.2,0.4,0.2c0.2,0,0.4,0,0.6-0.1c0,0,0.1-0.1,0.1-0.1
		c0,0.1,0,0.2,0.1,0.2c0.1,0.1,0.2,0.2,0.3,0.2l0,0l0,0c0.2,0,0.4,0,0.5,0c0.2,0,0.4-0.1,0.6-0.2c0,0.1,0,0.1,0,0.2
		c0,0.1,0.1,0.2,0.3,0.3c0.1,0,0.1,0,0.1,0c0-0.2,0.1-0.4,0.2-0.5c0.1-0.1,0.2-0.2,0.4-0.3c0.2-0.1,0.3-0.1,0.3-0.1c0,0,0,0-0.1,0.1
		c-0.2,0.2-0.3,0.4-0.4,0.6c0,0.1,0,0.2,0,0.3c0,0.1,0.1,0.1,0.2,0.1c0.1,0,0.2,0,0.4-0.1c0.1,0,0.1-0.1,0.2-0.1c0,0,0,0,0.1,0
		c0,0.1,0,0.1,0.1,0.2c0,0,0.1,0.1,0.1,0.1c0,0,0.1,0,0.2,0.1c0.1,0,0.1,0,0.2,0c0.2,0,0.3-0.1,0.4-0.2c0,0,0,0.1,0,0.1
		c0,0.1,0.1,0.2,0.3,0.2c0.1,0,0.2,0,0.4-0.1c0.1,0,0.1-0.1,0.2-0.1c0.1,0,0.1-0.1,0.2-0.1c0,0,0.1-0.1,0.2-0.2
		c0.1-0.1,0.1-0.1,0.1-0.1c0,0,0-0.1-0.1-0.1c-0.1,0.1-0.2,0.1-0.3,0.2c-0.1,0.1-0.2,0.1-0.3,0.1c-0.1,0-0.1-0.1-0.1-0.1
		c0-0.1,0.1-0.2,0.2-0.4C470.4,321.6,470.5,321.5,470.6,321.3 M463.5,320.5c0.1-0.1,0.2-0.1,0.3-0.1c0.1,0,0.1,0.1,0.1,0.1
		c0,0.1-0.1,0.1-0.2,0.2c-0.1,0-0.2,0.1-0.3,0.1C463.3,320.7,463.4,320.6,463.5,320.5 M466.2,321.4c-0.1,0.1-0.2,0.1-0.3,0.1
		c-0.1,0-0.1-0.1-0.1-0.2c0-0.1,0-0.1,0.1-0.2c0.1-0.2,0.2-0.3,0.4-0.3c0.1,0.1,0.1,0.1,0.1,0.2
		C466.4,321.2,466.4,321.3,466.2,321.4"/>
	<path clip-path="url(#SVGID_20_)" fill="#595858" d="M479.9,323.7c-0.1,0.1-0.2,0.1-0.3,0.2c-0.1,0.1-0.2,0.1-0.3,0.1
		c-0.1,0-0.1-0.1-0.1-0.1c0-0.1,0.1-0.2,0.2-0.4c0.1-0.1,0.1-0.2,0.3-0.4c0.1-0.2,0.3-0.3,0.4-0.5c0,0-0.1-0.1-0.1-0.1
		c0,0-0.1,0-0.1,0.1c0,0-0.1,0.1-0.2,0.3c-0.1,0.1-0.1,0.1-0.2,0.2c-0.1,0.1-0.1,0.1-0.2,0.2c-0.1,0.1-0.1,0.1-0.2,0.2
		c-0.1,0.1-0.2,0.2-0.2,0.2c-0.2,0.2-0.3,0.2-0.5,0.2c-0.1,0-0.1-0.1-0.1-0.2c0-0.1,0-0.1,0.1-0.2c0.1-0.1,0.1-0.1,0.2-0.2
		c0.2-0.1,0.4-0.1,0.6-0.1c0-0.1,0-0.1-0.1-0.1c-0.2,0-0.4,0-0.6,0c-0.2,0.1-0.4,0.2-0.5,0.3c-0.1,0.1-0.1,0.1-0.2,0.2
		c-0.1,0.1-0.2,0.1-0.3,0.1c-0.1,0-0.1-0.1-0.1-0.2c0-0.1,0.1-0.1,0.1-0.3c0-0.1,0.1-0.1,0.1-0.2c0-0.1,0.1-0.1,0.1-0.1
		c0,0,0-0.1,0-0.1c0,0,0,0,0-0.1c0,0,0,0-0.1-0.1c-0.1,0-0.1,0-0.2,0c-0.2,0-0.5,0.1-0.7,0.3c0.1-0.1,0.1-0.2,0.2-0.3
		c0,0,0,0-0.1-0.1c0,0,0,0,0,0c0,0,0,0-0.1,0c-0.1,0-0.2,0.1-0.3,0.2c-0.1,0-0.1,0.1-0.2,0.1c-0.1,0.1-0.1,0.1-0.1,0.2
		c0,0,0,0.1-0.1,0.1c0,0-0.1,0-0.1,0.1c-0.1,0.1-0.2,0.1-0.3,0.1c-0.1,0-0.1-0.1-0.1-0.2c0-0.1,0.1-0.2,0.2-0.4c0,0,0.1-0.1,0.1-0.1
		c0,0,0-0.1,0.1-0.1c0,0,0-0.1,0-0.1c0,0-0.1,0-0.1,0c0,0,0,0-0.1,0c0,0-0.1,0-0.1,0c0,0-0.1-0.1-0.2-0.1c-0.2,0-0.4,0-0.6,0
		c-0.2,0.1-0.4,0.1-0.5,0.3c-0.1,0.1-0.1,0.1-0.2,0.2c-0.1,0.1-0.2,0.1-0.3,0.1c-0.1,0-0.1,0-0.1-0.1c0,0,0-0.1,0-0.1
		c0,0,0-0.1,0-0.1c0-0.1,0-0.2,0.1-0.3c0,0,0.1,0,0.1,0c0,0,0.1,0,0.1,0c0,0,0.1-0.1,0.1-0.2c0,0-0.1,0-0.1,0c0,0-0.1,0-0.1,0
		c0.1-0.1,0.1-0.2,0.2-0.3c0.2-0.3,0.4-0.6,0.5-0.7c0,0,0-0.1-0.1-0.1c0,0,0,0,0,0c0,0,0,0,0,0c0,0-0.1,0.1-0.2,0.2
		c-0.2,0.2-0.4,0.5-0.6,0.8c-0.1,0-0.3-0.1-0.6-0.3c0.1-0.2,0.2-0.3,0.2-0.5c0.1-0.2,0.1-0.3,0.1-0.4c0,0-0.1-0.1-0.1-0.1
		c-0.1,0.2-0.2,0.5-0.4,0.8c-0.1-0.1-0.2-0.1-0.3-0.1c-0.2,0-0.4,0-0.6,0.1c-0.1,0-0.2,0.1-0.3,0.2c-0.1,0.1-0.1,0.1-0.2,0.2
		c-0.1,0.1-0.1,0.2-0.2,0.3c0,0.1-0.1,0.2-0.1,0.3c0,0.1,0,0.2,0,0.2c0,0.2,0.1,0.4,0.3,0.4c0.2,0,0.3,0,0.5-0.1
		c0.3-0.2,0.6-0.6,0.9-1.1c0.1,0,0.2,0.1,0.3,0.1c0.1,0.1,0.2,0.1,0.3,0.1c-0.2,0.3-0.3,0.6-0.4,0.8c0,0.2,0,0.4,0.3,0.4
		c0.1,0,0.2,0,0.3-0.1c0.1,0,0.1-0.1,0.2-0.1c0,0,0.1-0.1,0.1-0.1c0,0.1,0,0.2,0.1,0.2c0.1,0.1,0.2,0.1,0.3,0.2c0.2,0,0.4,0,0.5-0.2
		l0,0c0,0,0,0,0,0.1c0,0.1,0.1,0.2,0.3,0.2c0.1,0,0.2,0,0.4-0.1c0.1,0,0.1-0.1,0.2-0.1c0,0,0,0,0.1,0c0,0,0,0.1,0,0.1
		c0,0.1,0.1,0.2,0.3,0.3c0.1,0,0.1,0,0.1,0c0-0.2,0.1-0.4,0.2-0.5c0.1-0.1,0.2-0.2,0.4-0.3c0.2-0.1,0.3-0.1,0.3-0.1c0,0,0,0-0.1,0.1
		c-0.2,0.2-0.3,0.4-0.4,0.6c0,0.1,0,0.2,0,0.3c0,0.1,0.1,0.1,0.2,0.1c0.1,0,0.2,0,0.4-0.1c0.1,0,0.1-0.1,0.2-0.1c0,0,0,0,0.1,0
		c0,0.1,0,0.1,0.1,0.2c0,0,0.1,0.1,0.1,0.1c0,0,0.1,0,0.2,0.1c0.1,0,0.1,0,0.2,0c0.2,0,0.3-0.1,0.4-0.2c0,0,0,0.1,0,0.1
		c0,0.1,0.1,0.2,0.3,0.2c0.1,0,0.2,0,0.4-0.1c0.1,0,0.1-0.1,0.2-0.1c0.1,0,0.1-0.1,0.2-0.1c0,0,0.1-0.1,0.2-0.2
		C479.9,323.8,479.9,323.8,479.9,323.7C479.9,323.7,479.9,323.7,479.9,323.7 M472.7,322.2c-0.3,0.3-0.5,0.4-0.6,0.4
		c-0.1,0-0.2-0.1-0.1-0.3c0-0.2,0.1-0.3,0.3-0.4c0.1,0,0.2-0.1,0.3-0.1c0.1,0,0.2,0,0.3,0c0.1,0,0.2,0,0.3,0.1
		C472.9,322,472.8,322.1,472.7,322.2 M475.6,322.7c-0.1,0.1-0.2,0.2-0.2,0.2c-0.2,0.2-0.3,0.2-0.4,0.2c-0.1,0-0.1-0.1-0.1-0.2
		c0-0.1,0.1-0.3,0.3-0.3c0.2-0.1,0.4-0.1,0.6-0.1C475.8,322.6,475.7,322.6,475.6,322.7"/>
	<path clip-path="url(#SVGID_20_)" fill="#595858" d="M460,326L460,326c0.2,0,0.3,0,0.4-0.1c0.1-0.1,0.1-0.3,0.2-0.7l0.4-2.5
		c0.1-0.4,0.1-0.6,0.1-0.7c0-0.1-0.1-0.2-0.3-0.2l-0.1,0l0-0.2l1.8,0.3c0.2,0,0.4,0.1,0.6,0.1c0.2,0.1,0.4,0.1,0.6,0.2
		c0.2,0.1,0.3,0.2,0.4,0.4c0.1,0.2,0.1,0.4,0.1,0.6c-0.1,0.3-0.2,0.6-0.5,0.7c-0.3,0.1-0.5,0.2-0.8,0.2l0,0c0.3,0.1,0.6,0.2,0.8,0.5
		c0.2,0.2,0.3,0.5,0.2,0.9c0,0.2-0.1,0.4-0.3,0.6c-0.1,0.1-0.3,0.2-0.5,0.3c-0.2,0.1-0.4,0.1-0.6,0.1c-0.2,0-0.4,0-0.6,0l-2.2-0.4
		L460,326z M461.9,324l0.3,0.1c0.5,0.1,0.9-0.2,1-0.8c0.1-0.6-0.1-0.9-0.6-1l-0.3-0.1L461.9,324z M461.9,326.3
		c0.3,0.1,0.6,0,0.7-0.1c0.2-0.1,0.3-0.4,0.3-0.7c0.1-0.4,0-0.6-0.1-0.8c-0.1-0.2-0.3-0.3-0.6-0.3l-0.3-0.1l-0.4,2L461.9,326.3z"/>
	<path clip-path="url(#SVGID_20_)" fill="#595858" d="M464.3,326.8L464.3,326.8c0.2,0,0.4,0,0.4-0.1c0.1-0.1,0.1-0.3,0.2-0.7
		l0.4-2.5c0.1-0.4,0.1-0.6,0.1-0.7c0-0.1-0.1-0.2-0.3-0.2l-0.1,0l0-0.2l1.9,0.4l0,0.2l-0.1,0c-0.2,0-0.3,0-0.3,0.1
		c-0.1,0.1-0.1,0.3-0.2,0.7l-0.4,2.5c-0.1,0.4-0.1,0.6-0.1,0.7c0,0.1,0.1,0.2,0.3,0.2l0.1,0l0,0.2l-1.9-0.4L464.3,326.8z"/>
	<path clip-path="url(#SVGID_20_)" fill="#595858" d="M471.1,327.8c0.1,0.2,0.2,0.3,0.3,0.3l0,0.2l-2-0.4l0-0.2c0.1,0,0.1,0,0.2,0
		c0.1,0,0.1,0,0.1-0.1c0-0.1,0-0.2-0.1-0.4l-0.7-1.8l-0.1,0l-0.2,1.2c-0.1,0.4-0.1,0.6-0.1,0.7c0,0.1,0.1,0.2,0.3,0.2l0.1,0l0,0.2
		l-1.9-0.4l0-0.2l0.1,0c0.2,0,0.3,0,0.3-0.1c0.1-0.1,0.1-0.3,0.2-0.7l0.4-2.5c0.1-0.4,0.1-0.6,0.1-0.7c0-0.1-0.1-0.2-0.3-0.2l-0.1,0
		l0-0.2l1.9,0.4l0,0.2l-0.1,0c-0.2,0-0.3,0-0.3,0.1c0,0.1-0.1,0.3-0.2,0.7l-0.2,1.1l0.1,0l1.5-1c0.2-0.2,0.4-0.3,0.4-0.4
		c0-0.1,0-0.2-0.1-0.2c-0.1,0-0.1,0-0.2-0.1l0-0.2l1.3,0.2l0,0.2c-0.1,0-0.2,0-0.3,0c-0.1,0-0.2,0.1-0.4,0.2l-1.1,0.8L471.1,327.8z"
		/>
	<path clip-path="url(#SVGID_20_)" fill="#595858" d="M471.7,328.1L471.7,328.1c0.2,0,0.4,0,0.4-0.1c0.1-0.1,0.1-0.3,0.2-0.7
		l0.4-2.5c0.1-0.4,0.1-0.6,0.1-0.7c0-0.1-0.1-0.2-0.3-0.2l-0.1,0l0-0.2l3.4,0.6l-0.2,1.1l-0.3,0c0-0.3,0-0.5-0.1-0.7
		c-0.1-0.2-0.3-0.3-0.6-0.3l-0.8-0.1l-0.3,1.8l0.5,0.1c0.1,0,0.2,0,0.3,0c0.1,0,0.2,0,0.2-0.1c0.1,0,0.1-0.1,0.2-0.2
		c0-0.1,0.1-0.2,0.1-0.3l0.2,0l-0.3,1.6l-0.2,0c0-0.2,0-0.3,0-0.4c0-0.1-0.1-0.2-0.1-0.2c-0.1-0.1-0.1-0.1-0.2-0.1
		c-0.1,0-0.2-0.1-0.3-0.1l-0.5-0.1l-0.4,2l0.6,0.1c0.2,0,0.3,0,0.4,0c0.1,0,0.3,0,0.4,0c0.1,0,0.2-0.1,0.3-0.2
		c0.1-0.1,0.2-0.3,0.2-0.5l0.3,0l-0.2,1.2l-3.5-0.6L471.7,328.1z"/>
	<path clip-path="url(#SVGID_20_)" fill="#595858" d="M475.9,327.9l0.2,0c0,0.3,0.1,0.6,0.3,0.9c0.2,0.2,0.4,0.4,0.7,0.5
		c0.2,0,0.4,0,0.6-0.1c0.2-0.1,0.3-0.3,0.3-0.5c0-0.1,0-0.3,0-0.4c0-0.1-0.1-0.2-0.2-0.3c-0.1-0.1-0.2-0.2-0.3-0.2
		c-0.1-0.1-0.3-0.1-0.4-0.2c-0.1-0.1-0.3-0.2-0.4-0.3c-0.1-0.1-0.2-0.2-0.3-0.3c-0.1-0.1-0.1-0.3-0.2-0.5c0-0.2,0-0.4,0-0.6
		c0.1-0.4,0.3-0.8,0.6-0.9c0.3-0.2,0.7-0.2,1-0.2c0.2,0,0.4,0.1,0.5,0.2c0.1,0.1,0.2,0.1,0.3,0.2c0.1,0,0.2,0,0.2-0.1l0.2,0
		l-0.2,1.2l-0.3,0c0-0.3-0.1-0.6-0.2-0.8c-0.2-0.2-0.4-0.4-0.6-0.4c-0.2,0-0.4,0-0.6,0.1c-0.2,0.1-0.3,0.3-0.3,0.5
		c0,0.1,0,0.2,0,0.3c0.1,0.1,0.1,0.2,0.2,0.3c0.1,0.1,0.2,0.1,0.3,0.2c0.1,0.1,0.3,0.2,0.4,0.2c0.1,0.1,0.3,0.2,0.4,0.3
		c0.1,0.1,0.2,0.2,0.3,0.3c0.1,0.1,0.1,0.3,0.2,0.5c0,0.2,0,0.4,0,0.6c-0.1,0.5-0.3,0.8-0.6,1c-0.3,0.2-0.7,0.3-1.1,0.2
		c-0.1,0-0.2-0.1-0.3-0.1c-0.1,0-0.2-0.1-0.3-0.1c-0.2-0.1-0.3-0.2-0.4-0.2c0,0-0.1,0-0.1,0c0,0-0.1,0.1-0.1,0.1l-0.2,0L475.9,327.9
		z"/>
</g>
<polygon fill="#595858" points="468.4,315.8 469.7,318.2 469.9,318.1 468.5,315.5 468.4,315.7 "/>
<polygon fill="#595858" points="468.8,315.3 472.5,316.5 472.5,316.7 468.6,315.4 468.7,315.3 "/>
<polygon fill="#595858" points="471.4,318.3 473,315.8 473.2,315.9 471.6,318.3 "/>
<g>
	<defs>
		<rect id="SVGID_21_" x="302.5" y="199.8" width="266.9" height="208.1"/>
	</defs>
	<clipPath id="SVGID_22_">
		<use xlink:href="#SVGID_21_"  overflow="visible"/>
	</clipPath>
	<path clip-path="url(#SVGID_22_)" fill="#595858" d="M473.7,316.8c0,0,1,2.2,1,2.2l0.2,0.1l-1-2.5L473.7,316.8z"/>
</g>
<polygon fill="#595858" points="473.7,318.8 474.9,316.9 475.1,317 473.8,318.9 "/>
<g>
	<defs>
		<rect id="SVGID_23_" x="302.5" y="199.8" width="266.9" height="208.1"/>
	</defs>
	<clipPath id="SVGID_24_">
		<use xlink:href="#SVGID_23_"  overflow="visible"/>
	</clipPath>
	<path clip-path="url(#SVGID_24_)" fill="#595858" d="M473.8,316.6l3.4,0.7c0,0,0.1,0.1,0,0.2l-3.5-0.6L473.8,316.6z"/>
	<path clip-path="url(#SVGID_24_)" fill="#595858" d="M467.2,318.3c0,0,1,0,1.8-1.4c0.8-1.4,0.9-1.7,0.9-1.7s0.3-0.5,0.7-0.4l0-0.1
		l-0.1,0c-0.4-0.1-0.7,0.4-0.7,0.4l-1.1,1.9c-0.6,1-1.6,1.2-1.6,1.2L467.2,318.3z"/>
	<path clip-path="url(#SVGID_24_)" fill="#595858" d="M469.4,318.3c0-0.1,0-0.2,0-0.2c0,0,0-0.1,0-0.1c0-0.1,0-0.1,0-0.2
		c-0.1-0.3-0.2-0.6-0.4-0.8c0,0,0,0,0,0c0,0-0.1-0.1-0.1-0.1c0,0,0,0,0,0c-0.1-0.1-0.1-0.1-0.2-0.2c-0.3-0.2-0.6-0.4-0.9-0.5
		c0,0,0,0-0.1,0c-0.1,0-0.3,0-0.4,0c-1,0-1.9,0.7-2.1,1.8c0,0,0,0,0,0c0,0.2,0,0.4,0,0.6c0.1,0.9,0.8,1.7,1.7,1.9c0.2,0,0.5,0,0.7,0
		c0.9-0.1,1.6-0.8,1.8-1.8C469.4,318.5,469.4,318.4,469.4,318.3 M467.6,320.2c-0.2,0-0.4,0-0.7,0c-0.9-0.2-1.5-0.9-1.6-1.7
		c0-0.2,0-0.4,0-0.6c0,0,0,0,0-0.1c0.2-1.1,1.2-1.8,2.3-1.6c0,0,0,0,0.1,0c0.4,0.1,0.7,0.2,0.9,0.5c0,0,0.1,0.1,0.1,0.1
		c0,0,0.1,0.1,0.1,0.1c0,0,0,0,0,0c0.1,0.2,0.2,0.4,0.3,0.6c0,0.1,0,0.1,0,0.2c0,0,0,0.1,0,0.1c0,0.1,0,0.2,0,0.2c0,0.1,0,0.2,0,0.3
		C469.1,319.4,468.4,320.1,467.6,320.2"/>
	<path clip-path="url(#SVGID_24_)" fill="#595858" d="M469.3,318.2c0-0.1,0-0.2,0-0.2c0,0,0-0.1,0-0.1c0-0.1,0-0.1,0-0.2
		c-0.1-0.2-0.2-0.4-0.3-0.6c0,0,0,0,0,0c0,0-0.1-0.1-0.1-0.1c0-0.1-0.1-0.1-0.1-0.1c-0.2-0.2-0.6-0.4-0.9-0.5c0,0,0,0-0.1,0
		c-1-0.2-2,0.5-2.3,1.6c0,0,0,0,0,0.1c0,0.2,0,0.4,0,0.6c0.1,0.8,0.7,1.6,1.6,1.7c0.2,0,0.5,0,0.7,0c0.8-0.1,1.5-0.8,1.6-1.6
		C469.3,318.5,469.3,318.3,469.3,318.2 M469.1,318.6C469.1,318.7,469.1,318.7,469.1,318.6c0,0.1,0,0.1,0,0.1c0,0,0,0,0,0
		c0,0,0,0,0,0c0,0,0,0,0,0.1c0,0,0,0,0,0v0c0,0,0,0,0,0.1c0,0,0,0,0,0c0,0,0,0.1,0,0.1c0,0,0,0,0,0c0,0,0,0,0,0c0,0,0,0,0,0
		c0,0,0,0,0,0.1c0,0,0,0-0.1,0.1c0,0,0,0,0,0c0,0-0.1,0.1-0.1,0.1c0,0,0,0-0.1,0.1c0,0,0,0,0,0c0,0,0,0-0.1,0.1c0,0-0.1,0-0.1,0.1
		c0,0,0,0-0.1,0l0,0c0,0,0,0-0.1,0c0,0,0,0,0,0l0,0c0,0,0,0,0,0v0c0,0,0,0,0,0c0,0,0,0,0,0c0,0,0,0,0,0c0,0,0,0,0,0c0,0,0,0,0,0
		c0,0,0,0,0,0c0,0,0,0,0,0c0,0,0,0,0,0c0,0,0,0,0,0c0,0,0,0-0.1,0c0,0,0,0-0.1,0c0,0,0,0,0,0c0,0,0,0,0,0c0,0,0,0,0,0l0,0
		c0,0,0,0,0,0c0,0,0,0,0,0c0,0,0,0,0,0c0,0,0,0,0,0c0,0,0,0,0,0c0,0,0,0,0,0c0,0,0,0,0,0c0,0,0,0,0,0c0,0,0,0-0.1,0c0,0,0,0,0,0
		c0,0-0.1,0-0.1,0c0,0,0,0,0,0c0,0,0,0,0,0c0,0,0,0,0,0c0,0-0.1,0-0.1,0c0,0-0.1,0-0.1,0c-0.1,0-0.2,0-0.3,0c0,0-0.1,0-0.1,0
		c-0.1,0-0.2,0-0.2-0.1c0,0-0.1,0-0.1,0c0,0,0,0,0,0c-0.1,0-0.1-0.1-0.2-0.1c0,0,0,0-0.1,0c0,0,0,0-0.1-0.1
		c-0.1-0.1-0.2-0.2-0.3-0.3c0,0-0.1-0.1-0.1-0.1v0c-0.1-0.2-0.2-0.4-0.3-0.6c0,0,0-0.1,0-0.1c0-0.2,0-0.4,0-0.6c0,0,0,0,0,0
		c0,0,0,0,0-0.1c0-0.2,0.1-0.4,0.2-0.5v0c0.1-0.2,0.3-0.4,0.5-0.6c0,0,0,0,0.1-0.1c0,0,0,0,0.1-0.1h0c0.1-0.1,0.2-0.1,0.4-0.2
		c0,0,0.1,0,0.1,0c0,0,0,0,0,0c0,0,0.1,0,0.1,0h0c0.1,0,0.1,0,0.2,0c0,0,0.1,0,0.1,0c0,0,0,0,0,0c0,0,0.1,0,0.1,0c0.1,0,0.2,0,0.2,0
		c0,0,0,0,0,0c0,0,0.1,0,0.1,0c0,0,0,0,0.1,0c0.1,0,0.2,0,0.3,0.1c0,0,0,0,0,0c0.1,0,0.1,0.1,0.2,0.1c0,0,0.1,0,0.1,0.1
		c0.1,0,0.1,0.1,0.2,0.1c0,0,0.1,0,0.1,0.1c0,0,0,0,0.1,0.1c0,0,0,0,0.1,0.1c0,0,0,0,0.1,0.1c0,0,0,0,0,0.1c0,0,0,0,0,0.1
		c0,0,0,0,0,0h0v0c0,0,0,0.1,0.1,0.1c0,0.1,0.1,0.2,0.1,0.2c0,0.1,0.1,0.2,0.1,0.2c0,0,0,0,0,0.1c0,0,0,0,0,0.1v0c0,0,0,0.1,0,0.1
		c0,0,0,0.1,0,0.1c0,0,0,0,0,0.1c0,0,0,0.1,0,0.1c0,0,0,0,0,0c0,0,0,0,0,0.1C469.2,318.3,469.2,318.4,469.1,318.6
		C469.2,318.6,469.2,318.6,469.1,318.6"/>
	<path clip-path="url(#SVGID_24_)" fill="#595858" d="M469.6,318.6c0,0.2-0.1,0.3-0.1,0.5c-0.1,0.2-0.2,0.4-0.3,0.5l-0.1-0.1
		c0.2-0.3,0.3-0.6,0.4-1c0-0.1,0-0.2,0-0.3c0-0.1,0-0.2,0-0.2c0,0,0-0.1,0-0.1c0-0.1,0-0.1,0-0.2c-0.1-0.3-0.2-0.7-0.4-0.9l0,0
		c0,0,0,0,0-0.1c0,0,0,0-0.1-0.1c-0.1-0.1-0.1-0.1-0.2-0.2c-0.1-0.1-0.3-0.2-0.5-0.3c0,0,0,0,0,0c-0.1-0.1-0.3-0.1-0.5-0.2
		c0,0,0,0-0.1,0c-0.1,0-0.3,0-0.4,0l0-0.1c0.1,0,0.3,0,0.4,0c0,0,0,0,0.1,0c0.3,0.1,0.6,0.2,0.8,0.3c0,0,0.1,0.1,0.1,0.1
		c0.1,0.1,0.2,0.1,0.2,0.2c0,0,0,0,0,0c0,0,0.1,0.1,0.1,0.1l0,0c0.2,0.3,0.4,0.7,0.5,1.1c0,0.1,0,0.1,0,0.2c0,0,0,0.1,0,0.1
		c0,0,0,0,0,0c0,0.1,0,0.2,0,0.2C469.6,318.4,469.6,318.5,469.6,318.6"/>
	<path clip-path="url(#SVGID_24_)" fill="#595858" d="M469.2,318.2C469.2,318.2,469.2,318.2,469.2,318.2
		C469.2,318.2,469.2,318.2,469.2,318.2c0-0.1,0-0.1,0-0.2c0,0,0,0,0-0.1c0,0,0-0.1,0-0.1c0,0,0-0.1,0-0.1v0c0,0,0,0,0-0.1
		c0,0,0,0,0-0.1c0-0.1-0.1-0.2-0.1-0.2c0-0.1-0.1-0.2-0.1-0.2c0,0,0-0.1-0.1-0.1l0,0h0c0,0,0,0,0,0c0,0,0,0,0-0.1c0,0,0,0,0-0.1
		c0,0,0,0-0.1-0.1c0,0,0,0,0-0.1c0,0,0,0-0.1-0.1c0,0-0.1,0-0.1-0.1c-0.1,0-0.1-0.1-0.2-0.1c0,0-0.1,0-0.1-0.1
		c-0.1,0-0.1-0.1-0.2-0.1c0,0,0,0,0,0c-0.1,0-0.2-0.1-0.3-0.1c0,0,0,0-0.1,0c0,0-0.1,0-0.1,0c0,0,0,0,0,0c-0.1,0-0.2,0-0.2,0
		c0,0-0.1,0-0.1,0c0,0,0,0,0,0c0,0-0.1,0-0.1,0c-0.1,0-0.1,0-0.2,0h0c0,0-0.1,0-0.1,0c0,0,0,0,0,0c0,0-0.1,0-0.1,0
		c-0.1,0-0.2,0.1-0.4,0.2h0c0,0,0,0-0.1,0.1c0,0,0,0-0.1,0.1c-0.2,0.2-0.3,0.3-0.5,0.6v0c-0.1,0.2-0.2,0.3-0.2,0.5c0,0,0,0,0,0.1
		c0,0,0,0,0,0c0,0.2,0,0.4,0,0.6c0,0,0,0.1,0,0.1c0,0.2,0.1,0.4,0.3,0.6v0c0,0.1,0.1,0.1,0.1,0.1c0.1,0.1,0.2,0.2,0.3,0.3
		c0,0,0,0,0.1,0.1c0,0,0,0,0.1,0c0.1,0,0.1,0.1,0.2,0.1c0,0,0,0,0,0c0,0,0.1,0,0.1,0c0.1,0,0.2,0.1,0.2,0.1c0,0,0.1,0,0.1,0
		c0.1,0,0.2,0,0.3,0c0,0,0.1,0,0.1,0c0,0,0.1,0,0.1,0c0,0,0,0,0,0c0,0,0,0,0,0c0,0,0,0,0,0v0c0,0,0,0,0,0c0,0,0,0,0.1,0c0,0,0,0,0,0
		c0,0,0,0,0,0c0,0,0,0,0,0c0,0,0,0,0,0c0,0,0,0,0,0c0,0,0,0,0.1,0c0,0,0,0,0,0c0,0,0,0,0,0c0,0,0,0,0,0c0,0,0,0,0,0c0,0,0,0,0,0h0
		c0,0,0,0,0,0c0,0,0,0,0,0c0,0,0,0,0,0c0,0,0,0,0.1,0s0,0,0.1,0c0,0,0,0,0,0c0,0,0,0,0,0c0,0,0,0,0,0c0,0,0,0,0,0c0,0,0,0,0,0
		c0,0,0,0,0,0c0,0,0,0,0,0c0,0,0,0,0,0c0,0,0,0,0,0c0,0,0,0,0,0c0,0,0,0,0,0c0,0,0,0,0,0l0,0c0,0,0,0,0,0c0,0,0,0,0.1,0l0,0
		c0,0,0,0,0,0c0,0,0,0,0,0c0,0,0.1,0,0.1-0.1c0,0,0,0,0.1-0.1c0,0,0,0,0,0c0,0,0,0,0.1-0.1c0,0,0,0,0,0c0,0,0-0.1,0.1-0.1
		c0,0,0,0,0,0c0,0,0,0,0,0c0,0,0,0,0.1-0.1c0,0,0,0,0-0.1c0,0,0,0,0,0c0,0,0,0,0,0c0,0,0,0,0,0c0,0,0,0,0,0c0,0,0,0,0,0c0,0,0,0,0,0
		c0,0,0,0,0,0c0,0,0,0,0-0.1v0c0,0,0,0,0,0c0,0,0,0,0-0.1c0,0,0,0,0,0c0,0,0,0,0,0c0,0,0,0,0-0.1c0,0,0,0,0-0.1c0,0,0-0.1,0-0.1
		C469.2,318.4,469.2,318.3,469.2,318.2 M468.8,319.3L468.8,319.3c-0.1,0.2-0.3,0.4-0.6,0.5c-0.1,0-0.2,0.1-0.2,0.1h0
		c-0.1,0.1-0.2,0.1-0.3,0.1c0,0,0,0,0,0c0,0,0,0-0.1,0v0c-0.1,0-0.2,0-0.2,0c-0.1,0-0.2,0-0.4,0c0,0-0.1,0-0.1,0
		c-0.1,0-0.2,0-0.2-0.1c0,0-0.1,0-0.1,0c0,0-0.1,0-0.1-0.1c0,0-0.1-0.1-0.1-0.1c-0.2-0.1-0.4-0.3-0.5-0.5l0,0
		c-0.1-0.2-0.2-0.4-0.2-0.6c0,0,0-0.1,0-0.1c0-0.2,0-0.4,0-0.6l0,0c0,0,0-0.1,0-0.1c0-0.2,0.1-0.4,0.2-0.5v0
		c0.1-0.2,0.3-0.4,0.5-0.5c0.1-0.1,0.2-0.1,0.3-0.2c0,0,0.1,0,0.1,0c0.1,0,0.2-0.1,0.2-0.1h0c0.1,0,0.1,0,0.2,0c0.1,0,0.1,0,0.2,0
		c0,0,0.1,0,0.1,0c0.1,0,0.2,0,0.2,0c0,0,0.1,0,0.1,0c0,0,0,0,0.1,0c0.1,0,0.2,0.1,0.3,0.1c0,0,0.1,0,0.1,0c0,0,0.1,0,0.1,0.1
		c0.2,0.1,0.3,0.2,0.4,0.3c0,0,0.1,0.1,0.1,0.1c0,0,0,0.1,0.1,0.1h0c0,0,0,0,0,0c0,0,0,0.1,0.1,0.1c0.1,0.1,0.1,0.3,0.2,0.4
		c0,0,0,0.1,0,0.1c0,0,0,0,0,0.1c0,0,0,0.1,0,0.1c0,0.1,0,0.2,0,0.3c0,0.1,0,0.2,0,0.3l0,0C469.1,318.8,469,319.1,468.8,319.3"/>
	<path clip-path="url(#SVGID_24_)" fill="#595858" d="M476.7,318.4c-0.1-0.1-0.1-0.2-0.2-0.3c-0.2-0.2-0.4-0.4-0.7-0.5h0
		c-0.1,0-0.1-0.1-0.2-0.1c-0.1,0-0.3-0.1-0.4-0.1c-0.4-0.1-0.8,0-1.1,0.1c-0.1,0-0.1,0-0.2,0.1c-0.4,0.2-0.8,0.5-1,1v0
		c0,0,0,0.1-0.1,0.1c0,0.1-0.1,0.2-0.1,0.3c0,0.1,0,0.1,0,0.2c0,0.2,0,0.4,0,0.7c0,0,0,0,0,0c0,0.2,0.1,0.4,0.2,0.6
		c0.3,0.6,0.8,1.1,1.5,1.3l0,0c1.1,0.2,2.3-0.6,2.5-1.8v0C477.1,319.4,477,318.8,476.7,318.4 M476.8,319.9c-0.2,1.1-1.2,1.8-2.3,1.6
		c0,0,0,0,0,0c-0.6-0.1-1.2-0.6-1.4-1.1c-0.1-0.2-0.1-0.3-0.1-0.5c0,0,0,0,0,0c0-0.2,0-0.4,0-0.7c0-0.1,0-0.1,0-0.2c0,0,0,0,0-0.1v0
		c0-0.1,0.1-0.2,0.2-0.4v0c0.2-0.4,0.5-0.7,0.9-0.9c0,0,0.1,0,0.1-0.1c0.3-0.1,0.7-0.2,1-0.1c0.1,0,0.2,0.1,0.3,0.1
		c0.1,0,0.1,0,0.2,0.1l0,0c0.3,0.1,0.5,0.3,0.7,0.6c0,0,0,0,0,0C476.8,318.8,476.9,319.4,476.8,319.9L476.8,319.9z"/>
	<path clip-path="url(#SVGID_24_)" fill="#595858" d="M476.5,318.4C476.5,318.4,476.5,318.4,476.5,318.4c-0.2-0.3-0.4-0.5-0.7-0.6h0
		c-0.1,0-0.1-0.1-0.2-0.1c-0.1,0-0.2-0.1-0.3-0.1c-0.4-0.1-0.7,0-1,0.1c-0.1,0-0.1,0-0.1,0.1c-0.4,0.2-0.7,0.5-0.9,0.9v0
		c-0.1,0.1-0.1,0.2-0.2,0.4v0c0,0,0,0,0,0.1c0,0.1,0,0.1,0,0.2c0,0.2,0,0.4,0,0.7c0,0,0,0,0,0c0,0.2,0.1,0.3,0.1,0.5
		c0.3,0.6,0.8,1,1.4,1.1c0,0,0,0,0,0c1.1,0.2,2.1-0.5,2.3-1.6l0,0C476.9,319.4,476.8,318.8,476.5,318.4 M476.7,320
		c-0.1,0.3-0.2,0.5-0.3,0.7c-0.2,0.2-0.3,0.4-0.6,0.6c-0.2,0.1-0.4,0.2-0.7,0.3c-0.2,0-0.4,0-0.6,0c0,0,0,0,0,0c0,0-0.1,0-0.1,0
		c-0.2-0.1-0.4-0.2-0.6-0.3c-0.2-0.1-0.4-0.3-0.5-0.5c0-0.1-0.1-0.1-0.1-0.2c-0.1-0.1-0.1-0.3-0.1-0.4c0,0,0,0,0,0c0,0,0,0,0-0.1v0
		c0-0.2,0-0.4,0-0.6c0,0,0,0,0,0c0,0,0-0.1,0-0.1v0c0,0,0-0.1,0-0.1c0-0.1,0.1-0.3,0.2-0.4c0,0,0,0,0,0l0,0c0.1-0.2,0.3-0.4,0.5-0.6
		c0.1-0.1,0.2-0.2,0.4-0.2c0,0,0.1,0,0.1-0.1c0,0,0.1,0,0.1,0c0.2-0.1,0.5-0.1,0.7-0.1c0,0,0.1,0,0.1,0c0.1,0,0.2,0,0.3,0.1l0,0
		c0.1,0,0.1,0,0.2,0.1c0,0,0.1,0,0.1,0.1c0.2,0.1,0.4,0.3,0.6,0.5c0.2,0.2,0.3,0.4,0.3,0.7C476.8,319.4,476.8,319.6,476.7,320
		L476.7,320z"/>
	<path clip-path="url(#SVGID_24_)" fill="#595858" d="M477.2,320L477.2,320l-0.1,0l0,0c0.1-0.5,0-1.1-0.2-1.5
		c-0.1-0.1-0.2-0.3-0.3-0.4c-0.1-0.1-0.2-0.2-0.4-0.3c-0.1-0.1-0.2-0.1-0.3-0.2c-0.1,0-0.1-0.1-0.2-0.1c0,0,0,0,0,0
		c-0.3-0.1-0.5-0.2-0.8-0.1c-0.3,0-0.5,0.1-0.7,0.1c-0.1,0-0.1,0-0.2,0.1c-0.3,0.2-0.6,0.4-0.9,0.8c-0.1,0.1-0.1,0.2-0.2,0.3
		c0,0,0,0,0,0c-0.1,0.1-0.1,0.3-0.2,0.4c0,0.1,0,0.2,0,0.2l-0.1,0c0-0.1,0-0.2,0.1-0.3c0-0.1,0.1-0.3,0.2-0.4c0,0,0-0.1,0.1-0.1
		c0-0.1,0.1-0.1,0.1-0.2c0.2-0.4,0.6-0.6,0.9-0.8c0,0,0.1,0,0.2-0.1c0.1-0.1,0.3-0.1,0.4-0.1c0.1,0,0.2,0,0.2,0h0
		c0.4,0,0.7,0,1.1,0.2c0,0,0,0,0.1,0c0,0,0.1,0,0.1,0c0,0,0.1,0,0.1,0.1c0,0,0.1,0.1,0.1,0.1c0.1,0.1,0.2,0.2,0.3,0.3
		c0.2,0.2,0.3,0.4,0.4,0.6C477.2,318.9,477.3,319.5,477.2,320"/>
	<path clip-path="url(#SVGID_24_)" fill="#595858" d="M476.7,319.1c-0.1-0.3-0.2-0.5-0.3-0.7c-0.2-0.2-0.4-0.4-0.6-0.5
		c0,0-0.1,0-0.1-0.1c-0.1,0-0.1,0-0.2-0.1h0c-0.1,0-0.2-0.1-0.3-0.1c0,0-0.1,0-0.1,0c-0.3,0-0.5,0-0.7,0.1c0,0-0.1,0-0.1,0
		c-0.1,0-0.1,0-0.1,0.1c-0.1,0.1-0.3,0.1-0.4,0.2c-0.2,0.2-0.3,0.3-0.5,0.6v0c0,0,0,0,0,0c-0.1,0.1-0.1,0.3-0.2,0.4c0,0,0,0.1,0,0.1
		v0c0,0,0,0.1,0,0.1c0,0,0,0,0,0c0,0.2,0,0.4,0,0.6l0,0c0,0,0,0,0,0.1c0,0,0,0,0,0c0,0.1,0.1,0.3,0.1,0.4c0,0.1,0.1,0.2,0.1,0.2
		c0.1,0.2,0.3,0.4,0.5,0.5c0.2,0.1,0.4,0.2,0.6,0.3c0,0,0.1,0,0.1,0c0,0,0,0,0,0c0.2,0,0.4,0,0.6,0c0.2,0,0.5-0.1,0.7-0.3
		c0.2-0.1,0.4-0.3,0.6-0.6c0.1-0.2,0.2-0.5,0.3-0.7l0,0C476.8,319.6,476.8,319.4,476.7,319.1 M476.4,320.7L476.4,320.7L476.4,320.7
		c-0.1,0.2-0.3,0.4-0.6,0.5c-0.2,0.1-0.4,0.2-0.7,0.3h0c-0.2,0-0.4,0-0.6,0l0,0c0,0-0.1,0-0.1,0c-0.2-0.1-0.4-0.2-0.6-0.3
		c-0.2-0.1-0.4-0.3-0.5-0.5c0-0.1-0.1-0.1-0.1-0.2c-0.1-0.1-0.1-0.3-0.1-0.4c0,0,0,0,0,0c0,0,0,0,0-0.1v0c0-0.2,0-0.4,0-0.6l0-0.1
		c0-0.1,0-0.1,0-0.2c0-0.1,0.1-0.3,0.2-0.4c0,0,0,0,0,0v0c0.1-0.2,0.3-0.4,0.5-0.5c0.1-0.1,0.2-0.2,0.4-0.2c0,0,0.1,0,0.1-0.1
		c0,0,0.1,0,0.1,0c0.2-0.1,0.5-0.1,0.7-0.1c0,0,0.1,0,0.1,0c0.1,0,0.2,0,0.3,0.1c0.1,0,0.1,0,0.2,0.1c0,0,0.1,0,0.1,0.1
		c0.2,0.1,0.4,0.3,0.6,0.5c0.1,0.2,0.3,0.4,0.3,0.7c0.1,0.2,0.1,0.5,0,0.8l0,0C476.7,320.2,476.6,320.4,476.4,320.7"/>
	<path clip-path="url(#SVGID_24_)" fill="#595858" d="M470.2,314.6l0,0.3l0.9,0.2c0,0,0.4-0.1,0.1-0.3L470.2,314.6z"/>
	<path clip-path="url(#SVGID_24_)" fill="#595858" d="M475.6,319.8c0,0.1-0.1,0.2-0.1,0.2s0,0-0.1,0.1c-0.1,0-0.2,0.1-0.3,0.1
		c-0.1,0-0.1,0-0.2,0c0,0-0.1,0-0.2,0c-0.1,0-0.1,0-0.2,0c-0.1,0-0.2,0-0.3,0c-0.2,0-0.5-0.1-0.8-0.1c0,0,0,0,0,0
		c-0.1,0-0.2,0-0.3,0c0,0,0,0,0,0c0,0-0.1,0-0.1,0c-0.1,0-0.1,0-0.2,0c-0.1,0-0.3,0-0.4,0c-0.2,0-0.4,0-0.6-0.1c-0.1,0-0.3,0-0.4,0
		c-0.1,0-0.1,0-0.2,0c-0.1,0-0.1-0.1-0.2-0.1c-0.2-0.1-0.3-0.2-0.4-0.4c0-0.1,0-0.1-0.1-0.2c0-0.1,0-0.1-0.1-0.2
		c0-0.1,0.1-0.3,0.2-0.4c0,0,0.1-0.1,0.1-0.1c0,0,0.1-0.1,0.1-0.1c0,0,0.1,0,0.1-0.1c0,0,0,0,0.1,0c0.1,0,0.3,0,0.6,0.1c0,0,0,0,0,0
		c0,0,0.1,0,0.1,0c0.1,0,0.3,0.1,0.5,0.1c0.1,0,0.1,0,0.2,0c0.1,0,0.1,0,0.2,0c0,0,0.1,0,0.1,0l0,0c0,0,0.1,0,0.1,0
		c0.1,0,0.1,0,0.2,0c0,0,0.1,0,0.1,0c0,0,0,0,0,0c0.3,0.1,0.7,0.2,1,0.2c0.1,0,0.2,0.1,0.3,0.1c0,0,0.1,0,0.1,0c0,0,0,0,0,0
		c0,0,0,0,0.1,0c0,0,0,0,0.1,0c0.1,0,0.1,0,0.2,0c0,0,0,0,0,0s0.1,0,0.2,0.1c0.1,0,0.2,0.1,0.2,0.2c0,0,0,0,0,0.1
		C475.6,319.5,475.7,319.6,475.6,319.8C475.6,319.7,475.6,319.7,475.6,319.8"/>
	<path clip-path="url(#SVGID_24_)" fill="#595858" d="M471.7,319c0,0.2-0.2,0.3-0.4,0.3c-0.2,0-0.3-0.2-0.3-0.4
		c0-0.2,0.2-0.3,0.4-0.3C471.6,318.6,471.7,318.8,471.7,319"/>
</g>
<path fill="#595858" d="M473.4,321.2L473.4,321.2l0.1-0.8L473.4,321.2z M473.5,320.5l0.2-1.1v0v0l0.3-1.9l0,0L473.5,320.5z"/>
<path fill="#595858" d="M475.6,319.8L475.6,319.8l-0.4-0.1L475.6,319.8z M475.2,319.7l-1.5-0.3h0h0l-1-0.2L475.2,319.7z M472,319.1
	l0.7,0.1L472,319.1L472,319.1z"/>
<polygon fill="#595858" points="474.8,321 474.8,321 473.7,319.4 473.7,319.4 472.7,317.9 472.7,317.9 "/>
<polygon fill="#595858" points="475.3,318.2 475.3,318.3 473.7,319.4 473.7,319.4 473.7,319.4 472.3,320.4 472.3,320.4 "/>
<path fill="#595858" d="M474.1,321.3L474.1,321.3l-0.2-0.7L474.1,321.3z M473.7,319.4l0.2,1.1L473.7,319.4L473.7,319.4z
	 M473.7,319.4L473.7,319.4l0-0.2L473.7,319.4z M473.7,319.2l-0.4-1.6l0,0L473.7,319.2z"/>
<path fill="#595858" d="M472,319.8L472,319.8l0.4-0.1L472,319.8z M475.6,318.9l-1.9,0.5h0h0l-1.3,0.3L475.6,318.9L475.6,318.9z"/>
<polygon fill="#595858" points="475.4,320.5 475.3,320.5 473.7,319.4 473.7,319.4 472.2,318.5 472.2,318.4 "/>
<polygon fill="#595858" points="474.8,317.7 474.7,317.7 473.7,319.4 473.7,319.4 473.7,319.4 472.8,320.9 472.8,321 "/>
<path fill="#595858" d="M465.8,319.9L465.8,319.9l0.3-1.7L465.8,319.9z M466.1,318L466.1,318l0,0.1L466.1,318z M466.1,318L466.1,318
	l0.2-0.9L466.1,318z M466.5,316.1l-0.2,1L466.5,316.1L466.5,316.1z"/>
<path fill="#595858" d="M468.1,318.4L468.1,318.4l-0.3,0L468.1,318.4z M466.1,318l1.7,0.3L466.1,318z M466.1,318L466.1,318
	L466.1,318l-1.7-0.3l0,0L466.1,318z"/>
<polygon fill="#595858" points="467.2,319.6 467.2,319.6 466.1,318 466.1,318 465.1,316.5 465.1,316.5 "/>
<polygon fill="#595858" points="467.8,316.9 467.7,316.9 466.1,318 466.1,318 466.1,318 464.7,319 464.7,319.1 "/>
<path fill="#595858" d="M466.1,318l0.4,1.9l0,0L466.1,318z M466.1,318L466.1,318L466.1,318l-0.2-1L466.1,318z M465.7,316.2l0.2,0.8
	L465.7,316.2L465.7,316.2z"/>
<path fill="#595858" d="M466.1,318L466.1,318L466.1,318L466.1,318L466.1,318z M466.1,318l-1.7,0.4l0,0L466.1,318L466.1,318
	L466.1,318z M468,317.6l-1.9,0.5L468,317.6L468,317.6z"/>
<polygon fill="#595858" points="467.8,319.1 467.8,319.1 466.1,318 466.1,318 466.1,318 464.7,317.1 464.6,317.1 "/>
<polygon fill="#595858" points="467.2,316.3 467.2,316.4 466.1,318 466.1,318 466.1,318 465.2,319.6 465.2,319.6 "/>
<g>
	<defs>
		<rect id="SVGID_25_" x="302.5" y="199.8" width="266.9" height="208.1"/>
	</defs>
	<clipPath id="SVGID_26_">
		<use xlink:href="#SVGID_25_"  overflow="visible"/>
	</clipPath>
	<path clip-path="url(#SVGID_26_)" fill="#595858" d="M475.1,316c0,0.1-0.1,0-0.3,0c0,0-0.1,0-0.1,0c-0.1,0-0.2,0-0.3,0.1
		c0,0-0.1,0-0.1,0c-0.1,0-0.2,0-0.2,0c0,0-0.1,0-0.1,0c-0.1,0-0.3,0.3-0.5,0.5c0,0-0.1,0.1-0.1,0.1c0,0-0.1,0.1-0.1,0.1
		c0,0,0,0.1-0.1,0.1c-0.1,0.2-0.3,0.6-0.3,0.7c0,0,0,0.1,0,0.3c0,0.1,0,0.2,0,0.3c0,0.1,0,0.2,0,0.2c0,0.1,0,0.1,0,0.2c0,0,0,0,0,0
		v0c0,0,0,0.1,0,0.1c0,0.1,0,0.2,0.1,0.3v0c0,0,0,0,0,0.1c0,0,0,0.1,0,0.1v0c0,0,0,0.1,0,0.1c0,0,0,0,0,0c0,0,0,0,0,0
		c0,0.1,0.1,0.4,0.2,0.6c0,0,0,0,0,0c0.1,0.2,0.1,0.3,0.1,0.4c0,0-0.1,0.1-0.2,0.1c0,0,0,0,0,0c0,0-0.1,0-0.1,0c-0.1,0-0.1,0-0.2,0
		c-0.1,0-0.2,0-0.2,0c-0.1,0-0.4,0.3-0.5,0.3c-0.2,0-0.1-0.3-0.1-0.3c0.2-0.2,0.3-0.6,0.3-0.6s0,0,0,0c0-0.1-0.1-0.8-0.2-0.8
		c0,0-0.3,0-0.3,0c-0.1,0-0.2,0.1-0.3,0.1c-0.5,0.1-0.5-0.2-0.5-0.2c0-0.1,0.1-0.2,0.2-0.2c0,0,0.1,0,0.1-0.1c0,0,0,0,0,0
		s0.2-0.2,0.4-0.2c0,0,0,0,0,0c0,0,0,0,0,0c0,0,0,0,0,0c0.1,0,0.1-0.2,0.1-0.2l-0.1-0.1l0,0c0-0.4-0.3-1.3-0.5-1.8c0,0,0-0.1,0-0.1
		c0-0.1,0-0.1-0.1-0.2c0-0.1-0.1-0.2-0.1-0.2c0-0.1,0-0.2,0-0.2c0,0,0,0,0,0c-0.1,0-0.3-0.3-0.3-0.3s-0.1-0.1-0.3,0
		c-0.1,0-0.2-0.1-0.3-0.2c0,0,0,0,0-0.1c0,0,0-0.1,0-0.1c0,0,0-0.1,0-0.1c0,0,0,0,0.1-0.1c0.1-0.1,0.3-0.1,0.3-0.1l0.1-0.1l0.4,0
		c0,0,0.3-0.1,0.6-0.3c0.3-0.2,0.7-0.4,0.8-0.5c0.2-0.2,0.6-1.2,0.6-1.4c0-0.1,0-0.3,0-0.4c0-0.1-0.1-0.1,0-0.2
		c0-0.1,0.1-0.2,0.1-0.3c0-0.1-0.3-0.1-0.4-0.1c-0.1,0-0.1-0.1-0.1-0.2c0-0.1,0-0.2,0-0.2c0,0,0-0.1,0-0.1c0,0-0.1,0-0.1-0.1
		c0,0,0-0.1,0.1-0.2c0-0.1,0.1-0.2,0.1-0.2s-0.1-0.3,0-0.4c0-0.1,0.2-0.3,0.3-0.3c0,0,0,0,0.1,0c0.1-0.1,0.1,0,0.1,0
		c0,0,0.1,0,0.1,0c0,0,0.2-0.1,0.4,0c0.1,0,0.1,0,0.2,0c0.1,0,0.1,0.1,0.2,0.2c0.1,0.1,0.1,0.3,0.2,0.4c0,0.1-0.1,0.5-0.1,0.6
		c-0.1,0.1-0.1,0.3-0.1,0.3c0,0.1,0.7,0.7,0.9,1c0,0,0,0,0,0c0,0,0,0,0,0c0,0,0,0.1,0.1,0.1c0.1,0.2,0.2,0.6,0.2,0.7
		c0,0.1,0.1,0.2,0.1,0.5c0,0,0,0,0,0.1v0c0,0.1,0,0.1,0,0.2c0,0.2,0.1,0.3,0.1,0.5c0,0,0,0.1,0,0.1c0,0.1,0,0.3,0,0.5
		c0,0,0,0.1,0,0.1c0,0,0,0,0,0c0,0.1,0,0.1,0,0.2c0,0.3-0.1,0.6-0.1,0.6S475.1,315.9,475.1,316"/>
</g>
<polygon fill="#F3E600" points="306.7,273.1 306.7,298.1 406.9,214.2 376.9,214.2 "/>
<text transform="matrix(0.766 -0.6428 0.6428 0.766 317.5291 282.7454)" font-family="'ArialMT'" font-size="12.0993">COMING SOON</text>
</svg>
