<?xml version="1.0" encoding="utf-8"?>
<!-- Generator: Adobe Illustrator 18.1.1, SVG Export Plug-In . SVG Version: 6.00 Build 0)  -->
<svg version="1.1" id="Livello_1" xmlns="http://www.w3.org/2000/svg" xmlns:xlink="http://www.w3.org/1999/xlink" x="0px" y="0px"
	 viewBox="0 0 841.9 595.3" enable-background="new 0 0 841.9 595.3" xml:space="preserve">
<rect x="304.2" y="209.7" fill="#FBFBFB" width="262.8" height="193.7"/>
<g>
	<defs>
		<rect id="SVGID_1_" x="304.2" y="209.7" width="262.8" height="193.7"/>
	</defs>
	<clipPath id="SVGID_2_">
		<use xlink:href="#SVGID_1_"  overflow="visible"/>
	</clipPath>
	<path clip-path="url(#SVGID_2_)" fill="#C5C5C5" d="M306.9,311.6c0,0-78.1,87.7,279.4,112.1l18-93.7
		C604.3,330.1,400,250.6,306.9,311.6"/>
	<path clip-path="url(#SVGID_2_)" fill="#89CCCA" d="M480.7,319.7c4.4,0.7,7.3,9.5,11.2,12.1c3.9,2.6,8.7,3.7,12.7,1.6
		c5.5-2.9,9.1-11.1,15.1-11.8c2.3-0.3,4.7,0.7,6.9,1.8c2.9,1.5,5.7,3.1,8.4,5c1.4,1,2.8,2,3.7,3.7c0.9,1.6,1.2,3.6,1.5,5.5
		c1.5,9.7,2.9,19.4,4.4,29.1c0.2,1.5,0.4,3.1-0.1,4.4c-0.6,1.3-1.7,1.9-2.8,2.4c-13.7,6.5-28.4,9.9-43,9.9
		c-19,1.2-36.6-0.5-55.6-2.7c-0.4-8.8-0.6-14.1,0-22.5c0.3-4-2.7-23.2,10.2-28.1C470.7,323.5,477.2,319.2,480.7,319.7"/>
	<path clip-path="url(#SVGID_2_)" fill="#FFFFFF" d="M480.1,321.8c4.2,1.1,6.1,7.6,9,10.5c3.3,3.3,8.9,5.2,13.6,4.1
		c5.1-1.2,8.2-5.5,11.6-9c2.4-2.4,4.7-4.2,8.3-3.3c3.3,0.9,6.6,3.2,9.5,5.1c4.1,2.7,5.4,5.2,6.1,10c0.6,3.8,1.1,7.5,1.7,11.3
		c0.6,3.8,1.1,7.5,1.7,11.3c0.3,1.7,0.5,3.4,0.8,5.1c0.4,3.1-1.2,4.7-4,5.9c-14.2,6.3-28.6,8.2-43.9,8.9
		c-17.2,0.7-34.4-0.9-51.4-2.9c0.7,0.7,1.4,1.4,2.1,2.1c-0.3-8.2,0.2-16.4,0-24.6c-0.1-5.5-0.4-11.3,1.7-16.6
		c3.2-8,12.8-9.6,20-12.8c3.8-1.6,9.5-5.5,13.8-5c2.7,0.3,2.7-3.9,0-4.2c-4.7-0.5-10.4,3.2-14.4,4.9c-7.7,3.3-17.9,5.2-22.3,13.1
		c-3.1,5.7-3.4,12.5-3.2,18.8c0.2,8.8-0.3,17.6,0.1,26.4c0.1,1.2,0.9,2,2.1,2.1c32.5,3.7,68.5,7.4,99-7.2c6.7-3.2,4.7-9.1,3.8-15.2
		c-1.3-8.5-2.1-17.2-3.9-25.6c-1.5-6.7-7.8-10.1-13.6-13c-5.3-2.8-10.2-3.5-15,0.6c-2.6,2.2-4.6,5-7.1,7.2c-4,3.5-9.5,3.4-13.6-0.1
		c-4.1-3.6-5.5-10.4-11.3-11.9C478.6,317,477.4,321.1,480.1,321.8"/>
	<path clip-path="url(#SVGID_2_)" fill="#6CA29A" d="M468.1,325.5c-6.7,3-14.5,4.6-17.9,10c-3.3,5.5-4.3,12-5.1,18.3
		c-0.4,3.2-0.9,6.5-1.3,9.7c-0.3,2.3-0.6,4.8,0.7,6.8c1,1.6,2.9,2.5,4.8,3.1c4.7,1.5,9.7,1.8,14.7,1.7c3.5-0.1,7.4-0.4,10-2.9
		c3-2.8,3.2-7.3,3.3-11.4c0.1-5.1,0.1-10.2,0.2-15.3c0.1-3.8,2.5-7.3,1.6-11c-0.9-3.7-5.1-7.7-8.2-9.9"/>
	<path clip-path="url(#SVGID_2_)" fill="#6CA29A" d="M481.1,319.6c-4.9,2.9-10.8,3.7-17,6.5c4.5,2.2,10.4,7.4,14.4,10.1
		c0.3,0.2,0.7,0.5,0.8,0.9c0,0.4-0.3,0.7-0.5,1c-2,2.1-3.9,4.2-5.9,6.2c-0.8,0.9-1.7,1.8-1.7,2.9c0,0.7,0.3,1.4,0.7,2
		c6,10.9,14.7,20.7,25.5,28.7c-0.4-20.5-14-37.8-15.4-58.2"/>
	<path clip-path="url(#SVGID_2_)" fill="#FFFFFF" d="M480.8,319.1c-5.3,2.9-11.4,4.1-17,6.5c-0.4,0.2-0.3,0.7,0,0.9
		c3,1.6,5.7,3.6,8.5,5.7c1.4,1,6.2,3.7,6.1,5.5c-0.1,0.9-3.3,3.4-3.9,4.2c-0.9,1-2.1,2-2.9,3.1c-0.8,1.3-1.1,2.1-0.7,3.6
		c0.7,2.8,3.3,5.7,4.9,8.1c1.9,2.8,4,5.4,6.2,7.9c4.5,5.2,9.6,9.8,15.1,13.9c0.3,0.2,0.8-0.1,0.8-0.5c-0.7-20.5-13.7-37.9-15.4-58.2
		c-0.1-0.7-1.1-0.7-1.1,0c1.1,12.6,6.4,23.9,10.6,35.6c1.1,3,2.1,6,2.9,9.1c0.3,1.3,0.7,2.6,0.9,4c0.3,1.7,1.6,5.1,0.9,6.6
		c0,0.5,0.1,0.9,0.1,1.4c-0.9-0.4-1.8-1-2.5-1.7c-1.4-1-2.6-2.2-3.9-3.4c-2.5-2.3-4.9-4.7-7.1-7.2c-2.3-2.6-4.5-5.4-6.5-8.2
		c-2.3-3.3-6-7.1-3.5-11.4c1.2-2,7.7-5.6,6.3-8.4c-0.7-1.3-3.4-2.5-4.5-3.3c-2.5-1.9-4.9-3.8-7.5-5.5c-1.8-1.1-3-0.9-0.1-2
		c1.9-0.7,3.9-1.3,5.9-2c2.8-0.9,5.5-1.9,8.1-3.3C481.9,319.7,481.4,318.8,480.8,319.1"/>
	<path clip-path="url(#SVGID_2_)" fill="#89CCCA" d="M473.9,270c-1.3-1.5-2.3-2.7-3-4.9c-1.6-5.8,0.3-12.5,0.3-12.5l0,0
		c1.2-3.6,1.9-7.5,1.9-11.5c0-20.1-16.4-36.3-36.6-36.3c-20.2,0-36.6,16.3-36.6,36.3c0,15.5,9.8,28.8,23.6,34l0,0c0,0,0.1,0,0.2,0.1
		c1.8,0.7,3.7,1.2,5.6,1.6c7.5,1.7,21.9,3.6,42,0.2C476.3,276.1,476.4,272.8,473.9,270 M443,249.3h-13.6c-1.3,0-2.4-1.1-2.4-2.4
		c0-1.3,1.1-2.4,2.4-2.4H443c1.3,0,2.4,1.1,2.4,2.4C445.5,248.2,444.4,249.3,443,249.3 M448.9,239.8h-19.4c-1.3,0-2.4-1.1-2.4-2.4
		c0-1.3,1.1-2.4,2.4-2.4h19.4c1.3,0,2.4,1.1,2.4,2.4S450.2,239.8,448.9,239.8"/>
	<path clip-path="url(#SVGID_2_)" fill="#89CCCA" d="M386.1,314.6c-1.3-1.5-2.3-2.7-3-4.9c-1.6-5.8,0.3-12.5,0.3-12.5l0,0
		c1.2-3.6,1.9-7.5,1.9-11.5c0-20.1-16.4-36.3-36.6-36.3c-20.2,0-36.6,16.3-36.6,36.3c0,15.5,9.8,28.8,23.6,34l0,0c0,0,0.1,0,0.2,0.1
		c1.8,0.7,3.7,1.2,5.6,1.6c7.5,1.7,21.9,3.6,42,0.2C388.5,320.7,388.6,317.4,386.1,314.6 M355.2,293.8h-13.6c-1.3,0-2.4-1.1-2.4-2.4
		c0-1.3,1.1-2.4,2.4-2.4h13.6c1.3,0,2.4,1.1,2.4,2.4C357.6,292.8,356.6,293.8,355.2,293.8 M361.1,284.4h-19.4
		c-1.3,0-2.4-1.1-2.4-2.4c0-1.3,1.1-2.4,2.4-2.4h19.4c1.3,0,2.4,1.1,2.4,2.4C363.5,283.3,362.4,284.4,361.1,284.4"/>
	<path clip-path="url(#SVGID_2_)" fill="#6CA29A" d="M402.4,393.2c6.3-6,12.9-13.3,8.9-32.3c0,0-22.8-3.8-29.1,8.8
		c-3.2,6.4-3.7,10.3-3.6,14.8C385.8,387.9,393.8,391,402.4,393.2"/>
	<path clip-path="url(#SVGID_2_)" fill="#FFFFFF" d="M402.7,394.1l-0.5-0.1c-8-2-16.1-5-24-8.8l-0.5-0.2l0-0.5
		c-0.1-4.7,0.4-8.7,3.7-15.2c4.1-8.1,14.4-9.8,22.3-9.8c4.4,0,7.5,0.5,7.7,0.5l0.6,0.1l0.1,0.6c4,18.8-2,26.4-9.1,33.1L402.7,394.1z
		 M379.5,383.9c7.5,3.6,15.1,6.4,22.7,8.3c6.5-6.2,11.9-13.4,8.4-30.6c-1.1-0.1-3.7-0.4-6.8-0.4c-7.5,0-17.1,1.5-20.8,8.8
		C380,375.9,379.4,379.6,379.5,383.9"/>
	<path clip-path="url(#SVGID_2_)" fill="#6CA29A" d="M478.9,390.9c0.1-0.1,0.1-0.1,0.3-0.1c11.2-2.8,20.4-6.4,27.9-10.2
		c-5.5-4-9.3-7.7-9.3-9.9c0-3.3-2.1-5.4-7.1-5.8c-5-0.4-3.8-3.8-3.8-3.8c-4.9-12.3-24.7-9.1-24.7-9.1c-22.8,0-22.8,22.5-22.8,22.5
		c-2,7.2-2,14.7-1,21.8C454,395.7,467.5,393.7,478.9,390.9"/>
	<path clip-path="url(#SVGID_2_)" fill="#FFFFFF" d="M437.6,397.1l-0.1-0.8c-1.1-8.3-0.8-15.5,1-22c0.1-1.8,1.1-23.2,23.5-23.2
		c0.4-0.1,2.6-0.4,5.5-0.4c6,0,16.5,1.3,20,10l0.1,0.3l-0.1,0.3c0,0-0.3,0.8,0.2,1.4c0.4,0.6,1.4,1,2.9,1.2c5.3,0.4,7.9,2.7,7.9,6.7
		c0,0.8,0.9,3.3,9,9.2l1.1,0.8l-1.2,0.6c-8.4,4.3-17.9,7.7-28.1,10.3l-0.3,0.1c-12.4,3.1-26.2,4.9-40.8,5.4L437.6,397.1z
		 M467.5,352.5c-3.1,0-5.3,0.3-5.3,0.3l-0.1,0c-21.6,0-21.9,20.7-21.9,21.6l0,0.2c-1.7,6.2-2.1,13-1.1,20.7
		c14.1-0.5,27.4-2.3,39.5-5.3c0.2-0.1,0.3-0.1,0.5-0.1c9.5-2.4,18.4-5.6,26.4-9.5c-8.6-6.5-8.6-8.9-8.6-9.7c0-1.9-0.7-4.5-6.4-5
		c-2.1-0.2-3.5-0.8-4.2-2c-0.6-1-0.5-2-0.4-2.6C482.6,353.6,473,352.5,467.5,352.5"/>
	<path clip-path="url(#SVGID_2_)" fill="#47474C" d="M452.1,307.8c0,14.4-13.3,26-29.8,26c-16.5,0-29.8-11.7-29.8-26
		c0-14.4,13.3-26.1,29.8-26.1C438.7,281.8,452.1,293.4,452.1,307.8"/>
	<path clip-path="url(#SVGID_2_)" fill="#FADACB" d="M442.6,321.7c0,13.9-9.1,25.1-20.2,25.1c-11.2,0-20.2-11.2-20.2-25.1
		s9.1-25.1,20.2-25.1C433.5,296.6,442.6,307.9,442.6,321.7"/>
	<path clip-path="url(#SVGID_2_)" fill="#FADACB" d="M428.7,328l17.5,38.9c0,0-6.1,3.5-19.8,8c-13.7,4.5-13.4-39.3-13.4-39.3
		L428.7,328z"/>
	<path clip-path="url(#SVGID_2_)" fill="#89CCCA" d="M459,394.2c0-24.5,4.4-56.7-1.9-35.3c0,0-1.2,3.2-3.3,7.8
		c0-0.6-0.1-0.7-0.2-0.4c-7.1,18.3-24.7,19-30.4,19.3c-7.2,0.4-9.2-14.3-10.7-13c-6.6,5.4-12.7,14.5-16.2,18.8
		c2.9,0.9,14.3,4.4,26,4.9c5.1,0.2,9.9,0.1,14.1-0.1C444.5,395.9,452.1,395.2,459,394.2"/>
	<path clip-path="url(#SVGID_2_)" fill="#FFFFFF" d="M428.5,397.3L428.5,397.3c-2.1,0-4.2,0-6.2-0.1c-7.8-0.3-17.1-2-26.2-4.9
		l-1.2-0.4l0.8-1c0.9-1,1.9-2.4,3-3.9c3.5-4.6,8.3-10.9,13.3-15.1c0.2-0.2,0.5-0.3,0.7-0.3c1.1,0,1.5,1.2,2.5,3.7
		c1.5,3.8,3.8,9.6,8,9.4l0.3,0c6.2-0.3,22.5-1.3,29.4-18.8c0.2-0.5,0.5-0.6,0.7-0.7c1.8-4,2.8-6.7,2.8-6.7c2.1-7.2,2.8-7.6,3.6-7.6
		c0.3,0,0.6,0.1,0.8,0.3c0.9,0.9,0.8,4.3,0.1,17.3c-0.4,7.6-1,17.1-0.9,25.5l0,0.7l-0.7,0.1c-7.2,1.1-14.9,1.7-22.8,2
		C433.8,397.2,431.1,397.3,428.5,397.3 M397.8,391c8.6,2.6,17.3,4.2,24.6,4.5c2,0.1,4.1,0.1,6.2,0.1c2.6,0,5.3-0.1,7.8-0.2
		c7.6-0.3,14.9-0.9,21.9-1.9c0-8.3,0.5-17.5,0.9-24.9c0.3-5.8,0.7-11.7,0.5-14.6c-0.4,1-0.9,2.5-1.7,5.1c0,0.1-1.2,3.3-3.3,7.9
		l-1.5,3.2l0-0.8c-7.9,15.7-24,16.6-29.6,16.9l-0.3,0c-5.4,0.3-8-6.2-9.7-10.5c-0.3-0.8-0.7-1.8-1-2.4c-4.7,4-9.3,10-12.6,14.4
		C399.2,389.1,398.4,390.1,397.8,391"/>
	<path clip-path="url(#SVGID_2_)" fill="#919185" d="M420.4,300c0,0-21.8-1.1-10,23.6c0,0,3.2,7.9-5-1.5c0,0-2.5,5.3,7.5,12.8
		c10,7.5,15.7,15,13.2,26.3c0,0-2.1-7.9-6.8-9c-4.6-1.1-8.2-2.6-10-7.9c0,0,10.4,22.1,7.2,33.4c0,0-6.1-13.5-15.4-19.1
		c-9.3-5.6-15-24.8-8.2-40.9s28.6-37.7,47.1-13.3c18.6,24.4,20.7,34.9,17.1,56.9c-2.6,15.8-9.3,24.7-17.9,28.8c0,0,5-7.1,5-13.9
		c0,0-4.6,3-8.9,4.9c0,0,6.4-6.4,3.9-16.9c0,0-2.1,8.3-10,10.1c0,0,9.3-11.3,4.3-21c-5-9.8-5-15,1.4-21.8c6.4-6.8,2.1-9.8-2.9-13.9
		C427.2,313.5,419.4,307.5,420.4,300"/>
	<path clip-path="url(#SVGID_2_)" fill="#FFFFFF" d="M434.4,394.3l3.6-5.2c0-0.1,3.2-4.7,4.3-9.8c-1.7,1-4,2.3-6.3,3.2l-8.1,3.5
		l6.3-6.2c0.2-0.2,3.6-3.7,4-9.8c-1.7,2.4-4.4,4.9-8.5,5.9L425,377l3.1-3.8c0.1-0.1,8.5-10.5,4.1-19.2c-5.4-10.6-5-16.6,1.7-23.7
		c1.9-2,2.9-3.7,2.8-5.1c-0.1-1.9-2.3-3.8-4.9-5.8l-1.4-1.1c-4.7-3.8-11.5-9.4-11.7-16.6c-2.3,0.2-6.7,1-8.8,4.4
		c-2.2,3.6-1.6,9.3,2.1,16.8c1.3,3.2,0.6,4.2,0.4,4.6c-0.4,0.6-1,0.9-1.7,0.9c-0.7,0-1.6-0.3-3-1.6c0.9,1.8,2.7,4.1,6.3,6.8
		c8.9,6.7,16.8,14.7,13.8,27.9l-1.4,6.5l-1.7-6.4c-0.5-1.9-2.6-7.1-5.6-7.8c-1.5-0.4-3.1-0.8-4.6-1.5c2.8,7.8,5.8,18.7,3.7,25.9
		l-1.2,4.3l-1.8-4.1c-0.1-0.1-6-13.1-14.7-18.4c-9.9-6-16-26.1-8.9-42.9c4.3-10.2,15.9-25.3,30.2-25.3c7.2,0,13.9,3.9,19.7,11.6
		c19.1,25.1,21,36,17.5,58.2c-2.4,15.1-8.8,25.2-18.8,30.1L434.4,394.3z M446,373.1v3c0,3.2-1,6.4-2.1,9c6-5.1,10-13.2,11.8-24.3
		c3.5-21.4,1.7-31.3-16.8-55.6c-5.2-6.9-11-10.3-17.1-10.3c-11.3,0-22.5,12-27.2,23.3c-5.2,12.4-3,32.4,7.5,38.8
		c6.1,3.7,10.8,10.5,13.5,15.1c-0.1-8.9-4.9-20.8-6.6-24.9c-0.4-0.7-0.8-1.6-1.1-2.5l3-1.2c0,0,0.4,0.8,1,2.2
		c1.6,2.7,4.1,3.8,7.9,4.7c2.3,0.6,4.1,2.3,5.3,4.2c-0.4-6.5-4.5-12.1-13.1-18.6c-10.8-8.1-8.3-14.1-8-14.8l1.1-2.3l1.6,1.9
		c0.6,0.7,1.1,1.2,1.6,1.7c-3.5-7.9-3.9-14.1-1.1-18.4c3.5-5.5,10.8-6,12.9-6c0.3,0,0.5,0,0.5,0l1.8,0.1l-0.2,1.8
		c-0.9,6.2,5.6,11.6,10.4,15.5l1.4,1.1c3,2.5,5.9,4.8,6.1,8.2c0.1,2.4-1,4.8-3.7,7.6c-5.7,6-6,10.5-1.2,19.9
		c3.2,6.2,1.2,12.8-1,17.3c2.7-2.7,3.7-6.1,3.7-6.1l1.7-6.4l1.5,6.4c1.3,5.5,0.4,9.9-1,13.1c2-1.1,3.4-2.1,3.5-2.1L446,373.1z"/>
	<path clip-path="url(#SVGID_2_)" fill="#FADACB" d="M522.7,299.5c0,14.4-9.7,26-21.8,26s-21.8-11.6-21.8-26s9.7-26,21.8-26
		S522.7,285.1,522.7,299.5"/>
	<path clip-path="url(#SVGID_2_)" fill="#A16B4D" d="M482,296.1c-1,2-2.5,7.7-4.7,7.3c-2.6-0.4-2.5-7.7-2.4-10.3
		c0.2-4.6,2.1-10.4,4.2-14.5c3.6-6.7,6.5-11.3,12.8-15.6c1.3-0.9,2.9-1.7,4.4-1.1c0.5,0.2,0.9,0.5,1.4,0.6c0.7,0.1,1.3-0.3,1.9-0.7
		c3.4-2.2,7.3-3.6,11.3-4c0.8-0.1,1.7-0.1,2.4,0.3c1,0.6,1.3,1.8,1.6,2.8c0.4,1.6,0.8,3.1,1.2,4.7c0.2,0.6,0.3,1.3,0.8,1.7
		c0.7,0.7,1.9,0.6,2.9,0.9c2.4,0.8,3.1,3.9,3.4,6.4c0.8,7.8,1.6,15.5,2.4,23.3c0.1,1,0.2,2-0.3,2.9c-0.5,0.9-1.7,1.4-2.5,0.7
		c-0.5-0.4-0.6-1.2-0.6-1.9c-0.2-6.2-1.7-13-6.7-16.7c-1.3,2.1-2.6,4.3-4.4,5.9c-1.9,1.6-4.4,2.6-6.8,2c1.9-3.5,2.6-8.4-0.3-11.2
		c-2.3-2.2-6-2.2-9-1.2c-3.4,1.1-6.4,3.2-8.6,6c-2,2.6-2,2.6-3.3,5.6C482.3,292.1,482.9,293.9,482,296.1"/>
	<path clip-path="url(#SVGID_2_)" fill="#FFFFFF" d="M477.4,304.3c-0.1,0-0.2,0-0.3,0c-3-0.4-3.3-6.3-3.1-11.2
		c0.2-4.5,2-10.4,4.3-14.8c3.5-6.5,6.5-11.4,13.1-15.9c2-1.4,3.7-1.8,5.2-1.2c0.2,0.1,0.4,0.2,0.6,0.3c0.2,0.1,0.4,0.2,0.6,0.3
		c0.4,0.1,0.9-0.3,1.3-0.6c3.5-2.3,7.6-3.7,11.7-4.2c0.3,0,0.6-0.1,1-0.1c0.8,0,1.4,0.1,1.9,0.4c1.4,0.8,1.8,2.4,2,3.4l1.2,4.7
		c0.1,0.5,0.3,1,0.6,1.3c0.3,0.3,0.8,0.4,1.4,0.5c0.4,0.1,0.8,0.1,1.1,0.3c3,1,3.7,4.6,3.9,7.1l2.4,23.3c0.1,0.9,0.2,2.2-0.4,3.4
		c-0.5,0.9-1.5,1.5-2.4,1.5c-0.5,0-1-0.2-1.4-0.5c-0.8-0.7-0.9-1.8-0.9-2.5c-0.2-7.2-2.1-12.4-5.6-15.5c-1.1,1.8-2.4,3.7-4.1,5.2
		c-2.3,2-5.2,2.8-7.6,2.2l-1.1-0.3l0.5-1c1.8-3.3,2.4-7.7-0.2-10.2c-1.4-1.3-3.2-1.6-4.5-1.6c-1.2,0-2.4,0.2-3.6,0.6
		c-3.2,1-6.1,3.1-8.2,5.7c-2,2.5-2,2.5-3.2,5.4c-0.4,1-0.5,1.9-0.5,2.8c-0.1,1-0.2,2.1-0.7,3.3c-0.2,0.4-0.4,1-0.7,1.7
		C481,300.9,479.7,304.3,477.4,304.3 M495.2,262.6c-0.8,0-1.7,0.4-2.8,1.1c-6.3,4.4-9.1,8.9-12.6,15.3c-2.3,4.2-3.9,9.9-4.1,14.1
		c-0.3,5.9,0.6,9.3,1.6,9.4l0.1,0c1.1,0,2.4-3.4,3-5.1c0.3-0.7,0.5-1.3,0.7-1.8c0.4-0.9,0.5-1.8,0.5-2.8c0.1-1,0.2-2.1,0.7-3.3
		c1.3-3.1,1.3-3.2,3.4-5.8c2.3-2.9,5.5-5.1,9-6.3c1.4-0.4,2.8-0.7,4.1-0.7c2.3,0,4.3,0.7,5.7,2c2.9,2.8,2.6,7.4,1,11.1
		c1.7,0.1,3.5-0.7,5-2c1.8-1.5,3-3.6,4.2-5.7l0.5-0.8l0.8,0.6c4.4,3.3,6.7,9.2,7,17.4c0,0.5,0.1,1.1,0.3,1.3c0,0,0.1,0.1,0.2,0.1
		c0.3,0,0.7-0.3,0.9-0.6c0.3-0.6,0.3-1.4,0.2-2.4l-2.4-23.3c-0.4-3.4-1.2-5.2-2.8-5.7c-0.3-0.1-0.6-0.1-0.9-0.2
		c-0.8-0.1-1.6-0.3-2.3-0.9c-0.6-0.6-0.9-1.5-1-2.1l-1.2-4.7c-0.2-1-0.5-1.9-1.2-2.3c-0.3-0.1-0.6-0.2-1.1-0.2c-0.3,0-0.5,0-0.8,0.1
		c-3.9,0.4-7.7,1.8-11,3.9c-0.7,0.4-1.5,1-2.5,0.8c-0.5-0.1-0.8-0.3-1.2-0.5c-0.1-0.1-0.3-0.1-0.4-0.2
		C495.7,262.6,495.5,262.6,495.2,262.6"/>
	<path clip-path="url(#SVGID_2_)" fill="#6CA29A" d="M530.5,329.4c3.8,0.4,6.9,3.6,8.3,7.2c1.4,3.6,1.5,7.5,1.6,11.3
		c0.2,5.3,1.2,10,1.8,15.3c0.2,2,0.5,4.8-0.4,6.6c-0.8,1.7-3.2,2.8-4.9,3.6c-4.2,2-22.2,7.9-29,7.5c4.4-10.5,11-23.8,10.9-35.1
		c-0.1-4.4-0.5-9.1,2-12.7c1.9-2.9,5.6-4.6,9.1-4.1"/>
	<path clip-path="url(#SVGID_2_)" fill="#6CA29A" d="M517.6,318.8c4.6,3.8,9.9,6.8,15.6,9c-3.7,2.7-7.3,5.7-10.6,8.8
		c-0.3,0.3-0.6,0.6-0.6,1c0,0.4,0.3,0.7,0.6,1c1.9,1.9,3.9,3.8,5.8,5.6c0.8,0.8,1.7,1.7,1.8,2.8c0.1,0.7-0.2,1.4-0.4,2.1
		c-4.2,11.7-13.4,22.6-21.9,31.9c-1.8-20.7,9.9-41.1,9.1-61.9"/>
	<path clip-path="url(#SVGID_2_)" fill="#FFFFFF" d="M517.2,319.2c4.8,3.9,10.1,6.9,15.8,9.1c0-0.3-0.1-0.6-0.1-1
		c-2.3,1.7-4.6,3.5-6.7,5.3c-1.2,1-4.1,2.7-4.5,4.3c-0.2,0.7-0.2,0.8,0.1,1.6c0.4,1,1.9,1.9,2.7,2.7c1.9,1.9,3.3,2.9,4.1,5.6
		c1.6,5.5-5,13.8-8.2,18.3c-3.9,5.5-8.4,10.6-13,15.6c0.3,0.1,0.6,0.2,0.9,0.4c-1.5-21.2,9.6-40.8,9.1-61.9c0-0.7-1.1-0.7-1.1,0
		c0.5,21.1-10.5,40.7-9.1,61.9c0,0.4,0.6,0.7,0.9,0.4c8.1-8.9,16.3-18.3,21-29.5c1.9-4.4,1.8-5.9-1.6-9.2c-1.1-1.1-2.5-2.1-3.5-3.4
		c-1.5-1.9-1.6-1.5,0-3.4c2.5-2.9,6.3-5.5,9.4-7.7c0.4-0.3,0.3-0.8-0.1-1c-5.6-2.2-10.7-5.1-15.4-8.8
		C517.4,318,516.7,318.8,517.2,319.2"/>
</g>
</svg>
