<?xml version="1.0" encoding="utf-8"?>
<!-- Generator: Adobe Illustrator 18.1.1, SVG Export Plug-In . SVG Version: 6.00 Build 0)  -->
<svg version="1.1" id="Livello_1" xmlns="http://www.w3.org/2000/svg" xmlns:xlink="http://www.w3.org/1999/xlink" x="0px" y="0px"
	 viewBox="0 0 841.9 595.3" enable-background="new 0 0 841.9 595.3" xml:space="preserve">
<rect x="277.9" y="183.9" fill="#FBFBFB" width="262.8" height="193.7"/>
<rect x="277.9" y="287.2" fill="#89CCCA" width="262.8" height="37.7"/>
<rect x="277.9" y="324.8" fill="#B0B1B1" width="262.8" height="52.8"/>
<g>
	<defs>
		<rect id="SVGID_1_" x="277.9" y="183.9" width="262.8" height="193.7"/>
	</defs>
	<clipPath id="SVGID_2_">
		<use xlink:href="#SVGID_1_"  overflow="visible"/>
	</clipPath>
	<path clip-path="url(#SVGID_2_)" fill="#A16B4D" d="M238.5,300.2h240.9c1.4,0,2.5-1.1,2.5-2.5s-1.1-2.5-2.5-2.5H238.5
		c-1.4,0-2.5,1.1-2.5,2.5S237.1,300.2,238.5,300.2"/>
	<path clip-path="url(#SVGID_2_)" fill="#A16B4D" d="M245.5,291.6H471c1.4,0,2.5-1.1,2.5-2.5c0-1.4-1.1-2.5-2.5-2.5H245.5
		c-1.4,0-2.5,1.1-2.5,2.5C242.9,290.5,244.1,291.6,245.5,291.6"/>
	<path clip-path="url(#SVGID_2_)" fill="#A16B4D" d="M245.5,283.7H471c1.4,0,2.5-1.1,2.5-2.5s-1.1-2.5-2.5-2.5H245.5
		c-1.4,0-2.5,1.1-2.5,2.5S244.1,283.7,245.5,283.7"/>
	<path clip-path="url(#SVGID_2_)" fill="#A16B4D" d="M245.5,275.8H471c1.4,0,2.5-1.1,2.5-2.5s-1.1-2.5-2.5-2.5H245.5
		c-1.4,0-2.5,1.1-2.5,2.5S244.1,275.8,245.5,275.8"/>
	<path clip-path="url(#SVGID_2_)" fill="#A16B4D" d="M245.5,267.8H471c1.4,0,2.5-1.1,2.5-2.5c0-1.4-1.1-2.5-2.5-2.5H245.5
		c-1.4,0-2.5,1.1-2.5,2.5C242.9,266.7,244.1,267.8,245.5,267.8"/>
	<path clip-path="url(#SVGID_2_)" fill="#A16B4D" d="M245.5,259.9H471c1.4,0,2.5-1.1,2.5-2.5c0-1.4-1.1-2.5-2.5-2.5H245.5
		c-1.4,0-2.5,1.1-2.5,2.5C242.9,258.8,244.1,259.9,245.5,259.9"/>
	<path clip-path="url(#SVGID_2_)" fill="#A16B4D" d="M479.3,303.9H238.5c-1.4,0-2.5,1.1-2.5,2.5c0,1.4,1.1,2.5,2.5,2.5h4.5
		c0,0.1,0,0.1,0,0.2v28.4c0,1.4,1.1,2.5,2.5,2.5c1.4,0,2.5-1.1,2.5-2.5v-28.4c0-0.1,0-0.1,0-0.2h8c0,0.1,0,0.1,0,0.2v16.3
		c0,1.4,1.1,2.5,2.5,2.5c1.4,0,2.5-1.1,2.5-2.5v-16.3c0-0.1,0-0.1,0-0.2h194.4v13.8c0,1.4,1.1,2.5,2.5,2.5c1.4,0,2.5-1.1,2.5-2.5
		v-13.8h8v25.8c0,1.4,1.1,2.5,2.5,2.5c1.4,0,2.5-1.1,2.5-2.5v-25.8h5.8c1.4,0,2.5-1.1,2.5-2.5C481.9,305,480.7,303.9,479.3,303.9"/>
	<path clip-path="url(#SVGID_2_)" fill="#646470" d="M404.1,231.3c11.2-9.5,27.7-10.7,39-20c-4,9.1-3.7,19.5-2.7,29.4
		c1.1,9.9,2.8,12.1,1.5,22c-12.3-0.5-27,12.5-39,9.9L404.1,231.3z"/>
	<path clip-path="url(#SVGID_2_)" fill="none" stroke="#FFFFFF" stroke-width="2" stroke-miterlimit="10" d="M404.1,231.3
		c11.2-9.5,27.7-10.7,39-20c-4,9.1-3.7,19.5-2.7,29.4c1.1,9.9,2.8,12.1,1.5,22c-12.3-0.5-27,12.5-39,9.9L404.1,231.3z"/>
	<path clip-path="url(#SVGID_2_)" fill="#646470" d="M403.7,231.3c-11.2-9.5-27.7-10.7-39-20c4,9.1,3.7,19.5,2.7,29.4
		c-1.1,9.9-2.8,12.1-1.5,22c12.3-0.5,27,12.5,39,9.9L403.7,231.3z"/>
	<path clip-path="url(#SVGID_2_)" fill="none" stroke="#FFFFFF" stroke-width="2" stroke-miterlimit="10" d="M403.7,231.3
		c-11.2-9.5-27.7-10.7-39-20c4,9.1,3.7,19.5,2.7,29.4c-1.1,9.9-2.8,12.1-1.5,22c12.3-0.5,27,12.5,39,9.9L403.7,231.3z"/>
	<path clip-path="url(#SVGID_2_)" fill="#47474C" d="M378.4,284.3c-2.9,3.6-2.8,10.6-3,13c-0.8,13.3-0.8,27.1-1.6,40.4
		c0,0.7-0.1,1.5,0.5,2c0.5,0.4,1.2,0.5,1.8,0.4c5.3-0.3,11.4,0,15.6-1.1c-0.4-12.7,0.2-25.5,1.7-38.1c5.7-3.3,12-3.9,19.4-0.1
		c0.6,0.3,1.3,0.3,1.7,0.8c0.4,0.5,0.4,1.1,0.4,1.7c0.4,11.6,0.4,23.3,0,35c6.3,1.1,12.5-0.1,18.8,0.9c-0.3-13.1-0.6-23.8-1-36.9
		c-0.1-4.5-0.1-13.3-3-16.8c-3.6-4.4-10.2-2.2-15.9-2.5c-7.9-0.3-15.9,0.4-23.7,0.1C386.7,283,381.1,282.4,378.4,284.3"/>
	<path clip-path="url(#SVGID_2_)" fill="none" stroke="#FFFFFF" stroke-width="2" stroke-miterlimit="10" d="M378.4,284.3
		c-2.9,3.6-2.8,10.6-3,13c-0.8,13.3-0.8,27.1-1.6,40.4c0,0.7-0.1,1.5,0.5,2c0.5,0.4,1.2,0.5,1.8,0.4c5.3-0.3,11.4,0,15.6-1.1
		c-0.4-12.7,0.2-25.5,1.7-38.1c5.7-3.3,12-3.9,19.4-0.1c0.6,0.3,1.3,0.3,1.7,0.8c0.4,0.5,0.4,1.1,0.4,1.7c0.4,11.6,0.4,23.3,0,35
		c6.3,1.1,12.5-0.1,18.8,0.9c-0.3-13.1-0.6-23.8-1-36.9c-0.1-4.5-0.1-13.3-3-16.8c-3.6-4.4-10.2-2.2-15.9-2.5
		c-7.9-0.3-15.9,0.4-23.7,0.1C386.7,283,381.1,282.4,378.4,284.3z"/>
	<path clip-path="url(#SVGID_2_)" fill="#FADACB" d="M416,210.4c0,7.8-5.3,14.2-11.8,14.2c-6.5,0-11.8-6.3-11.8-14.2
		c0-7.8,5.3-14.2,11.8-14.2C410.7,196.2,416,202.6,416,210.4"/>
	<path clip-path="url(#SVGID_2_)" fill="#72A7A0" d="M395.1,228.1c4.9,1.2,10,1.4,15,0.6c2.2-0.4,4.4-0.9,6.7-0.6
		c1.5,0.2,3,0.8,4.4,1.5c3.8,1.6,7.6,3.3,11.4,4.9c3,1.3,6.2,2.7,8.4,5.2c2.2,2.5,3.1,6.4,1.1,9.1c-4.3,0-8.5,0.1-12.8,0.1
		c-0.6,0-1.3,0-1.8,0.4c-0.9,0.6-0.9,1.9-0.7,3c0.5,3.7,0.9,7.5,1.4,11.2c0.2,1.5,0.4,3,0,4.4c-0.3,1-0.8,1.9-0.9,2.9
		c-0.2,3.6,3.9,9.6,1.9,12.5c-16.4,0.3-32.2-0.3-48.6-0.5c-1.2,0-1.8,1-2.7,0.2c-1.1-1,0.3-6.1,0.9-7.5c0.6-1.4,0.3-2.5,1.2-3.8
		c4.6-6.2,3.7-14.7,2.6-22.3c-0.1-0.6-0.2-1.4-0.7-1.8c-0.5-0.4-1.2-0.4-1.8-0.4c-2.5,0.1-5,0.2-7.5,0.3c-2.2,0.1-4.9,0-6.1-1.8
		c-1.2-1.6-0.6-4,0.7-5.5c1.3-1.5,3.3-2.3,5.1-3.1c7.6-3.2,15.2-6.3,22.8-9.5"/>
	<path clip-path="url(#SVGID_2_)" fill="none" stroke="#FFFFFF" stroke-width="2" stroke-miterlimit="10" d="M395.1,228.1
		c4.9,1.2,10,1.4,15,0.6c2.2-0.4,4.4-0.9,6.7-0.6c1.5,0.2,3,0.8,4.4,1.5c3.8,1.6,7.6,3.3,11.4,4.9c3,1.3,6.2,2.7,8.4,5.2
		c2.2,2.5,3.1,6.4,1.1,9.1c-4.3,0-8.5,0.1-12.8,0.1c-0.6,0-1.3,0-1.8,0.4c-0.9,0.6-0.9,1.9-0.7,3c0.5,3.7,0.9,7.5,1.4,11.2
		c0.2,1.5,0.4,3,0,4.4c-0.3,1-0.8,1.9-0.9,2.9c-0.2,3.6,3.9,9.6,1.9,12.5c-16.4,0.3-32.2-0.3-48.6-0.5c-1.2,0-1.8,1-2.7,0.2
		c-1.1-1,0.3-6.1,0.9-7.5c0.6-1.4,0.3-2.5,1.2-3.8c4.6-6.2,3.7-14.7,2.6-22.3c-0.1-0.6-0.2-1.4-0.7-1.8c-0.5-0.4-1.2-0.4-1.8-0.4
		c-2.5,0.1-5,0.2-7.5,0.3c-2.2,0.1-4.9,0-6.1-1.8c-1.2-1.6-0.6-4,0.7-5.5c1.3-1.5,3.3-2.3,5.1-3.1c7.6-3.2,15.2-6.3,22.8-9.5"/>
	<path clip-path="url(#SVGID_2_)" fill="#A16B4D" d="M394.2,208.4c-0.5,1.1-1.3,4.1-2.5,3.9c-1.4-0.2-1.3-4.1-1.3-5.5
		c0.1-2.4,1.1-5.6,2.2-7.7c1.9-3.6,3.5-6,6.8-8.3c0.7-0.5,1.5-0.9,2.3-0.6c0.2,0.1,0.5,0.3,0.7,0.3c0.4,0.1,0.7-0.2,1-0.4
		c1.8-1.2,3.9-1.9,6-2.1c0.4,0,0.9-0.1,1.3,0.1c0.5,0.3,0.7,0.9,0.9,1.5c0.2,0.8,0.4,1.7,0.6,2.5c0.1,0.3,0.2,0.7,0.4,0.9
		c0.4,0.4,1,0.3,1.5,0.5c1.3,0.4,1.6,2.1,1.8,3.4c0.4,4.1,0.9,8.3,1.3,12.4c0.1,0.5,0.1,1.1-0.1,1.5c-0.2,0.5-0.9,0.7-1.3,0.4
		c-0.3-0.2-0.3-0.6-0.3-1c-0.1-3.3-0.9-6.9-3.5-8.9c-0.7,1.1-1.4,2.3-2.3,3.1c-1,0.9-2.4,1.4-3.6,1.1c1-1.9,1.4-4.5-0.2-6
		c-1.2-1.2-3.2-1.1-4.8-0.6c-1.8,0.6-3.4,1.7-4.6,3.2c-1.1,1.4-1.1,1.4-1.7,3C394.3,206.3,394.7,207.2,394.2,208.4"/>
	<path clip-path="url(#SVGID_2_)" fill="none" stroke="#FFFFFF" stroke-width="2" stroke-miterlimit="10" d="M394.2,208.4
		c-0.5,1.1-1.3,4.1-2.5,3.9c-1.4-0.2-1.3-4.1-1.3-5.5c0.1-2.4,1.1-5.6,2.2-7.7c1.9-3.6,3.5-6,6.8-8.3c0.7-0.5,1.5-0.9,2.3-0.6
		c0.2,0.1,0.5,0.3,0.7,0.3c0.4,0.1,0.7-0.2,1-0.4c1.8-1.2,3.9-1.9,6-2.1c0.4,0,0.9-0.1,1.3,0.1c0.5,0.3,0.7,0.9,0.9,1.5
		c0.2,0.8,0.4,1.7,0.6,2.5c0.1,0.3,0.2,0.7,0.4,0.9c0.4,0.4,1,0.3,1.5,0.5c1.3,0.4,1.6,2.1,1.8,3.4c0.4,4.1,0.9,8.3,1.3,12.4
		c0.1,0.5,0.1,1.1-0.1,1.5c-0.2,0.5-0.9,0.7-1.3,0.4c-0.3-0.2-0.3-0.6-0.3-1c-0.1-3.3-0.9-6.9-3.5-8.9c-0.7,1.1-1.4,2.3-2.3,3.1
		c-1,0.9-2.4,1.4-3.6,1.1c1-1.9,1.4-4.5-0.2-6c-1.2-1.2-3.2-1.1-4.8-0.6c-1.8,0.6-3.4,1.7-4.6,3.2c-1.1,1.4-1.1,1.4-1.7,3
		C394.3,206.3,394.7,207.2,394.2,208.4"/>
	<path clip-path="url(#SVGID_2_)" fill="#C5C5C5" d="M403.9,233.2c-11.9-10.1-30.6-11.3-42.6-21.2c4.3,9.7,4,20.7,2.9,31.2
		c-1.1,10.5-3,12.8-1.6,23.3c13-0.6,27.4,13.3,40.1,10.5L403.9,233.2z"/>
	<path clip-path="url(#SVGID_2_)" fill="none" stroke="#FFFFFF" stroke-width="2" stroke-miterlimit="10" d="M403.9,233.2
		c-11.9-10.1-30.6-11.3-42.6-21.2c4.3,9.7,4,20.7,2.9,31.2c-1.1,10.5-3,12.8-1.6,23.3c13-0.6,27.4,13.3,40.1,10.5L403.9,233.2z"/>
	<path clip-path="url(#SVGID_2_)" fill="#A2A4A4" d="M404.5,233.2c11.9-10.1,29.3-11.3,41.4-21.2c-4.3,9.7-4,20.7-2.9,31.2
		c1.1,10.5,3,12.8,1.6,23.3c-13-0.6-28.7,13.3-41.4,10.5L404.5,233.2z"/>
	<path clip-path="url(#SVGID_2_)" fill="none" stroke="#FFFFFF" stroke-width="2" stroke-miterlimit="10" d="M404.5,233.2
		c11.9-10.1,29.3-11.3,41.4-21.2c-4.3,9.7-4,20.7-2.9,31.2c1.1,10.5,3,12.8,1.6,23.3c-13-0.6-28.7,13.3-41.4,10.5L404.5,233.2z"/>
	<path clip-path="url(#SVGID_2_)" fill="#72A7A0" d="M377,341.4c-0.5,1.3-1.4,2.3-2,3.5c-0.6,1.2-1,2.7-0.3,3.9
		c0.9,1.4,2.8,1.7,4.5,1.7c2.7,0,5.5-0.1,8.2-0.4c0.6-0.1,1.2-0.1,1.7-0.4c1-0.5,1.4-1.8,1.4-2.9c0-2.8-1.9-5.4-4.5-6.5
		c-2.6-1.1-5.6-0.8-8.1,0.4"/>
	<path clip-path="url(#SVGID_2_)" fill="#FFFFFF" d="M376.6,341.2c-1.1,2.7-5.2,7.3-0.7,9.2c1.8,0.8,4,0.5,5.9,0.5
		c1.5,0,3-0.1,4.5-0.2c0.9-0.1,2.1-0.1,3-0.5c3.1-1.6,1.6-6.3-0.2-8.3c-2.9-3.3-7.6-3.3-11.4-1.7c-0.6,0.3-0.1,1.1,0.5,0.8
		c3.2-1.4,7.2-1.5,9.8,1.1c1.1,1.1,1.9,2.5,2,4.1c0.1,0.7,0,1.6-0.4,2.2c-0.8,1.3-2.1,1.2-3.4,1.3c-2.9,0.2-6.2,0.8-9.1,0.1
		c-4.9-1.1-0.9-5.7,0.2-8.1C377.7,341.1,376.8,340.6,376.6,341.2"/>
	<path clip-path="url(#SVGID_2_)" fill="#72A7A0" d="M419,341.4c-0.5,1.3-1.4,2.3-2,3.5c-0.6,1.2-1,2.7-0.3,3.9
		c0.9,1.4,2.8,1.7,4.5,1.7c2.7,0,5.5-0.1,8.2-0.4c0.6-0.1,1.2-0.1,1.7-0.4c1-0.5,1.4-1.8,1.4-2.9c0-2.8-1.9-5.4-4.5-6.5
		c-2.6-1.1-5.6-0.8-8.1,0.4"/>
	<path clip-path="url(#SVGID_2_)" fill="#FFFFFF" d="M418.5,341.2c-1.1,2.7-5.2,7.3-0.7,9.2c1.8,0.8,4,0.5,5.9,0.5
		c1.5,0,3-0.1,4.5-0.2c0.9-0.1,2.1-0.1,3-0.5c3.1-1.6,1.6-6.3-0.2-8.3c-2.9-3.3-7.6-3.3-11.4-1.7c-0.6,0.3-0.1,1.1,0.5,0.8
		c3.2-1.4,7.2-1.5,9.8,1.1c1.1,1.1,1.9,2.5,2,4.1c0.1,0.7,0,1.6-0.4,2.2c-0.8,1.3-2.1,1.2-3.4,1.3c-2.9,0.2-6.2,0.8-9.1,0.1
		c-4.9-1.1-0.9-5.7,0.2-8.1C419.6,341.1,418.8,340.6,418.5,341.2"/>
	<path clip-path="url(#SVGID_2_)" fill="#FADACB" d="M361.7,239.2c1-0.8,2.5-1.7,3.4-0.7c0.5,0.5,0.5,1.3,0.5,2
		c-0.1,2.9-0.9,5.8-2.1,8.5c-0.4,0.9-1,1.8-2,1.9c-1.3,0.1-2.1-1.5-2.4-2.9c-0.7-2.7-1.2-6.1,0.9-7.8c0.8-0.7,2-0.9,3-0.7"/>
	<path clip-path="url(#SVGID_2_)" fill="none" stroke="#FFFFFF" stroke-width="2" stroke-miterlimit="10" d="M361.7,239.2
		c1-0.8,2.5-1.7,3.4-0.7c0.5,0.5,0.5,1.3,0.5,2c-0.1,2.9-0.9,5.8-2.1,8.5c-0.4,0.9-1,1.8-2,1.9c-1.3,0.1-2.1-1.5-2.4-2.9
		c-0.7-2.7-1.2-6.1,0.9-7.8c0.8-0.7,2-0.9,3-0.7"/>
	<path clip-path="url(#SVGID_2_)" fill="#FADACB" d="M444.6,239.2c-1-0.8-2.5-1.7-3.4-0.7c-0.5,0.5-0.5,1.3-0.5,2
		c0.1,2.9,0.9,5.8,2.1,8.5c0.4,0.9,1,1.8,2,1.9c1.3,0.1,2.1-1.5,2.4-2.9c0.7-2.7,1.2-6.1-0.9-7.8c-0.8-0.7-2-0.9-3-0.7"/>
	<path clip-path="url(#SVGID_2_)" fill="none" stroke="#FFFFFF" stroke-width="2" stroke-miterlimit="10" d="M444.6,239.2
		c-1-0.8-2.5-1.7-3.4-0.7c-0.5,0.5-0.5,1.3-0.5,2c0.1,2.9,0.9,5.8,2.1,8.5c0.4,0.9,1,1.8,2,1.9c1.3,0.1,2.1-1.5,2.4-2.9
		c0.7-2.7,1.2-6.1-0.9-7.8c-0.8-0.7-2-0.9-3-0.7"/>
	<path clip-path="url(#SVGID_2_)" fill="#47474C" d="M369,229.6c9.6,2.9,18.9,6.8,27.8,11.6c0.3,0.1,0.5-0.3,0.2-0.4
		c-8.9-4.8-18.2-8.7-27.9-11.6C368.9,229.1,368.7,229.6,369,229.6"/>
	<path clip-path="url(#SVGID_2_)" fill="#47474C" d="M368.6,233.6c7.9,2.4,15.6,5.8,22.8,10c0.3,0.2,0.5-0.3,0.2-0.4
		c-7.2-4.2-14.9-7.6-22.9-10C368.5,233,368.3,233.5,368.6,233.6"/>
	<path clip-path="url(#SVGID_2_)" fill="#47474C" d="M368.7,239c0.3,5.4-0.1,10.8-1.2,16.1c0,0.1,0,0.3,0.2,0.3
		c2.4,0.8,4.8,1.6,7.2,2.4c1.1,0.4,2.2,0.7,3.2,1.1c0.8,0.3,1.8,0.8,2.6,0.7s1.2-0.6,1.5-1.4c0.5-1.9,0.3-4.2,0.4-6.1
		c0-2.3,0.2-4.7,0-6.9c-0.1-1.3-0.6-1.8-1.7-2.4c-3.8-2.1-8.2-3.4-12.4-4.2c-0.3-0.1-0.4,0.4-0.1,0.5c2.3,0.4,4.5,1,6.7,1.7
		c1.9,0.7,5.3,1.5,6.6,3.2c0.8,1,0.6,2.4,0.6,3.7c0,1.2,0,2.5,0,3.7c0,1.2-0.1,2.5-0.1,3.7c-0.1,1.4,0.3,3.9-1.9,3.9
		c-1,0-2.3-0.8-3.2-1.1c-1.2-0.4-2.4-0.8-3.6-1.2c-1.2-0.4-2.4-0.8-3.6-1.2c-1.5-0.5-1.5-1-1.2-2.5c0.8-4.6,1.1-9.3,0.8-14
		C369.1,238.7,368.7,238.7,368.7,239"/>
	<path clip-path="url(#SVGID_2_)" fill="#47474C" d="M388.1,256.8c3.1,1,6.2,1.9,9.3,2.9c0.3,0.1,0.4-0.4,0.1-0.5
		c-3.1-1-6.2-1.9-9.3-2.9C387.9,256.2,387.8,256.7,388.1,256.8"/>
	<path clip-path="url(#SVGID_2_)" fill="#47474C" d="M386.8,259.8c3.2,1.1,6.5,2.1,9.7,3.2c0.3,0.1,0.4-0.4,0.1-0.5
		c-3.2-1.1-6.5-2.1-9.7-3.2C386.7,259.2,386.5,259.7,386.8,259.8"/>
	<path clip-path="url(#SVGID_2_)" fill="#47474C" d="M366.7,262.5c5.5,1,11.5,2.2,16.6,4.6c1.9,0.9,3.4,2.4,5.4,2.9
		c2.5,0.7,5.1,0.4,7.5,1.6c0.3,0.2,0.5-0.3,0.2-0.4c-2-1.1-4.2-1.1-6.4-1.4c-2.7-0.5-4.6-2.4-7.1-3.4c-5.1-2.2-10.7-3.4-16.1-4.4
		C366.5,261.9,366.4,262.4,366.7,262.5"/>
	<path clip-path="url(#SVGID_2_)" fill="#47474C" d="M406.8,235.8c4.5-1.6,8.9-3.5,13.2-5.5c0.3-0.1,0-0.6-0.2-0.4
		c-4.3,2-8.7,3.9-13.1,5.5C406.3,235.5,406.5,235.9,406.8,235.8"/>
	<path clip-path="url(#SVGID_2_)" fill="#47474C" d="M407.9,238.6c4.1-1.8,8.2-3.4,12.5-4.8c0.3-0.1,0.2-0.6-0.1-0.5
		c-4.3,1.4-8.5,3-12.6,4.8C407.3,238.3,407.6,238.7,407.9,238.6"/>
	<path clip-path="url(#SVGID_2_)" fill="#47474C" d="M407.1,241.2c5-1.6,10.1-3.2,15.1-4.8c0.3-0.1,0.2-0.6-0.1-0.5
		c-5,1.6-10.1,3.2-15.1,4.8C406.7,240.9,406.8,241.3,407.1,241.2"/>
	<path clip-path="url(#SVGID_2_)" fill="#47474C" d="M407.5,244.4c5.7-1.6,11.4-3.2,17.1-4.7c0.3-0.1,0.2-0.6-0.1-0.5
		c-5.7,1.6-11.4,3.2-17.1,4.7C407.1,244,407.2,244.5,407.5,244.4"/>
	<path clip-path="url(#SVGID_2_)" fill="#47474C" d="M426.6,228.8c4.9-1.8,9.7-3.9,14.4-6.3c0.3-0.1,0-0.6-0.2-0.4
		c-4.6,2.4-9.4,4.5-14.3,6.3C426.1,228.5,426.3,228.9,426.6,228.8"/>
	<path clip-path="url(#SVGID_2_)" fill="#47474C" d="M427.3,231.8c3.3-1.6,6.6-3,10.1-4.2c0.3-0.1,0.2-0.6-0.1-0.5
		c-3.5,1.2-6.9,2.6-10.2,4.2C426.8,231.5,427.1,231.9,427.3,231.8"/>
	<path clip-path="url(#SVGID_2_)" fill="#47474C" d="M427.8,235c3.1-1.5,6.3-2.7,9.6-3.6c0.3-0.1,0.2-0.5-0.1-0.5
		c-3.4,0.9-6.6,2.1-9.7,3.6C427.2,234.7,427.5,235.1,427.8,235"/>
	<path clip-path="url(#SVGID_2_)" fill="#47474C" d="M427.7,239.3c3.9-0.7,7.6-1.8,11.2-3.2c0.3-0.1,0.2-0.6-0.1-0.5
		c-3.6,1.4-7.4,2.5-11.2,3.2C427.3,238.9,427.4,239.4,427.7,239.3"/>
	<path clip-path="url(#SVGID_2_)" fill="#47474C" d="M409.3,249.7c9.8-3.2,19.7-6.1,29.7-8.8c0.3-0.1,0.2-0.5-0.1-0.5
		c-10,2.7-19.9,5.6-29.7,8.8C408.9,249.4,409,249.8,409.3,249.7"/>
	<path clip-path="url(#SVGID_2_)" fill="#47474C" d="M410.2,251.8c9.6-2.7,19.2-5.4,28.8-8.1c0.3-0.1,0.2-0.6-0.1-0.5
		c-9.6,2.7-19.2,5.4-28.8,8.1C409.7,251.4,409.9,251.9,410.2,251.8"/>
	<path clip-path="url(#SVGID_2_)" fill="#47474C" d="M408.4,254.9c0,3.6,0,7.2,0,10.9c0,0.2,0.2,0.3,0.3,0.2c4.1-1,8.2-2.1,12.2-3.4
		c1-0.3,2.8-0.5,3.5-1.5c0.8-1,0.4-2.9,0.4-4.1c-0.1-1.2-0.1-3.3-0.8-4.4c-0.5-0.8-1.2-0.7-2.1-0.5c-4.2,0.9-8.4,2-12.6,3
		c-0.3,0.1-0.2,0.5,0.1,0.5c3.8-0.9,7.7-1.8,11.5-2.7c0.5-0.1,1-0.2,1.4-0.3c1,0.2,1.5,0.7,1.5,1.5c0.4,0.8,0.3,1.8,0.4,2.6
		c0.1,0.8,0.3,1.9,0.1,2.7c-0.5,2-2,2.2-3.6,2.7c-1.9,0.6-3.8,1.2-5.7,1.7c-1.6,0.4-3.4,1.2-5,1.3c-0.5,0.3-0.8,0.3-1.1-0.1
		c0-0.5,0-1,0-1.5c0-1,0-1.9,0-2.9c0-1.9,0-3.9,0-5.8C408.8,254.6,408.4,254.6,408.4,254.9"/>
	<path clip-path="url(#SVGID_2_)" fill="#47474C" d="M426.9,251.7c3.3-0.4,6.6-1.2,9.8-2.4c0.3-0.1,0.2-0.6-0.1-0.5
		c-3.1,1.1-6.3,1.9-9.6,2.3C426.6,251.2,426.6,251.7,426.9,251.7"/>
	<path clip-path="url(#SVGID_2_)" fill="#47474C" d="M427.7,255.2c2.5-0.9,4.9-1.8,7.4-2.7c0.3-0.1,0.2-0.6-0.1-0.5
		c-2.5,0.9-4.9,1.8-7.4,2.7C427.3,254.8,427.4,255.3,427.7,255.2"/>
	<path clip-path="url(#SVGID_2_)" fill="#47474C" d="M428.1,257.8c1.4-0.4,2.8-0.8,4.3-1.2c0.3-0.1,0.2-0.6-0.1-0.5
		c-1.4,0.4-2.8,0.8-4.3,1.2C427.6,257.4,427.8,257.8,428.1,257.8"/>
	<path clip-path="url(#SVGID_2_)" fill="#47474C" d="M428.5,259.8c0.8-0.4,1.6-0.8,2.3-1.2c0.3-0.1,0-0.6-0.2-0.4
		c-0.8,0.4-1.6,0.8-2.3,1.2C428,259.5,428.3,259.9,428.5,259.8"/>
	<path clip-path="url(#SVGID_2_)" fill="#47474C" d="M410.3,270.7c1.4-0.6,2.9-1.3,4.3-1.9c0.3-0.1,0-0.5-0.2-0.4
		c-1.4,0.6-2.9,1.3-4.3,1.9C409.8,270.4,410,270.8,410.3,270.7"/>
	<path clip-path="url(#SVGID_2_)" fill="#47474C" d="M409.4,272.2c1.5,0,2.9-0.2,4.3-0.8c0.3-0.1,0.2-0.6-0.1-0.5
		c-1.4,0.5-2.8,0.8-4.2,0.8C409.1,271.7,409.1,272.2,409.4,272.2"/>
	<path clip-path="url(#SVGID_2_)" fill="none" stroke="#47474C" stroke-miterlimit="10" d="M450.4,328.5l-21-0.1 M447.3,355.5
		l3.1-27l-22.2,21.3 M470.6,329.7l-20.2-1.2l9.1,18.9 M466.5,305.4l-16.1,23.1l22.2-13.2 M440.5,314l9.9,14.5l0.8-21.6 M427.3,346.6
		l23.1-18.1l-19.8-2.5 M527.2,294.4l14.1,16l2.8-22.4 M527.7,326.3l13.6-15.9l-18.5,1.7 M549.4,329.6l-8.1-19.1l-3.9,22.6
		 M556.2,304l-14.9,6.5l14.4,8.6"/>
	<path clip-path="url(#SVGID_2_)" fill="#919185" d="M448.9,326c-0.4,0.9-0.1,1.9,0.7,2.3c0.8,0.4,1.7,0,2-0.9l11.3-27.5
		c-1.1,0-2.2,0.1-3.3,0.2L448.9,326z"/>
	<path clip-path="url(#SVGID_2_)" fill="none" stroke="#FFFFFF" stroke-miterlimit="10" d="M448.9,326c-0.4,0.9-0.1,1.9,0.7,2.3
		c0.8,0.4,1.7,0,2-0.9l11.3-27.5c-1.1,0-2.2,0.1-3.3,0.2L448.9,326z"/>
	<path clip-path="url(#SVGID_2_)" fill="#646470" d="M452.7,325.5c-0.7-0.9-2.3-0.7-3.6,0.5c-1.3,1.3-1.8,3-1.1,4l5.1,6l3.9-4.9
		L452.7,325.5z"/>
	<path clip-path="url(#SVGID_2_)" fill="none" stroke="#FFFFFF" stroke-width="0.5" stroke-miterlimit="10" d="M452.7,325.5
		c-0.7-0.9-2.3-0.7-3.6,0.5c-1.3,1.3-1.8,3-1.1,4l5.1,6l3.9-4.9L452.7,325.5z"/>
	<path clip-path="url(#SVGID_2_)" fill="#595A63" d="M461.9,344.9c-5.1,6.5-30.6,24.8-34.9,1c-3.8-20.9,15.6-35.4,26-39.7
		c5.7-2.4,15.1-3,18,3.4C476.4,321.7,468.4,336.7,461.9,344.9 M474,306.3c-3.2-7.4-14.5-7.7-19.4-5.6c-11.9,5-36.1,23.4-31.7,47.8
		c5.1,27.9,34.7,6.2,40.7-1.3C475,333.1,480.2,320.4,474,306.3"/>
	<path clip-path="url(#SVGID_2_)" fill="#47474C" d="M475.8,320.9c-1.5,17.6-15.6,29.2-20,32.8c-4.3,3.6-15.5,8.9-22,5.5
		c-5.3-2.7-8.8-7.8-8.6-16.8c0.6-21.8,20.1-34.4,29-37.3C461,302.8,477.5,301.7,475.8,320.9 M476.9,309.9c-5.8-15-21.7-12.8-29-9.2
		c-11.6,5.7-33.5,24.8-28.2,49c6.2,28.5,34.3,10.3,41.6,3.3C470,344.7,482.6,324.7,476.9,309.9"/>
	<path clip-path="url(#SVGID_2_)" fill="none" stroke="#FFFFFF" stroke-width="0.5" stroke-miterlimit="10" d="M475.8,320.9
		c-1.5,17.6-15.6,29.2-20,32.8c-4.3,3.6-15.5,8.9-22,5.5c-5.3-2.7-8.8-7.8-8.6-16.8c0.6-21.8,20.1-34.4,29-37.3
		C461,302.8,477.5,301.7,475.8,320.9z M476.9,309.9c-5.8-15-21.7-12.8-29-9.2c-11.6,5.7-33.5,24.8-28.2,49
		c6.2,28.5,34.3,10.3,41.6,3.3C470,344.7,482.6,324.7,476.9,309.9z"/>
	<path clip-path="url(#SVGID_2_)" fill="none" stroke="#47474C" stroke-width="2" stroke-miterlimit="10" d="M508,313.2l32.2-4.4
		c0,0,3.7,1.9,0.4,4.3c-3.3,2.5-31.2,13.5-31.2,13.5S499.1,322.9,508,313.2z"/>
	<path clip-path="url(#SVGID_2_)" fill="#919185" d="M534.4,296.5c-0.2,0-0.4-0.1-0.4-0.4c-0.1-0.3,0-0.6,0.2-0.7
		c0.5-0.3,1.9-1,2.3-1.5c2.7-3.1,4.5-7,6.2-10.4c0.2-0.4,0.4-0.9,0.6-1.3c1.8-3.6,3.1-3.9,11.4-4.4c1.9-0.1,3,0.4,3.1,1.4
		c0.1,1.4-1.8,2-3.5,2.2c-0.2,0-0.4-0.2-0.4-0.5c0-0.3,0.1-0.5,0.3-0.6c1.8-0.1,2.6-0.7,2.8-1c-0.2-0.2-0.8-0.5-2.2-0.4
		c-8.3,0.5-9.3,0.9-10.8,4c-0.2,0.4-0.4,0.9-0.6,1.3c-1.7,3.4-3.6,7.4-6.3,10.6C536.4,295.5,534.7,296.4,534.4,296.5
		C534.4,296.5,534.4,296.5,534.4,296.5"/>
	<path clip-path="url(#SVGID_2_)" fill="none" stroke="#FFFFFF" stroke-miterlimit="10" d="M534.4,296.5c-0.2,0-0.4-0.1-0.4-0.4
		c-0.1-0.3,0-0.6,0.2-0.7c0.5-0.3,1.9-1,2.3-1.5c2.7-3.1,4.5-7,6.2-10.4c0.2-0.4,0.4-0.9,0.6-1.3c1.8-3.6,3.1-3.9,11.4-4.4
		c1.9-0.1,3,0.4,3.1,1.4c0.1,1.4-1.8,2-3.5,2.2c-0.2,0-0.4-0.2-0.4-0.5c0-0.3,0.1-0.5,0.3-0.6c1.8-0.1,2.6-0.7,2.8-1
		c-0.2-0.2-0.8-0.5-2.2-0.4c-8.3,0.5-9.3,0.9-10.8,4c-0.2,0.4-0.4,0.9-0.6,1.3c-1.7,3.4-3.6,7.4-6.3,10.6
		C536.4,295.5,534.7,296.4,534.4,296.5C534.4,296.5,534.4,296.5,534.4,296.5z"/>
	<path clip-path="url(#SVGID_2_)" fill="#595A63" d="M542.6,333.2c-9.6,2.7-18.7-5.6-19.9-18.6c-1.2-13.1,6.1-25.1,15.9-26.7
		c9.3-1.5,17.4,7.2,18.4,19.2C558,319,551.7,330.6,542.6,333.2 M538.2,284.4c-11.4,1.7-19.9,15.6-18.5,30.9
		c1.4,15.2,12.1,24.7,23.2,21.4c10.5-3,17.6-16.4,16.5-30.1C558.2,292.8,549,282.8,538.2,284.4"/>
	<path clip-path="url(#SVGID_2_)" fill="#47474C" d="M542.7,334.1c-10,2.8-19.5-5.7-20.7-19.3c-1.3-13.7,6.3-26.1,16.5-27.7
		c9.7-1.5,18,7.5,19.1,19.9C558.6,319.4,552.1,331.4,542.7,334.1 M538.1,283.3c-11.8,1.7-20.8,16.2-19.3,32.1
		c1.5,15.8,12.6,25.6,24.1,22.3c10.9-3.2,18.3-17.1,17-31.3C558.8,292.1,549.3,281.7,538.1,283.3"/>
	<path clip-path="url(#SVGID_2_)" fill="none" stroke="#FFFFFF" stroke-width="0.5" stroke-miterlimit="10" d="M542.7,334.1
		c-10,2.8-19.5-5.7-20.7-19.3c-1.3-13.7,6.3-26.1,16.5-27.7c9.7-1.5,18,7.5,19.1,19.9C558.6,319.4,552.1,331.4,542.7,334.1z
		 M538.1,283.3c-11.8,1.7-20.8,16.2-19.3,32.1c1.5,15.8,12.6,25.6,24.1,22.3c10.9-3.2,18.3-17.1,17-31.3
		C558.8,292.1,549.3,281.7,538.1,283.3z"/>
	<path clip-path="url(#SVGID_2_)" fill="#919185" d="M474.2,235.8c-3.1,3.3-6.4,7.8-5.1,13.6c1.1,5.2,5.8,8.1,9.4,10.2
		c2,1.1,4.1,2,6.2,2.1c2.5,0.2,4.9-0.7,7.3-0.8c4.6-0.1,9.1,2.1,13.2,4.2c1.5,0.7,2.4-2,0.9-2.8c-3.5-1.8-7.1-3.7-11-4.4
		c-2-0.4-3.9-0.4-5.9,0c-2.2,0.3-4.3,0.8-6.6,0.1c-2-0.6-3.9-1.8-5.7-3c-1.6-1.1-3.4-2.4-4.5-4.3c-2.8-5,1.3-9.7,3.9-12.5
		C477.6,236.8,475.4,234.4,474.2,235.8"/>
	<path clip-path="url(#SVGID_2_)" fill="none" stroke="#FFFFFF" stroke-miterlimit="10" d="M474.2,235.8c-3.1,3.3-6.4,7.8-5.1,13.6
		c1.1,5.2,5.8,8.1,9.4,10.2c2,1.1,4.1,2,6.2,2.1c2.5,0.2,4.9-0.7,7.3-0.8c4.6-0.1,9.1,2.1,13.2,4.2c1.5,0.7,2.4-2,0.9-2.8
		c-3.5-1.8-7.1-3.7-11-4.4c-2-0.4-3.9-0.4-5.9,0c-2.2,0.3-4.3,0.8-6.6,0.1c-2-0.6-3.9-1.8-5.7-3c-1.6-1.1-3.4-2.4-4.5-4.3
		c-2.8-5,1.3-9.7,3.9-12.5C477.6,236.8,475.4,234.4,474.2,235.8z"/>
	<path clip-path="url(#SVGID_2_)" fill="#919185" d="M502.3,321.4c-0.4-4.4,2-8.5,5.3-9.2c3.3-0.7,6.3,2.2,6.7,6.5
		c0.4,4.3-1.9,8.4-5.2,9.2C505.9,328.7,502.8,325.8,502.3,321.4"/>
	<path clip-path="url(#SVGID_2_)" fill="none" stroke="#FFFFFF" stroke-miterlimit="10" d="M502.3,321.4c-0.4-4.4,2-8.5,5.3-9.2
		c3.3-0.7,6.3,2.2,6.7,6.5c0.4,4.3-1.9,8.4-5.2,9.2C505.9,328.7,502.8,325.8,502.3,321.4z"/>
	<path clip-path="url(#SVGID_2_)" fill="#B0AEA2" d="M504.6,320.9c-0.3-2.8,1.2-5.4,3.3-5.9c2.1-0.4,4,1.4,4.2,4.1
		c0.3,2.7-1.2,5.3-3.3,5.8C506.8,325.5,504.9,323.7,504.6,320.9"/>
	<path clip-path="url(#SVGID_2_)" fill="none" stroke="#FFFFFF" stroke-width="2" stroke-miterlimit="10" d="M504.6,320.9
		c-0.3-2.8,1.2-5.4,3.3-5.9c2.1-0.4,4,1.4,4.2,4.1c0.3,2.7-1.2,5.3-3.3,5.8C506.8,325.5,504.9,323.7,504.6,320.9z"/>
	<path clip-path="url(#SVGID_2_)" fill="#646470" d="M538.4,311.2c-0.2-1.7,0.7-3.3,1.9-3.6c1.2-0.3,2.3,0.9,2.4,2.6
		c0.1,1.7-0.7,3.3-1.9,3.6C539.7,314,538.6,312.9,538.4,311.2"/>
	<path clip-path="url(#SVGID_2_)" fill="none" stroke="#FFFFFF" stroke-width="0.5" stroke-miterlimit="10" d="M538.4,311.2
		c-0.2-1.7,0.7-3.3,1.9-3.6c1.2-0.3,2.3,0.9,2.4,2.6c0.1,1.7-0.7,3.3-1.9,3.6C539.7,314,538.6,312.9,538.4,311.2z"/>
	<path clip-path="url(#SVGID_2_)" fill="#919185" d="M512.7,321.4c-1.2,4.2-2.1,8.7-2.4,13.2c-0.3,4.3,0.2,8.9-1.1,13.1
		c-0.3,0.9,0.7,1.4,1,0.5c1.3-4,0.9-8.3,1.1-12.4c0.3-4.7,1.1-9.4,2.4-13.8C514,321,513,320.5,512.7,321.4"/>
	<path clip-path="url(#SVGID_2_)" fill="none" stroke="#FFFFFF" stroke-miterlimit="10" d="M512.7,321.4c-1.2,4.2-2.1,8.7-2.4,13.2
		c-0.3,4.3,0.2,8.9-1.1,13.1c-0.3,0.9,0.7,1.4,1,0.5c1.3-4,0.9-8.3,1.1-12.4c0.3-4.7,1.1-9.4,2.4-13.8
		C514,321,513,320.5,512.7,321.4z"/>
	<path clip-path="url(#SVGID_2_)" fill="#B0AEA2" d="M527.4,284.4c-0.5,0.4-1,0.9-1.5,1.4c-0.5,0.6-1.1,1.1-1.6,1.8
		c-9.8,12-5.5,32.7-5.5,32.7c-1.4-8.3-0.4-23.4,7.7-31.9c0.2-0.2,0.5-0.5,0.7-0.7c3-2.9,6.8-4.8,11.6-5.3c3.5-0.3,6.3,0.2,8.8,1.3
		c0.1-0.1,0.1-0.2,0.1-0.2l0-0.1c0,0,0.6-0.6,1.3-1.2C542.6,277.9,534.3,278.3,527.4,284.4"/>
	<path clip-path="url(#SVGID_2_)" fill="none" stroke="#FFFFFF" stroke-miterlimit="10" d="M527.4,284.4c-0.5,0.4-1,0.9-1.5,1.4
		c-0.5,0.6-1.1,1.1-1.6,1.8c-9.8,12-5.5,32.7-5.5,32.7c-1.4-8.3-0.4-23.4,7.7-31.9c0.2-0.2,0.5-0.5,0.7-0.7c3-2.9,6.8-4.8,11.6-5.3
		c3.5-0.3,6.3,0.2,8.8,1.3c0.1-0.1,0.1-0.2,0.1-0.2l0-0.1c0,0,0.6-0.6,1.3-1.2C542.6,277.9,534.3,278.3,527.4,284.4z"/>
	<path clip-path="url(#SVGID_2_)" fill="#919185" d="M554.7,279.5c-0.3,0.5-0.8,0.9-1.7,1.1l-2.1-3.9c2,0,3.7,0.4,3.9,1.8
		C554.9,278.9,554.9,279.2,554.7,279.5 M543.7,280.2c0-0.1,0-0.1,0-0.1c-0.2-0.2-0.8-1.7-1.4-3.1c0.8,0,1.6-0.1,2.3-0.1
		c1.3,0,2.5-0.1,3.5-0.2c0.6-0.1,1.3-0.1,2-0.1l2,3.7C550.5,280.3,547.1,280.2,543.7,280.2 M549.4,282.2c-0.7,0.6-1.3,1.2-1.3,1.2
		l0,0.1c0,0-0.1,0.1-0.1,0.2c-0.7,1-4,6.1-7.2,12.1c-0.8,1.5-1.7,2.4-2.5,2.5c-1.2,0.2-2.1-1.1-2.1-1.1l0,0l-7.6-8.5
		c0.7-1.3,3.3-5.2,7.5-6.4c3.7-1,10.9-0.9,14.6-0.8C550.1,281.7,549.7,281.9,549.4,282.2 M534.2,278.1c0.9-0.3,2.1-0.5,3.5-0.7
		c1.2-0.2,2.4-0.2,3.6-0.3c0.7,1.6,1.1,2.6,1.4,3.2c-2.5,0.1-5,0.3-6.8,0.8L534.2,278.1z M555.6,278.2c-0.4-2.6-3.3-2.9-7.7-2.6
		c-1,0.1-2.2,0.1-3.5,0.2c-2.1,0.1-4.6,0.1-6.9,0.4c-2.3,0.3-4.1,0.8-5.3,1.4c-1.3,0.7-4.1,4.3-4.4,4.6c-0.2,0.2-1.6,1.6-1.8,3.4
		c0.5-0.5,1-1,1.5-1.4c0.4-0.6,0.8-1,0.8-1l0-0.1c0.8-1.1,3.2-3.9,4.1-4.4c0.2-0.1,0.5-0.2,0.8-0.4l1.7,2.9
		c-4.1,1.4-6.5,5.2-7.3,6.6l-0.3-0.4c-0.2,0.2-0.5,0.5-0.7,0.7l8.8,9.8c0.2,0.3,1.2,1.7,2.8,1.4c1.1-0.2,2.1-1.2,3-3
		c3.4-6.4,7-11.7,7.3-12.2c0,0,0.1-0.1,0.2-0.2c0.3-0.3,0.9-0.8,1.5-1.3c0.7-0.5,1.4-0.9,2-1c0.2,0,0.3,0,0.5-0.1
		c0.3,0,0.6-0.1,0.8-0.2l0,0l0,0c0.8-0.3,1.4-0.7,1.7-1.4C555.6,279.6,555.7,279,555.6,278.2"/>
	<path clip-path="url(#SVGID_2_)" fill="none" stroke="#FFFFFF" stroke-miterlimit="10" d="M554.7,279.5c-0.3,0.5-0.8,0.9-1.7,1.1
		l-2.1-3.9c2,0,3.7,0.4,3.9,1.8C554.9,278.9,554.9,279.2,554.7,279.5z M543.7,280.2c0-0.1,0-0.1,0-0.1c-0.2-0.2-0.8-1.7-1.4-3.1
		c0.8,0,1.6-0.1,2.3-0.1c1.3,0,2.5-0.1,3.5-0.2c0.6-0.1,1.3-0.1,2-0.1l2,3.7C550.5,280.3,547.1,280.2,543.7,280.2z M549.4,282.2
		c-0.7,0.6-1.3,1.2-1.3,1.2l0,0.1c0,0-0.1,0.1-0.1,0.2c-0.7,1-4,6.1-7.2,12.1c-0.8,1.5-1.7,2.4-2.5,2.5c-1.2,0.2-2.1-1.1-2.1-1.1
		l0,0l-7.6-8.5c0.7-1.3,3.3-5.2,7.5-6.4c3.7-1,10.9-0.9,14.6-0.8C550.1,281.7,549.7,281.9,549.4,282.2z M534.2,278.1
		c0.9-0.3,2.1-0.5,3.5-0.7c1.2-0.2,2.4-0.2,3.6-0.3c0.7,1.6,1.1,2.6,1.4,3.2c-2.5,0.1-5,0.3-6.8,0.8L534.2,278.1z M555.6,278.2
		c-0.4-2.6-3.3-2.9-7.7-2.6c-1,0.1-2.2,0.1-3.5,0.2c-2.1,0.1-4.6,0.1-6.9,0.4c-2.3,0.3-4.1,0.8-5.3,1.4c-1.3,0.7-4.1,4.3-4.4,4.6
		c-0.2,0.2-1.6,1.6-1.8,3.4c0.5-0.5,1-1,1.5-1.4c0.4-0.6,0.8-1,0.8-1l0-0.1c0.8-1.1,3.2-3.9,4.1-4.4c0.2-0.1,0.5-0.2,0.8-0.4
		l1.7,2.9c-4.1,1.4-6.5,5.2-7.3,6.6l-0.3-0.4c-0.2,0.2-0.5,0.5-0.7,0.7l8.8,9.8c0.2,0.3,1.2,1.7,2.8,1.4c1.1-0.2,2.1-1.2,3-3
		c3.4-6.4,7-11.7,7.3-12.2c0,0,0.1-0.1,0.2-0.2c0.3-0.3,0.9-0.8,1.5-1.3c0.7-0.5,1.4-0.9,2-1c0.2,0,0.3,0,0.5-0.1
		c0.3,0,0.6-0.1,0.8-0.2l0,0l0,0c0.8-0.3,1.4-0.7,1.7-1.4C555.6,279.6,555.7,279,555.6,278.2z"/>
	<path clip-path="url(#SVGID_2_)" fill="#47474C" d="M506.3,265.9c-0.2,0-0.5,0-0.7-0.1c-0.1,0-7-3.4-10.8-4.1
		c-1-0.2-1.7-1.3-1.6-2.5c0.1-1.2,0.9-2,1.9-1.9c4.2,0.8,11.2,4.4,11.5,4.5c0.9,0.4,1.3,1.7,1.1,2.8
		C507.5,265.4,506.9,265.9,506.3,265.9"/>
	<path clip-path="url(#SVGID_2_)" fill="none" stroke="#FFFFFF" stroke-width="0.5" stroke-miterlimit="10" d="M506.3,265.9
		c-0.2,0-0.5,0-0.7-0.1c-0.1,0-7-3.4-10.8-4.1c-1-0.2-1.7-1.3-1.6-2.5c0.1-1.2,0.9-2,1.9-1.9c4.2,0.8,11.2,4.4,11.5,4.5
		c0.9,0.4,1.3,1.7,1.1,2.8C507.5,265.4,506.9,265.9,506.3,265.9z"/>
	<path clip-path="url(#SVGID_2_)" fill="#47474C" d="M473.4,241.6c-0.5,0-1-0.2-1.4-0.6c-0.9-0.9-1-2.4-0.4-3.3
		c0.3-0.5,3.2-4.4,6.7-5.1c1-0.2,2,0.7,2.3,1.9c0.3,1.3-0.3,2.4-1.3,2.7c-1.9,0.4-4,2.9-4.7,3.8
		C474.3,241.3,473.9,241.6,473.4,241.6"/>
	<path clip-path="url(#SVGID_2_)" fill="none" stroke="#FFFFFF" stroke-width="0.5" stroke-miterlimit="10" d="M473.4,241.6
		c-0.5,0-1-0.2-1.4-0.6c-0.9-0.9-1-2.4-0.4-3.3c0.3-0.5,3.2-4.4,6.7-5.1c1-0.2,2,0.7,2.3,1.9c0.3,1.3-0.3,2.4-1.3,2.7
		c-1.9,0.4-4,2.9-4.7,3.8C474.3,241.3,473.9,241.6,473.4,241.6z"/>
	<path clip-path="url(#SVGID_2_)" fill="#919185" d="M480,292.7L480,292.7c-1.4-1.1-4.9-4.4-5.5-7.8c-0.2-1.2,0-2.3,0.5-3.4
		c0.9-1.6,1.9-2.5,3.2-2.6c2.9-0.5,6.1,2.8,6.2,2.8l26.4,25.3c-0.9,3.4-1.8,6.9-2.8,10.3c0,0-0.1-0.1-0.1-0.1L480,292.7z
		 M519.2,274.8c-2.3,8.9-4.6,17.9-7.1,27c-0.1,0.5-0.3,1.1-0.4,1.6l-25.4-24.6c-0.4-0.4-4.4-4.4-8.6-3.8c-2.2,0.3-4.1,1.8-5.5,4.3
		c-1.1,2-1.4,4.1-1,6.4c0.5,2.5,1.8,5,4,7.5c1.4,1.6,2.7,2.6,3,2.8l28,24.4c0.1,0.1,0.2,0.1,0.3,0.2c0.2,1.3,1.1,2.1,2.2,1.9
		c1-0.2,1.7-1.4,1.7-2.7c1.6-5.5,3-11.1,4.5-16.5c2.4-9,4.7-18,7-26.8C522.3,274.1,519.8,272.5,519.2,274.8"/>
	<path clip-path="url(#SVGID_2_)" fill="none" stroke="#FFFFFF" stroke-miterlimit="10" d="M480,292.7L480,292.7
		c-1.4-1.1-4.9-4.4-5.5-7.8c-0.2-1.2,0-2.3,0.5-3.4c0.9-1.6,1.9-2.5,3.2-2.6c2.9-0.5,6.1,2.8,6.2,2.8l26.4,25.3
		c-0.9,3.4-1.8,6.9-2.8,10.3c0,0-0.1-0.1-0.1-0.1L480,292.7z M519.2,274.8c-2.3,8.9-4.6,17.9-7.1,27c-0.1,0.5-0.3,1.1-0.4,1.6
		l-25.4-24.6c-0.4-0.4-4.4-4.4-8.6-3.8c-2.2,0.3-4.1,1.8-5.5,4.3c-1.1,2-1.4,4.1-1,6.4c0.5,2.5,1.8,5,4,7.5c1.4,1.6,2.7,2.6,3,2.8
		l28,24.4c0.1,0.1,0.2,0.1,0.3,0.2c0.2,1.3,1.1,2.1,2.2,1.9c1-0.2,1.7-1.4,1.7-2.7c1.6-5.5,3-11.1,4.5-16.5c2.4-9,4.7-18,7-26.8
		C522.3,274.1,519.8,272.5,519.2,274.8z"/>
	
		<path clip-path="url(#SVGID_2_)" fill="none" stroke="#47474C" stroke-width="7" stroke-linecap="round" stroke-miterlimit="10" d="
		M509.9,345.3c0,0-0.2,0.9-1.4,1.5"/>
	<path clip-path="url(#SVGID_2_)" fill="#B0AEA2" d="M470.1,299.3c-0.3-0.1-0.5-0.2-0.8-0.3c0,0.6-0.1,1.3-0.3,2
		c4.7,1.9,8.5,6.7,9.2,17.1C478.3,318,479.9,304,470.1,299.3"/>
	<path clip-path="url(#SVGID_2_)" fill="none" stroke="#FFFFFF" stroke-miterlimit="10" d="M470.1,299.3c-0.3-0.1-0.5-0.2-0.8-0.3
		c0,0.6-0.1,1.3-0.3,2c4.7,1.9,8.5,6.7,9.2,17.1C478.3,318,479.9,304,470.1,299.3z"/>
	<path clip-path="url(#SVGID_2_)" fill="#B0AEA2" d="M460.9,297.2c-10.7-0.2-20.5,6-20.5,6c2.3-1.3,4.9,1.6,4.9,1.6s7-3.9,14.5-4.8
		c1.1-0.1,2.2-0.2,3.4-0.2c1,0,2,0.1,3,0.3c0.2-0.7,0.2-1.4,0.2-2.1c-0.7-0.2-1.5-0.3-2.2-0.4C463,297.3,461.9,297.3,460.9,297.2"/>
	<path clip-path="url(#SVGID_2_)" fill="none" stroke="#FFFFFF" stroke-miterlimit="10" d="M460.9,297.2c-10.7-0.2-20.5,6-20.5,6
		c2.3-1.3,4.9,1.6,4.9,1.6s7-3.9,14.5-4.8c1.1-0.1,2.2-0.2,3.4-0.2c1,0,2,0.1,3,0.3c0.2-0.7,0.2-1.4,0.2-2.1
		c-0.7-0.2-1.5-0.3-2.2-0.4C463,297.3,461.9,297.3,460.9,297.2z"/>
	<path clip-path="url(#SVGID_2_)" fill="#777777" d="M453.2,336.1c0.7,0.9,2.3,0.7,3.6-0.6c1.3-1.3,1.7-3.1,1-4
		c-0.7-0.9-2.3-0.7-3.6,0.6C452.9,333.3,452.5,335.1,453.2,336.1"/>
</g>
<path fill="none" stroke="#47474C" stroke-miterlimit="10" d="M458,304.7l-2.8,29.2l-13.4-21 M472.7,323.7l-17.5,10.2l14.7-27
	 M462.9,344.9l-7.7-11l14.8-1.3 M441.4,358.1l13.8-24.3l-2.6,19.9 M428,331.6l27.2,2.2l-26.6,17.9"/>
<g>
	<defs>
		<rect id="SVGID_3_" x="277.9" y="183.9" width="262.8" height="193.7"/>
	</defs>
	<clipPath id="SVGID_4_">
		<use xlink:href="#SVGID_3_"  overflow="visible"/>
	</clipPath>
	<path clip-path="url(#SVGID_4_)" fill="#919185" d="M475.6,256.7c-3.4,11.7-6.5,23.7-10.5,35.6c-0.1,0-0.2,0.1-0.4,0.1
		c-1.9,0.7-3.2,3.5-3.4,4l-0.3,0.7c1.1,0,2.1,0.1,3.2,0.3c0.5-0.9,1.1-1.7,1.3-1.7c0,0,0,0,0,0c0,0,0,0,0,0c0.5,0.4,0.8,1.2,0.8,2.1
		c0,0.7-0.1,1.4-0.2,2.2c-0.1,0.5-0.2,1-0.4,1.5c-1,3.2-10.7,30.9-10.8,31.1c-0.3,0.9,0,1.9,0.8,2.2c0.3,0.1,0.5,0.1,0.8,0.1
		c0.5-0.1,1-0.5,1.2-1.2c0.4-1.2,9.7-27.9,10.7-31.1c0.2-0.6,0.4-1.3,0.5-1.9c0.1-0.7,0.2-1.4,0.3-2c0.1-1.8-0.2-3.4-0.9-4.6
		c3.9-11.8,7-23.9,10.4-35.5C479.4,256.2,476.3,254.2,475.6,256.7"/>
	<path clip-path="url(#SVGID_4_)" fill="none" stroke="#FFFFFF" stroke-miterlimit="10" d="M475.6,256.7
		c-3.4,11.7-6.5,23.7-10.5,35.6c-0.1,0-0.2,0.1-0.4,0.1c-1.9,0.7-3.2,3.5-3.4,4l-0.3,0.7c1.1,0,2.1,0.1,3.2,0.3
		c0.5-0.9,1.1-1.7,1.3-1.7c0,0,0,0,0,0c0,0,0,0,0,0c0.5,0.4,0.8,1.2,0.8,2.1c0,0.7-0.1,1.4-0.2,2.2c-0.1,0.5-0.2,1-0.4,1.5
		c-1,3.2-10.7,30.9-10.8,31.1c-0.3,0.9,0,1.9,0.8,2.2c0.3,0.1,0.5,0.1,0.8,0.1c0.5-0.1,1-0.5,1.2-1.2c0.4-1.2,9.7-27.9,10.7-31.1
		c0.2-0.6,0.4-1.3,0.5-1.9c0.1-0.7,0.2-1.4,0.3-2c0.1-1.8-0.2-3.4-0.9-4.6c3.9-11.8,7-23.9,10.4-35.5
		C479.4,256.2,476.3,254.2,475.6,256.7z"/>
	<path clip-path="url(#SVGID_4_)" fill="none" stroke="#47474C" stroke-miterlimit="10" d="M523.2,305.7l18.1,4.6l-5-21.8
		 M534.5,332.8l6.8-22.5l-15.9,13.7 M554.7,321.4l-13.4-11.1l3.9,21.9 M552.6,294.6l-11.3,15.7l15.7-2.1"/>
	<path clip-path="url(#SVGID_4_)" fill="#919185" d="M541.2,309.3l-21.4-24.5c-0.6-0.7-1.4-0.6-1.9,0.2c-0.5,0.8-0.4,1.9,0.2,2.6
		l20.7,23.4c-1.5,0.8-5.2,2.1-14.7,4.4c-7.7,1.8-15.6,3.3-15.6,3.4c-0.5,0.1-0.9,0.7-0.8,1.4s0.5,1.1,1,1c0.1,0,5.1-1,11-2.4
		c1.7-0.4,3.4-0.8,5.1-1.2c11.4-2.8,14.7-4.3,15.8-5.3c0,0,0.1,0,0.1,0c0.3-0.1,0.6-0.3,0.8-0.6
		C541.8,310.9,541.7,309.9,541.2,309.3"/>
	<path clip-path="url(#SVGID_4_)" fill="none" stroke="#FFFFFF" stroke-miterlimit="10" d="M541.2,309.3l-21.4-24.5
		c-0.6-0.7-1.4-0.6-1.9,0.2c-0.5,0.8-0.4,1.9,0.2,2.6l20.7,23.4c-1.5,0.8-5.2,2.1-14.7,4.4c-7.7,1.8-15.6,3.3-15.6,3.4
		c-0.5,0.1-0.9,0.7-0.8,1.4s0.5,1.1,1,1c0.1,0,5.1-1,11-2.4c1.7-0.4,3.4-0.8,5.1-1.2c11.4-2.8,14.7-4.3,15.8-5.3c0,0,0.1,0,0.1,0
		c0.3-0.1,0.6-0.3,0.8-0.6C541.8,310.9,541.7,309.9,541.2,309.3z"/>
	<path clip-path="url(#SVGID_4_)" fill="#B0AEA2" d="M473.8,256.5c-0.2-2.3,1.1-4.2,2.9-4.3c1.8-0.1,3.4,1.6,3.6,3.8
		c0.2,2.2-1,4.1-2.8,4.2C475.7,260.5,474.1,258.8,473.8,256.5"/>
	<path clip-path="url(#SVGID_4_)" fill="none" stroke="#FFFFFF" stroke-width="2" stroke-miterlimit="10" d="M473.8,256.5
		c-0.2-2.3,1.1-4.2,2.9-4.3c1.8-0.1,3.4,1.6,3.6,3.8c0.2,2.2-1,4.1-2.8,4.2C475.7,260.5,474.1,258.8,473.8,256.5z"/>
	<path clip-path="url(#SVGID_4_)" fill="#47474C" d="M512.7,271.2c4.5,4.1,9.2,5.1,14,4.3c1.1-0.2,3.5-1,4.4-1.7
		c5.7-4.6,1.1-8.4-0.7-8.8c-3.1-0.8-7.4,2.2-8.7,2.3c-2.1,0.1-3.2-0.3-5.4-0.2C514.8,267.2,510.6,269.3,512.7,271.2"/>
	<path clip-path="url(#SVGID_4_)" fill="none" stroke="#FFFFFF" stroke-width="0.5" stroke-miterlimit="10" d="M512.7,271.2
		c4.5,4.1,9.2,5.1,14,4.3c1.1-0.2,3.5-1,4.4-1.7c5.7-4.6,1.1-8.4-0.7-8.8c-3.1-0.8-7.4,2.2-8.7,2.3c-2.1,0.1-3.2-0.3-5.4-0.2
		C514.8,267.2,510.6,269.3,512.7,271.2z"/>
</g>
</svg>
